<svg width="359" height="352" viewBox="0 0 359 352" fill="none" xmlns="http://www.w3.org/2000/svg">
<path d="M162.572 286.021C159.209 286.18 155.875 286.666 152.538 287.088C146.128 287.87 139.721 288.569 133.266 288.815C127.084 288.849 120.889 287.998 115.043 285.932C114.34 285.684 117.867 286.808 117.224 286.429C115.611 285.478 113.79 284.931 112.073 284.182C106.963 281.19 105.858 280.755 101.115 277.113C99.4095 275.803 97.6822 274.499 96.1635 272.976C94.4405 271.249 92.8866 269.352 91.4254 267.398C87.7135 262.436 86.7477 260.071 83.8976 254.631C79.2965 245.124 77.4658 234.749 77.8997 224.225C78.189 217.209 78.9135 214.867 80.2484 207.988C82.9364 197.532 87.3343 187.478 93.7313 178.732C97.9994 172.897 99.8794 171.445 105.039 166.327C114.282 158.084 124.672 151.271 135.567 145.422C142.818 141.53 146.35 140.039 153.871 136.567C170.388 129.35 187.346 123.119 203.355 114.777C206.657 113.056 209.876 111.179 213.137 109.38C217.21 106.937 226.842 101.393 230.665 98.2291C232.821 96.4445 234.542 94.1927 236.481 92.1745L232.763 90.7001C230.022 92.381 227.255 94.02 224.54 95.7429C204.146 108.687 228.692 93.6152 206.981 106.82C203.721 108.608 200.504 110.475 197.202 112.184C181.144 120.494 164.123 126.671 147.576 133.895C144.402 135.339 141.198 136.721 138.053 138.227C123.795 145.053 110.082 153.188 98.2236 163.71C93.1634 168.675 90.8724 170.508 86.6994 176.21C80.2542 185.016 75.9226 195.247 73.1842 205.751C72.6478 208.472 71.9766 211.169 71.5751 213.913C70.0183 224.553 70.2886 235.905 73.6589 246.196C74.4035 248.469 75.5117 250.607 76.4381 252.812C77.5828 255.007 78.6289 257.256 79.8724 259.396C82.1033 263.236 85.4457 268.227 88.5726 271.438C90.0977 273.003 91.8726 274.308 93.599 275.649C98.3206 279.317 99.4242 279.792 104.479 282.863C115.852 287.926 127.768 292.431 140.387 292.168C146.786 291.862 153.162 291.254 159.496 290.281C162.514 289.797 165.517 289.223 168.544 288.817L162.572 286.021Z" fill="white" fill-opacity="0.4"/>
<path d="M173.676 272.438C174.288 272.263 174.926 272.158 175.514 271.913C176.213 271.623 179.161 269.887 179.689 269.568C180.752 268.927 184.228 266.748 185.073 266.119C186.284 265.217 187.409 264.205 188.578 263.249C192.397 259.691 195.633 255.565 198.487 251.211C199.434 249.766 200.391 248.318 201.177 246.779C203.12 242.97 204.263 239.205 205.666 235.175C209.732 222.351 211.423 208.97 214.389 195.888C215.092 192.787 215.903 189.711 216.66 186.622C221.576 166.505 230.235 147.631 238.138 128.566C239.509 125.734 240.881 122.902 242.252 120.07L239.167 118.989C237.438 121.701 235.71 124.413 233.981 127.125C232.115 130.086 230.113 132.966 228.384 136.008C224.504 142.833 222.394 147.908 219.491 155.173C215.675 164.723 212.403 174.466 209.743 184.398C208.928 187.479 208.049 190.543 207.3 193.64C204.159 206.631 202.407 219.97 198.121 232.676C196.582 237.025 195.691 240.025 193.617 244.105C190.519 250.2 186.125 255.645 181.218 260.369C180.121 261.327 179.059 262.327 177.926 263.244C176.846 264.117 174.166 265.969 172.908 266.791C171.629 267.627 170.256 268.313 168.981 269.155C168.651 269.374 168.373 269.662 168.069 269.916L173.676 272.438Z" fill="white" fill-opacity="0.4"/>
<path d="M58.1813 258.999C55.5558 258.042 51.1447 258.217 62.9282 260.438C63.5013 260.546 61.9488 259.802 61.4818 259.452C60.1588 258.462 59.2132 257.578 57.9655 256.477C54.6139 253.005 50.2311 250.751 46.8752 247.289C45.8252 246.206 44.8969 245.012 43.9078 243.873C37.4798 235.818 33.4142 226.181 30.6058 216.326C29.9988 214.196 29.5255 212.031 28.9855 209.883C28.5992 207.408 28.0548 204.952 27.8264 202.457C26.761 190.82 28.4172 177.5 31.1582 166.177C31.9152 163.05 32.9255 159.99 33.8091 156.896C37.9292 144.458 43.7707 132.627 51.546 122.062C56.6122 115.178 58.1175 114.025 64.0065 107.933C72.3895 99.9931 82.1252 93.7782 93.0586 90.0065C99.5615 87.7633 103.714 87.0624 110.432 85.5919C130.173 81.8318 150.32 81.1799 170.359 80.8307C187.22 80.5222 204.307 82.1195 221.028 79.1829C223.757 78.7036 226.432 77.953 229.134 77.338C235.099 75.1069 237.789 74.6024 242.886 70.831C244.585 69.5742 245.966 67.9369 247.506 66.4899L243.609 64.9136C241.426 66.0693 239.284 67.3061 237.06 68.3808C230.649 71.4782 229.019 71.862 222.311 74.2686C219.664 74.883 217.044 75.6263 214.371 76.111C197.896 79.0971 181.041 77.6244 164.414 78.0045C144.175 78.293 123.815 78.7041 103.888 82.6405C97.3096 84.093 92.7204 84.9047 86.3438 87.1134C75.3577 90.9197 65.6799 97.3159 57.3597 105.395C51.7201 111.308 49.7429 112.992 44.8953 119.658C37.1539 130.303 31.3436 142.27 27.1023 154.701C26.2031 157.81 25.1838 160.886 24.4047 164.027C22.8742 170.197 21.8851 176.293 21.2133 182.609C20.618 188.208 20.1982 194.752 20.5296 200.404C20.676 202.901 21.1474 205.369 21.4564 207.851C21.9983 210.016 22.4767 212.197 23.0823 214.345C25.3282 222.31 28.6023 231.097 32.9797 238.152C33.8279 239.518 34.8568 240.764 35.7954 242.07C36.7238 243.234 37.5836 244.456 38.5807 245.561C41.8501 249.184 46.3169 251.35 49.7531 254.782C54.313 258.833 57.9502 262.02 64.9397 262.255L58.1813 258.999Z" fill="white" fill-opacity="0.4"/>
<path d="M255.577 282.046C255.889 281.654 256.228 281.28 256.514 280.869C257.503 279.45 258.38 277.958 259.339 276.519C260.909 274.165 262.107 272.511 263.489 269.992C264.252 268.6 264.908 267.154 265.618 265.735C271.186 251.715 272.21 236.551 273.576 221.725C274.103 210.952 274.033 217.523 273.594 207.274C273.512 205.368 273.468 203.46 273.405 201.554L269.72 200.49C269.655 202.355 269.674 204.225 269.524 206.086C269.348 208.276 269.004 210.452 268.744 212.634C268.568 215.132 268.392 217.63 268.215 220.128C266.997 234.876 265.779 249.979 259.611 263.697C257.657 267.529 257.579 267.952 255.309 271.421C253.458 274.251 251.112 276.832 249.801 279.973L255.577 282.046Z" fill="white" fill-opacity="0.4"/>
<path d="M270.3 154.417C270.103 148.978 269.572 143.555 270.021 138.099C270.165 136.353 270.445 134.618 270.657 132.878C270.816 130.719 270.974 128.559 271.133 126.399L267.704 125.34C266.757 127.283 265.811 129.226 264.865 131.169C264.616 132.914 264.308 134.653 264.119 136.404C263.531 141.833 263.505 147.424 264.342 152.807L270.3 154.417Z" fill="white" fill-opacity="0.4"/>
<path d="M108.786 206.21C111.081 200.545 114.119 195.139 117.556 190.075C119.047 187.878 120.675 185.776 122.235 183.626C128.987 175.81 127.819 176.8 135.483 169.451C137.853 167.178 140.224 164.899 142.721 162.763C145.017 160.8 147.474 159.032 149.851 157.166L147.651 156.302C145.466 158.051 134.438 166.846 132.693 168.389C126.755 173.644 124.22 176.668 118.911 182.417C113.819 188.853 114.361 187.87 110.171 194.191C107.977 197.502 105.51 200.926 104.57 204.843L108.786 206.21Z" fill="white" fill-opacity="0.4"/>
<path d="M61.4028 137.382C66.7366 128.628 75.2516 122.938 83.3428 117.248C85.8409 116.09 88.3389 114.932 90.8369 113.774L86.3377 111.801C84.3763 113.199 82.4149 114.598 80.4534 115.997C78.0923 117.377 75.6673 118.648 73.37 120.138C71.2957 121.484 69.3144 122.98 67.3533 124.495C63.2793 127.644 59.3612 131.137 56.5418 135.573L61.4028 137.382Z" fill="white" fill-opacity="0.4"/>
<path d="M150.806 309.875C152.427 312.741 154.202 315.541 156.462 317.96C157.321 318.88 158.253 319.731 159.149 320.616C164.197 325.297 169.822 329.611 176.247 332.283C182.375 334.831 191.025 336.676 196.95 338.196C204.184 339.005 207.462 339.647 214.802 339.346C224.191 338.961 233.741 337.021 242.482 333.549C245.532 332.338 248.421 330.757 251.391 329.361C254.217 327.651 257.129 326.075 259.869 324.232C270.656 316.979 280.261 307.401 287.097 296.345C288.8 293.589 290.152 290.634 291.68 287.778C294.71 280.202 296.19 277.462 297.856 269.427C300.027 258.964 300.188 247.979 299.55 237.363C299.275 232.79 298.731 228.238 298.321 223.675C297.855 218.703 297.507 213.719 296.922 208.76C296.211 202.741 295.17 196.765 294.436 190.75C292.312 173.343 292.405 171.531 291.214 154.363L290.833 154.254C291.553 171.103 291.726 173.001 292.077 190.079C292.196 195.87 292.072 201.667 292.315 207.454C292.523 212.405 293.057 217.337 293.429 222.279C293.988 233.996 294.875 245.795 293.656 257.514C292.635 267.327 290.114 276.819 285.979 285.803C284.455 288.634 283.088 291.555 281.407 294.298C276.35 302.553 269.876 310.055 262.44 316.283C256.053 321.633 253.332 322.889 246.2 327.178C243.213 328.542 240.298 330.076 237.239 331.27C228.541 334.665 219.14 336.628 209.81 336.974C202.385 337.249 199.249 336.578 191.928 335.692C190.975 335.674 189.995 335.862 189.07 335.639C179.802 333.406 171.638 328.14 164.723 321.783C163.839 320.915 162.93 320.072 162.072 319.179C159.65 316.655 157.686 313.778 155.627 310.967L150.806 309.875Z" fill="white" fill-opacity="0.4"/>
<path d="M267.854 332.685C273.855 335.36 280.214 337.741 286.793 338.493C288.327 338.669 289.875 338.695 291.415 338.796C298.428 338.824 305.435 337.614 311.777 334.513C316.076 332.411 317.322 331.184 321.122 328.319C329.577 320.833 335.652 311.102 339.528 300.585C340.408 298.197 341.05 295.729 341.811 293.301C344.645 282.885 345.372 272.131 344.36 261.421C343.711 254.55 342.925 251.531 341.572 244.764C340.874 241.969 340.231 239.16 339.479 236.379C337.872 230.437 335.696 223.626 333.934 217.765C330.665 206.894 327.591 195.972 324.543 185.038C323.432 181.031 322.333 177.021 321.21 173.017C320.077 168.979 318.972 164.932 317.775 160.912C315.282 152.541 312.257 144.159 310.459 135.588C309.671 131.825 309.343 127.98 308.785 124.176L308.4 124.069C308.92 127.864 309.524 131.648 309.962 135.453C311.333 147.389 310.672 147.738 312.806 159.595C313.524 163.587 314.501 167.529 315.406 171.483C316.316 175.457 317.303 179.414 318.251 183.38C321.512 196.108 320.74 193.389 324.179 205.698C326.859 215.29 329.745 224.834 332.275 234.467C333.003 237.238 333.653 240.029 334.341 242.81C335.683 249.479 336.489 252.588 337.137 259.36C338.154 269.975 337.388 280.647 334.677 290.989C333.922 293.393 333.282 295.835 332.411 298.201C328.574 308.619 322.434 318.081 314.169 325.584C310.327 328.536 309.449 329.511 305.083 331.675C298.875 334.752 292.039 335.891 285.156 335.792C283.639 335.675 282.114 335.633 280.605 335.442C279.299 335.278 277.804 333.978 276.722 334.727C275.794 335.37 278.951 335.309 279.879 335.946C280.129 336.118 277.613 335.243 275.172 334.319C274.688 334.136 274.208 333.943 273.726 333.755L267.854 332.685Z" fill="white" fill-opacity="0.4"/>
<path d="M162.735 331.475C161.598 331.544 160.439 331.541 159.321 331.286C158.799 331.167 157.275 330.655 157.785 330.818C163.114 332.52 163.611 332.793 160.545 331.502C155.139 328.893 149.807 326.132 144.137 324.13C141.261 323.299 136.281 320.999 132.475 321.489C128.786 321.964 123.891 324.508 120.457 326.059C118.477 326.787 116.627 328.063 114.524 328.466C114.165 328.535 113.085 328.376 113.429 328.496C120.091 330.834 120.499 331.958 119.063 329.45C119.027 329.001 118.944 328.552 118.954 328.101C118.977 327.033 119.36 324.082 119.456 323.173C119.756 320.362 119.925 317.63 119.879 314.805C119.589 312.327 119.279 309.469 117.2 307.76C116.9 307.513 116.559 307.296 116.188 307.182C113.592 306.382 110.948 305.746 108.328 305.028C106.91 305.27 105.78 306.27 104.446 306.711C104.29 306.761 103.801 306.727 103.957 306.777C106.151 307.476 108.386 308.04 110.601 308.672C110.19 306.158 110.79 303.055 110.083 300.61C109.893 299.952 109.523 299.36 109.243 298.735C106.865 295.075 102.828 292.972 99.9738 289.769C99.149 288.843 98.5606 287.731 97.854 286.713L91.6068 285.331C103.33 297.636 88.05 281.404 96.9047 291.323C98.6883 293.321 100.918 294.89 102.499 297.073C102.793 297.63 103.181 298.146 103.383 298.742C104.19 301.125 103.645 304.437 103.538 306.927C105.895 307.856 108.211 308.896 110.608 309.715C110.886 309.81 114.203 307.786 114.79 308.104C112.908 307.391 111.017 306.704 109.146 305.965C108.782 305.822 109.924 306.128 110.266 306.318C110.676 306.546 111.053 306.848 111.365 307.198C112.773 308.784 113.078 310.898 113.377 312.909C113.492 315.711 113.398 318.397 113.028 321.183C112.808 322.839 112.394 324.467 112.197 326.126C112.136 326.638 112.166 327.156 112.15 327.671C112.243 328.075 112.057 328.699 112.428 328.883C114.795 330.046 117.362 330.772 119.903 331.481C120.246 331.577 120.61 331.367 120.95 331.258C122.934 330.628 124.702 329.465 126.611 328.664C130.375 326.907 134.378 324.763 138.598 324.421C139.444 324.353 141.654 325.211 141.14 324.538C140.354 323.509 138.746 323.544 137.549 323.048C138.522 323.368 139.509 323.648 140.467 324.009C145.175 325.782 149.562 328.295 154.121 330.396C158.017 332.111 156.546 331.527 163.503 333.714C164.954 334.171 166.546 334.175 168.022 333.857L162.735 331.475Z" fill="white" fill-opacity="0.4"/>
<path d="M239.814 70.8602C242.355 69.658 244.151 67.6041 245.877 65.4506C248.375 61.9095 250.071 57.8792 251.528 53.8168C252.013 52.4644 252.501 51.1105 252.894 49.7281C253.377 48.0265 253.733 46.2911 254.152 44.5724C256.185 34.5778 257.334 24.404 257.546 14.2066C257.548 12.1399 257.463 10.0743 257.27 8.01681C257.218 7.47092 257.103 6.89431 257.104 6.34153C256.599 9.00039 257.17 6.74508 250.467 4.78989C250.244 4.72463 250.904 4.94976 251.122 5.03046C252.253 5.44793 251.832 5.21595 252.471 5.61611L256.51 6.43401C256.479 6.38541 256.358 6.30637 256.413 6.28959C256.684 6.20697 258.008 6.43018 257.323 6.19035C250.432 3.77988 251.293 1.77886 250.361 4.47025C251.191 7.07364 251.598 9.76959 251.764 12.4992C251.817 13.6788 251.903 14.8574 251.923 16.0381C252.074 25.0547 250.992 34.0943 248.863 42.8477C248.351 44.5217 247.882 46.2094 247.328 47.8697C245.524 53.2701 243.158 58.5479 239.914 63.2368C239.254 64.0794 238.276 65.3725 237.52 66.1653C237.196 66.5047 236.817 66.787 236.482 67.1153C235.902 67.6841 235.392 68.3062 234.699 68.7501L239.814 70.8602Z" fill="white" fill-opacity="0.4"/>
<path d="M248.6 2.6665C251.918 9.57433 253.734 17.0817 255.617 24.5069C256.255 26.8842 256.893 29.2615 257.531 31.6387L259.132 32.1441C258.833 29.8718 258.534 27.5995 258.235 25.3273C257.557 21.6712 256.724 16.8918 255.846 13.2257C255.526 11.8856 255.109 10.5715 254.732 9.24658C254.215 7.42368 253.77 5.54861 252.864 3.88099L248.6 2.6665Z" fill="white" fill-opacity="0.4"/>
<path d="M263.193 55.8122C263.799 50.2189 266.167 45.124 268.473 40.0849C271.342 34.9044 272.086 33.2702 275.69 28.1533C277.371 25.766 279.204 23.4911 280.978 21.1735C282.79 18.8071 284.497 16.3517 286.45 14.1017C288.363 11.8964 290.521 9.91998 292.557 7.82917L290.912 7.18872C288.789 9.2491 286.676 11.321 284.542 13.3699C282.256 15.565 279.827 17.615 277.65 19.9208C275.607 22.0842 273.753 24.4236 271.903 26.757C267.491 32.3203 267.346 32.8586 263.838 38.4489C263.006 39.9497 262.112 41.4175 261.341 42.9514C259.571 46.4713 258.28 50.3168 258.26 54.2999L263.193 55.8122Z" fill="white" fill-opacity="0.4"/>
<path d="M280.361 53.2817C280.378 52.8294 280.411 52.3774 280.411 51.9249C280.414 49.4557 280.268 48.6494 280.374 45.9945C280.508 42.6263 280.784 40.1038 281.438 36.7475C281.834 34.7169 282.359 32.7136 282.819 30.6966C285.534 22.6739 284.675 24.6334 288.281 16.5086C289.403 13.9812 290.361 11.365 291.745 8.97124C293.117 6.59828 294.924 4.50455 296.513 2.27119L292.31 0.772376C291.082 3.14115 289.943 5.55838 288.626 7.87871C287.23 10.3377 285.538 12.6228 284.175 15.1002C281.064 20.7545 280.292 23.2816 278.018 29.1427C277.437 31.1356 276.777 33.1074 276.275 35.1218C275.14 39.676 274.267 45.6014 274.815 50.3316C274.875 50.8482 275.046 51.3459 275.16 51.8532L280.361 53.2817Z" fill="white" fill-opacity="0.4"/>
<path d="M281.449 57.1413C283.902 54.0317 285.909 50.5873 288.339 47.4594C289.329 46.184 290.397 44.9733 291.427 43.7303C295.089 39.345 299.479 35.7267 303.752 32.0016C311.302 25.4191 304.384 31.3024 311.491 25.3095L309.997 24.685C306.595 26.5799 303.359 28.2662 300.168 30.5421C295.471 33.8921 291.36 38.0281 287.316 42.1366C283.576 46.3356 279.919 50.6574 276.873 55.4209L281.449 57.1413Z" fill="white" fill-opacity="0.4"/>
<path d="M298.589 107.718C297.226 104.341 296.072 100.86 295.159 97.3331C294.742 95.7179 294.419 94.0795 294.049 92.4526C293.496 87.6175 292.913 84.461 293.321 79.4977C293.56 76.5945 294.022 73.7068 294.637 70.8623C295.375 67.4436 296.462 64.1129 297.375 60.7382L295.98 60.2624C294.465 63.4506 292.651 66.5096 291.434 69.8271C288.765 77.1026 288.845 83.6292 289.471 91.1758C290.451 96.4237 291.252 102.028 294.137 106.634L298.589 107.718Z" fill="white" fill-opacity="0.4"/>
<path d="M289.648 43.1913C290.531 39.9353 291.264 36.6409 292.44 33.4835C292.953 32.1054 293.538 30.7589 294.087 29.3966C294.749 27.8727 295.411 26.3489 296.073 24.825L293.78 23.9554C292.786 25.361 291.792 26.7666 290.798 28.1721C290.043 29.4725 289.215 30.7289 288.533 32.0734C287.72 33.6759 286.895 36.058 286.296 37.8218C285.986 38.7324 285.565 39.974 285.361 40.9625C285.309 41.2125 285.302 41.4708 285.273 41.7249L289.648 43.1913Z" fill="white" fill-opacity="0.4"/>
</svg>
