<svg width="53" height="55" viewBox="0 0 63 57" fill="none" xmlns="http://www.w3.org/2000/svg">
<g opacity="0.99">
<path d="M48.61 14.3762C56.162 18.5016 61 25.1424 61 32.7894C61 45.2662 47.784 55.3281 31.5 55.3281C15.216 55.3281 2 45.2662 2 32.7894C2 25.3436 6.72 18.8034 13.918 14.6781" stroke="white" stroke-width="2.22023" stroke-linecap="round" stroke-linejoin="round"/>
<path d="M43.89 10.8545C43.418 12.2631 42.71 13.873 41.058 15.0805C34.096 20.0108 25.01 18.3003 20.88 15.0805C19.228 13.7724 18.52 12.1625 18.048 10.8545C17.34 8.54024 17.576 6.62846 17.576 6.62846C17.576 6.62846 20.29 6.32663 23.24 7.23219C24.302 7.53404 25.364 8.03715 26.308 8.64087C27.016 5.32044 29.612 3.0062 30.556 2.30188L30.91 2L31.264 2.30188C32.208 3.0062 34.922 5.32044 35.512 8.64087C36.574 8.03715 37.636 7.53404 38.58 7.23219C41.648 6.32663 44.244 6.62846 44.244 6.62846C44.244 6.62846 44.716 8.64087 43.89 10.8545Z" stroke="white" stroke-width="2.22277" stroke-linejoin="round"/>
</g>
</svg>
