<svg width="262" height="385" viewBox="0 0 262 385" fill="none" xmlns="http://www.w3.org/2000/svg">
<path d="M147.614 248.299C150.407 251.105 154.073 252.885 157.906 253.718C158.101 252.173 166.72 256.395 169.44 253.678C172.887 250.235 165.516 255.038 171.58 251.468L165.116 250.276C164.917 250.635 164.878 251.155 164.519 251.353C163.761 251.771 162.844 251.791 162.002 251.992C158.158 252.909 158.709 252.241 166.051 253.393C162.051 252.79 158.409 251.112 155.305 248.498L147.614 248.299Z" fill="white" fill-opacity="0.4"/>
<path d="M161.852 253.435C162.863 251.274 163.054 248.952 163.205 246.612C163.26 244.243 164.089 242.011 164.53 239.707C165.041 237.04 165.07 236.082 165.355 233.276C165.839 224.94 165.803 216.585 166.305 208.249C166.731 201.182 167.501 192.976 168.113 185.979C169.519 170.819 172.462 155.871 174.893 140.86C175.833 135.05 176.44 129.181 177.597 123.41C178.739 117.716 180.387 112.135 181.783 106.497L178.715 106.116C172.964 128.821 176.123 117.461 169.215 140.188C165.403 154.96 163.629 170.191 161.341 185.239C160.231 195.505 159.016 205.77 158.282 216.072C157.985 220.238 157.905 223.78 157.65 227.909C157.557 229.404 157.428 230.896 157.317 232.39C157.013 235.066 156.939 236.169 156.471 238.728C156.042 241.078 155.43 243.406 155.449 245.817C155.456 248.062 155.633 250.337 155.067 252.536L161.852 253.435Z" fill="white" fill-opacity="0.4"/>
<path d="M173.234 139.584C176.048 132.843 177.628 125.717 179.118 118.594C182.817 99.1287 188.137 80.0115 193.974 61.0921C197.533 46.3384 195.511 53.4717 199.965 39.6716L197.903 39.4005C193.292 53.2839 195.888 46.2138 190.032 60.5802C184.119 79.5235 178.659 98.6403 174.375 118.023C172.855 125.088 171.271 132.134 169.037 139.014L173.234 139.584Z" fill="white" fill-opacity="0.4"/>
<path d="M170.796 158.713C166.859 154.906 164.398 150.097 162.354 145.093C159.698 136.939 158.789 128.246 159.295 119.693C159.418 117.624 159.707 115.567 159.913 113.504C161.116 107.005 162.496 100.407 165.093 94.2905C167.472 88.6857 170.558 83.5827 173.512 78.2743C175.161 75.31 176.798 72.3388 178.442 69.3711C185.426 56.6552 192.194 43.8955 196.33 29.922C199.793 16.317 197.915 22.9104 201.913 10.1276L199.425 9.80216C198.405 12.9118 197.584 16.0941 196.364 19.1312C194.974 22.5936 193.228 25.9027 191.61 29.2649C185.273 42.4312 178.861 55.5762 171.785 68.3649C170.716 70.2601 163.273 83.4251 162.121 85.5988C160.764 88.1605 159.376 90.7138 158.231 93.3771C155.587 99.5275 154.246 106.212 152.968 112.741C152.747 114.822 152.445 116.896 152.305 118.983C151.729 127.611 152.582 136.395 155.15 144.658C157.257 149.825 159.757 154.86 164.013 158.62L170.796 158.713Z" fill="white" fill-opacity="0.4"/>
<path d="M175.181 154.829C183.13 153.042 186.911 145.966 190.386 139.325C191.117 137.458 191.94 135.624 192.578 133.724C197.56 118.899 198.939 102.149 200.653 86.6939C201.04 82.3494 201.428 78.0049 201.816 73.6603C202.003 68.948 201.963 64.2211 202.378 59.5233C202.782 54.9459 203.639 50.4198 204.27 45.868L200.641 45.4708C200.355 50.0596 200.334 54.6725 199.784 59.2372C198.699 68.2467 195.966 77.0133 195.487 86.1197C193.307 103.797 191.384 121.896 184.278 138.416C180.811 144.864 177.04 151.691 169.272 153.394L175.181 154.829Z" fill="white" fill-opacity="0.4"/>
<path d="M194.202 215.918C197.274 214.708 199.88 212.578 201.019 209.399C201.292 208.638 201.421 207.832 201.622 207.048C201.223 204.063 201.484 205.48 200.873 202.79L194.357 202.222C194.374 204.702 194.541 203.415 193.726 206.062C193.538 206.792 193.428 207.547 193.161 208.252C192.032 211.232 189.391 213.032 186.589 214.265L194.202 215.918Z" fill="white" fill-opacity="0.4"/>
<path d="M196.749 210.304C193.189 205.994 189.56 201.746 185.716 197.684C174.97 187.252 164.112 176.934 152.995 166.899C149.927 164.322 146.885 161.713 143.791 159.167C137.126 153.683 130.338 148.348 123.653 142.888C112.987 134.177 102.391 125.379 91.7425 116.646C88.8571 114.014 85.9716 111.381 83.0862 108.748L81.5679 108.724C84.4163 111.356 87.2646 113.989 90.113 116.621C98.1694 124.674 99.7236 126.425 108.262 134.145C117.828 142.793 127.885 150.818 137.764 159.093C140.79 161.627 143.755 164.231 146.751 166.8C157.622 176.802 168.044 187.265 178.674 197.52C182.568 201.628 186.151 206.005 190.063 210.094L196.749 210.304Z" fill="white" fill-opacity="0.4"/>
<path d="M160.441 177.971C161.083 174.013 160.966 169.669 160.161 165.727C159.891 164.407 159.459 163.126 159.107 161.825C157.073 155.713 153.917 150.091 149.907 145.058C147.607 142.172 145.51 140.109 142.952 137.435C134.695 128.428 124.642 123.209 113.645 118.354C105.944 114.98 97.9897 111.92 91.0639 107.05C85.5547 103.176 84.8149 101.969 79.9684 97.0692C74.1272 89.6161 74.7097 90.8127 69.7204 82.5769C67.7488 79.3223 65.6645 76.1208 63.9889 72.7043C62.278 69.2158 61.0532 65.5093 59.5854 61.9118L56.811 61.7263C57.698 65.1175 61.1077 78.7934 62.652 82.2725C64.6725 86.8227 69.6489 92.9619 72.6268 96.907C77.3817 101.916 78.0473 103.103 83.5211 107.065C90.365 112.018 98.2762 115.137 105.965 118.483C116.971 123.249 127.085 128.343 135.395 137.269C137.733 139.651 140.353 142.211 142.485 144.797C146.553 149.732 149.815 155.28 151.947 161.316C152.339 162.589 152.805 163.84 153.124 165.133C154.095 169.07 154.037 173.206 154.171 177.228L160.441 177.971Z" fill="white" fill-opacity="0.4"/>
<path d="M143.407 167.23C143.697 167.41 137.858 166.722 139.231 166.967C140.361 167.169 143.648 167.886 142.657 167.308C141.438 166.597 139.87 166.856 138.495 166.538C133.929 165.483 132.722 164.918 128.212 163.343C119.818 160.193 112.297 155.499 106.155 148.913C101.453 143.871 97.0264 137.552 92.9558 132.076C83.0675 118.121 87.9628 125.21 78.2779 110.803L75.8281 110.692C83.3943 125.045 79.4916 117.988 87.5267 131.87C92.1471 138.874 94.2422 142.646 99.7116 148.795C105.681 155.506 113.053 160.31 121.408 163.505C125.694 165.065 127.157 165.733 131.502 166.811C137.534 168.307 143.791 168.712 149.981 169.003L143.407 167.23Z" fill="white" fill-opacity="0.4"/>
<path d="M174.619 356.056C172.973 356.821 171.488 357.873 169.888 358.721C169.182 359.095 166.877 360.177 166.198 360.499C162.177 362.554 157.911 364.046 153.454 364.802C152.471 364.969 151.478 365.069 150.49 365.203C149.459 365.255 148.43 365.354 147.398 365.358C146.355 365.362 143.239 365.094 144.273 365.226C147.471 365.636 150.677 366.036 153.897 366.191C155.034 366.246 151.653 365.799 150.548 365.528C147.567 364.797 146.797 364.387 143.928 363.269C139.12 361.084 134.885 357.877 131.376 353.935C128.813 351.057 128.274 349.977 126.122 346.72C123.629 342.2 121.308 337.355 119.926 332.363C119.144 329.539 117.857 321.844 117.61 319.172C117.384 316.726 117.423 314.262 117.329 311.807C117.232 301.649 118.911 291.57 122.089 281.93C123.725 276.966 124.959 274.421 127.035 269.638C131.388 261.068 137.283 253.311 144.548 246.997C145.695 246 146.915 245.092 148.098 244.139C153.742 239.895 160.187 236.68 167.059 234.975C168.322 234.661 169.61 234.46 170.885 234.202C174.27 233.818 175.079 233.619 178.486 233.656C179.72 233.669 183.405 234.014 182.182 233.85C161.544 231.085 173.307 232.857 175.994 233.545C177.053 233.817 178.085 234.187 179.131 234.508C184.488 236.444 189.58 239.151 194.035 242.72C194.924 243.432 195.757 244.211 196.618 244.956C197.468 245.808 198.363 246.617 199.168 247.512C202.803 251.552 205.751 256.682 207.413 261.843C207.93 263.448 208.254 265.108 208.674 266.74C209.243 270.75 209.743 273.382 209.782 277.493C209.837 283.423 208.884 289.412 207.634 295.191C207.202 297.189 206.666 299.163 206.183 301.149C204.497 307.103 202.468 312.945 199.937 318.594C199.118 320.42 198.229 322.214 197.347 324.011C196.418 325.905 195.529 327.821 194.505 329.666C193.485 331.503 192.314 333.254 191.219 335.048C187.381 340.544 188.411 339.255 184.374 344.333C183.278 345.711 182.204 347.108 181.05 348.437C179.977 349.672 178.824 350.835 177.697 352.021C176.731 353.038 175.64 353.944 174.771 355.046C174.145 355.839 173.753 356.792 173.243 357.665C171.47 360.492 172.731 359.389 169.209 360.666L177.789 362.402C179.604 359.966 178.32 361.232 182.235 359.321C183.508 358.567 184.885 357.966 186.053 357.058C187.473 355.956 191.252 351.562 192.294 350.343C193.466 348.972 194.68 347.634 195.761 346.191C197.321 344.108 200.593 338.798 201.913 336.697C202.781 335.217 207.601 327.041 208.339 325.583C209.241 323.801 209.972 321.938 210.75 320.098C213.174 314.361 215.449 308.538 217.017 302.5C217.551 300.496 218.162 298.511 218.621 296.489C219.067 294.524 219.402 292.536 219.729 290.548C220.43 286.274 220.85 282.907 221.053 278.583C221.143 276.672 221.231 274.756 221.133 272.846C221.044 271.1 220.707 269.376 220.494 267.641C219.525 263.08 219.514 262.357 218.043 258C217.577 256.619 217.128 255.222 216.486 253.913C215.936 252.792 215.199 251.771 214.484 250.748C212.656 248.127 211.922 247.477 209.784 245.137C208.903 244.361 208.048 243.554 207.141 242.807C202.711 239.159 197.735 236.211 192.374 234.159C191.328 233.793 190.301 233.368 189.235 233.061C188.145 232.747 187.042 232.444 185.917 232.299C181.401 231.715 172.311 230.33 166.122 230.478C162.654 230.56 161.979 230.762 158.528 231.255C155.101 232.1 154.386 232.176 151.022 233.424C145.563 235.45 140.799 238.389 136.184 241.913C133.363 244.554 132.269 245.446 129.686 248.431C124.534 254.386 120.558 261.235 116.988 268.222C116.094 270.273 115.064 272.269 114.307 274.375C113.094 277.75 111.609 284.33 110.898 287.741C110.374 290.251 109.853 292.765 109.454 295.298C108.51 301.291 108.342 304.849 107.859 310.888C107.879 313.597 107.891 322.634 108.13 325.419C108.286 327.226 109.637 335.371 110.181 337.264C110.928 339.866 112.917 343.756 114.087 346.192C114.848 347.519 115.535 348.892 116.372 350.173C118.625 353.62 121.537 356.883 124.737 359.481C127.058 361.366 128.475 362.043 131.041 363.516C133.863 364.731 134.613 365.163 137.557 366.003C138.637 366.311 139.722 366.635 140.836 366.783C148.498 367.8 155.609 369.159 163.159 368.321C164.164 368.159 165.176 368.035 166.175 367.833C170.498 366.96 174.603 365.252 178.425 363.076C180.04 362.132 180.131 362.11 181.653 361.106C182.365 360.636 183.457 359.92 184.084 359.295C184.444 358.936 184.653 358.446 185.014 358.086L174.619 356.056Z" fill="white" fill-opacity="0.4"/>
<path d="M175.5 230.586C174.218 231.34 172.678 231.352 171.24 231.211C166.945 230.342 171.83 231.362 180.099 232.025C180.346 232.045 179.622 231.873 179.403 231.754C178.359 231.189 177.768 230.167 177.119 229.222C175.208 225.89 174.58 221.985 174.656 218.174C174.675 217.225 174.795 216.28 174.864 215.333C175.559 211.128 177.25 207.203 179.812 203.796C181.525 201.518 182.306 200.916 184.342 198.941C186.48 197.273 187.502 196.299 189.968 195.092C191.999 194.097 195.147 193.08 197.337 192.632C200.858 191.911 202.133 192.041 205.711 191.956C207.122 192.053 211.358 192.303 209.944 192.246C207.977 192.167 205.46 190.516 204.049 191.889C202.823 193.081 207.379 192.673 209.023 193.143C212.358 194.096 215.945 195.344 219.135 196.71C220.732 197.394 222.277 198.192 223.849 198.933C231 202.677 237.792 207.05 243.99 212.23C248.209 215.756 249.397 217.074 253.288 220.897C260.844 228.614 267.373 237.239 273.523 246.093C276.875 251.143 279.629 256.599 281.364 262.421C282.52 266.301 282.522 267.135 283.154 271.093C283.726 276.318 283.575 281.668 281.874 286.691C280.672 290.239 280.198 290.615 278.246 293.834C275.025 298.344 271.031 302.28 266.35 305.272C262.839 307.517 261.494 307.939 257.68 309.631C251.903 311.908 245.794 313.313 239.568 313.405C238.106 313.427 233.746 313 235.186 313.251C237.857 313.718 240.582 313.786 243.28 314.054C239.512 313.486 235.877 312.354 232.42 310.76C231.413 310.296 230.457 309.727 229.461 309.239C222.627 305.889 228.997 309.228 222.385 305.681C219.208 303.065 220.586 304.515 218.207 301.377L212.724 301.046C212.948 304.183 212.637 302.682 213.616 305.558C213.916 306.215 214.107 306.934 214.519 307.527C215.942 309.583 217.079 309.903 219.411 310.997C223.011 312.684 226.773 313.979 230.703 314.637C236.061 315.219 245.036 316.755 251.636 316.463C257.773 316.191 263.749 314.537 269.39 312.171C273.888 310.091 278.452 308.024 282.398 304.962C285.662 302.429 288.198 299.099 290.526 295.733C291.908 293.433 293.651 290.814 294.527 288.243C294.935 287.048 295.113 285.784 295.296 284.535C295.899 280.404 295.807 276.196 295.154 272.08C294.547 268.777 294.207 266.434 293.242 263.2C291.449 257.189 288.517 251.637 284.918 246.521C283.943 245.166 282.999 243.787 281.992 242.455C280.339 240.27 277.088 236.323 275.347 234.262C273.503 232.08 269.554 227.523 267.627 225.475C266.219 223.978 264.739 222.55 263.296 221.087C259.63 217.574 257.686 215.597 253.786 212.318C252.138 210.932 250.434 209.613 248.731 208.296C246.109 206.27 241.86 203.075 238.979 201.312C237.473 200.39 235.876 199.628 234.325 198.786C232.706 198.023 231.11 197.212 229.47 196.498C226.484 195.199 222.641 193.775 219.526 192.806C217.931 192.31 216.346 191.738 214.699 191.46C202.375 189.381 203.236 189.546 195.071 189.216C191.424 189.43 190.359 189.333 186.782 190.183C184.433 190.742 181.465 191.775 179.329 192.939C177.241 194.077 175.639 195.553 173.825 197.056C171.969 198.992 170.923 199.95 169.339 202.138C166.734 205.735 165.172 209.844 164.338 214.188C164.226 215.178 164.044 216.162 164.003 217.157C163.939 218.751 164.19 220.846 164.429 222.423C164.605 223.586 165.023 225.812 165.367 226.984C165.539 227.572 165.787 228.135 165.998 228.71C166.544 229.802 166.69 230.309 167.515 231.19C167.733 231.424 168.837 232.318 169.226 232.379C179.495 233.967 176.84 234.265 181.139 233.7C181.467 233.529 182.147 233.266 182.14 232.786C182.137 232.516 181.67 231.736 181.625 231.416L175.5 230.586Z" fill="white" fill-opacity="0.4"/>
</svg>
