<svg width="228" height="174" viewBox="0 0 228 174" fill="none" xmlns="http://www.w3.org/2000/svg">
<g clip-path="url(#clip0_239_3)">
<path d="M24.4385 59.9458C92.2329 -6.96051 183.873 33.8304 202.116 62.2147C216.036 79.7951 230.718 62.2575 222.753 50.2653C155.232 -18.5307 59.9073 -7.08754 5.98007 47.8218C-2.34975 57.8336 5.80041 76.5651 24.4385 59.9458Z" stroke="white" stroke-opacity="0.4" stroke-width="5.29134" stroke-linecap="round" stroke-linejoin="round"/>
<path d="M48.8724 93.3169C89.9173 55.357 140.705 57.3367 177.471 94.0574C191.618 105.618 200.316 91.396 195.737 81.7158C147.156 28.6892 72.2176 38.5854 31.8411 78.7538C26.3155 89.1277 35.2162 102.798 48.8724 93.3169Z" stroke="white" stroke-opacity="0.4" stroke-width="5.29134" stroke-linecap="round" stroke-linejoin="round"/>
<path d="M61.9545 110.842C95.7435 77.4435 130.272 80.2511 165.377 111.336C172.922 121.407 161.329 133.491 147.111 124.664C125.687 103.549 103.043 102.261 78.9858 123.924C65.3507 134.546 56.1131 118.96 61.9545 110.842Z" stroke="white" stroke-opacity="0.4" stroke-width="5.29134" stroke-linecap="round" stroke-linejoin="round"/>
</g>
<g opacity="0.99">
<path d="M130.297 130.992C137.474 134.99 142.072 141.424 142.072 148.834C142.072 160.924 129.512 170.673 114.036 170.673C98.5602 170.673 86 160.924 86 148.834C86 141.619 90.4858 135.282 97.3266 131.285" stroke="white" stroke-opacity="0.4" stroke-width="4.7698" stroke-linecap="round" stroke-linejoin="round"/>
<path d="M125.811 127.58C125.363 128.945 124.69 130.505 123.12 131.675C116.503 136.452 107.868 134.795 103.943 131.675C102.373 130.407 101.7 128.847 101.252 127.58C100.579 125.337 100.803 123.485 100.803 123.485C100.803 123.485 103.382 123.192 106.186 124.07C107.195 124.362 108.205 124.85 109.102 125.435C109.775 122.217 112.242 119.975 113.139 119.293L113.475 119L113.812 119.293C114.709 119.975 117.288 122.217 117.849 125.435C118.858 124.85 119.868 124.362 120.765 124.07C123.681 123.192 126.148 123.485 126.148 123.485C126.148 123.485 126.596 125.435 125.811 127.58Z" stroke="white" stroke-opacity="0.4" stroke-width="4.77525" stroke-linejoin="round"/>
</g>
<defs>
<clipPath id="clip0_239_3">
<rect width="227.66" height="130.338" fill="white"/>
</clipPath>
</defs>
</svg>
