<svg width="1728" height="716" viewBox="0 0 1728 716" fill="none" xmlns="http://www.w3.org/2000/svg">
<path d="M1704.23 0C1687.79 27.571 1696.6 13.7445 1677.7 41.3753C1672.05 48.4822 1666.67 55.8993 1660.74 62.6953C1627.86 100.387 1588.65 129.739 1547.77 154.108C1538.48 159.17 1529.31 164.569 1519.88 169.295C1480.5 189.047 1439.38 203.448 1397.54 214.038C1391.61 214.033 1384.87 214.066 1379.76 214.066C1166.8 214.066 1127.49 141.674 888.19 142.216C859.448 141.684 832.829 142.434 807.856 144.127C796.092 142.568 783.601 141.207 767.81 140.251C745.986 138.929 724.101 138.921 702.255 139.523C637.247 141.315 633.542 144.007 570.591 154.246C531.697 162.31 489.042 170.082 450.726 182.072C435.9 186.712 421.445 192.843 406.982 198.842C395.601 203.563 384.356 208.68 373.17 213.975C297.135 213.597 254.891 204.877 219.26 189.916C194.856 170.258 169.925 151.524 145.449 131.989C105.514 100.114 145.972 131.558 102.711 98.266C84.2341 83.8694 65.2358 70.4651 46.0287 57.4549L45.1236 57.0453C61.4441 69.5554 78.029 81.5767 94.1901 94.3714C107.436 105.111 120.588 116.013 133.869 126.693C157.812 145.946 182.294 164.289 205.955 184.019C157.029 160.569 114.018 125.032 -2 83.069V716H1736V214.065V83.069C1672.99 201.26 1513.81 212.913 1418.35 213.947C1444.85 206.975 1471.08 198.669 1496.67 188.004C1522.34 177.303 1530.11 172.507 1554.76 159.504C1580.36 144.652 1605.62 128.651 1628.78 108.984C1635.98 102.876 1643.09 96.5904 1649.72 89.6662C1664.12 74.6232 1671.7 62.9049 1684 45.8159C1701.17 16.853 1693.38 31.409 1707.56 2.25668L1704.23 0ZM722.574 142.67C738.922 142.408 755.282 142.672 771.633 143.489C780.944 143.955 788.315 144.566 795.714 145.191C637.864 158.145 545.805 208.575 400.622 213.492C437.712 196.578 475.83 182.768 514.783 172.608C535.14 167.298 555.748 163.437 576.233 158.849C624.579 149.019 673.53 143.457 722.574 142.67Z" fill="url(#paint0_linear_47_153)"/>
<defs>
<linearGradient id="paint0_linear_47_153" x1="867" y1="0" x2="867" y2="716" gradientUnits="userSpaceOnUse">
<stop stop-color="#F1792F"/>
<stop offset="1" stop-color="#EC273A"/>
</linearGradient>
</defs>
</svg>
