<svg width="1728" height="716" viewBox="0 0 1728 716" fill="none" xmlns="http://www.w3.org/2000/svg">
<path d="M1704.23 0C1687.79 27.571 1696.6 13.7445 1677.7 41.3753C1672.05 48.4822 1666.67 55.8993 1660.74 62.6953C1627.86 100.387 1588.65 129.739 1547.77 154.108C1538.48 159.17 1529.31 164.569 1519.88 169.295C1480.5 189.047 1439.38 203.448 1397.54 214.038C1391.61 214.033 1384.87 214.066 1379.76 214.066C1166.8 214.066 1127.49 141.674 888.19 142.216C859.448 141.684 832.829 142.434 807.856 144.127C796.092 142.568 783.601 141.207 767.81 140.251C745.986 138.929 724.101 138.921 702.255 139.523C637.247 141.315 633.542 144.007 570.591 154.246C531.697 162.31 489.042 170.082 450.726 182.072C435.9 186.712 421.445 192.843 406.982 198.842C395.601 203.563 384.356 208.68 373.17 213.975C297.135 213.597 254.891 204.877 219.26 189.916C194.856 170.258 169.925 151.524 145.449 131.989C105.514 100.114 145.972 131.558 102.711 98.266C84.2341 83.8694 65.2358 70.4651 46.0287 57.4549L45.1236 57.0453C61.4441 69.5554 78.029 81.5767 94.1901 94.3714C107.436 105.111 120.588 116.013 133.869 126.693C157.812 145.946 182.294 164.289 205.955 184.019C157.029 160.569 114.018 125.032 -2 83.069V716H1736V214.065V83.069C1672.99 201.26 1513.81 212.913 1418.35 213.947C1444.85 206.975 1471.08 198.669 1496.67 188.004C1522.34 177.303 1530.11 172.507 1554.76 159.504C1580.36 144.652 1605.62 128.651 1628.78 108.984C1635.98 102.876 1643.09 96.5904 1649.72 89.6662C1664.12 74.6232 1671.7 62.9049 1684 45.8159C1701.17 16.853 1693.38 31.409 1707.56 2.25668L1704.23 0ZM722.574 142.67C738.922 142.408 755.282 142.672 771.633 143.489C780.944 143.955 788.315 144.566 795.714 145.191C637.864 158.145 545.805 208.575 400.622 213.492C437.712 196.578 475.83 182.768 514.783 172.608C535.14 167.298 555.748 163.437 576.233 158.849C624.579 149.019 673.53 143.457 722.574 142.67Z" fill="url(#paint0_linear_47_152)"/>
<path d="M505.922 231.555C559.442 204.71 776.081 152.882 861.001 155.163C1010.77 153.188 1121.65 201.927 1247.19 231.555C1157.31 292.961 1143.74 374.078 868.991 387.726C660.434 360.781 563.139 301.917 505.922 231.555Z" fill="url(#paint1_linear_47_152)"/>
<path d="M1531.29 235.33C1619.23 214.52 1693.05 177.524 1734.91 112.485L1734.91 262.078L1531.29 235.33Z" fill="url(#paint2_linear_47_152)"/>
<path d="M201.437 202.883C135.17 166.38 70.8943 124.727 -2 104.41V205.569L201.437 202.883Z" fill="url(#paint3_linear_47_152)"/>
<path d="M869.9 171.444C877.082 169.638 884.427 169.221 891.733 168.566C900.86 167.173 896.294 167.857 905.431 166.516L903.866 165.191C891.914 164.046 897.81 164.465 886.182 163.909C883.868 163.964 876.652 164.117 874.027 164.228C870.433 164.379 866.554 164.379 863.213 166.133L869.9 171.444Z" fill="#EFEAE6" fill-opacity="0.5"/>
<path d="M932.932 167.941C933.432 168.028 933.932 168.116 934.432 168.203C934.799 168.132 935.161 167.954 935.531 167.988C936.178 168.048 936.797 168.317 937.43 168.481L931.911 163.53C929.483 162.602 927.176 161.243 924.649 160.74L932.932 167.941Z" fill="white" fill-opacity="0.46"/>
<path d="M1726.65 132.241C1724.17 135.547 1722.51 139.527 1720.15 142.953C1717.9 146.232 1716.69 147.424 1714.08 150.418C1709.33 155.906 1711.73 153.148 1706.87 158.693L1710 160.996C1716.28 156.499 1713.23 158.812 1719.14 154.071C1720.35 152.863 1721.62 151.717 1722.78 150.448C1725.01 148.026 1726.34 146.175 1728.19 143.408C1729.73 141.081 1731.26 138.701 1731.94 135.819L1726.65 132.241Z" fill="white" fill-opacity="0.67"/>
<path d="M1694.47 166.929C1693.1 168.724 1693.14 168.266 1693.02 170.757L1698.14 174.424C1700.46 173.789 1700.32 174.047 1701.65 171.966L1694.47 166.929Z" fill="white" fill-opacity="0.62"/>
<path d="M15.5951 128.16C22.6213 128.474 29.3629 131.459 35.9029 134.196C43.5356 137.77 51.0449 141.688 58.5837 145.519L56.6558 143.725C47.8831 138.37 39.1138 132.986 29.8974 128.712C24.5601 126.276 22.7853 125.314 17.5612 123.444C14.3441 122.292 10.7104 120.889 7.29736 121.403L15.5951 128.16Z" fill="white" fill-opacity="0.45"/>
<defs>
<linearGradient id="paint0_linear_47_152" x1="867" y1="0" x2="867" y2="716" gradientUnits="userSpaceOnUse">
<stop stop-color="#F1792F"/>
<stop offset="1" stop-color="#EC273A"/>
</linearGradient>
<linearGradient id="paint1_linear_47_152" x1="875.905" y1="106.365" x2="875.905" y2="271.405" gradientUnits="userSpaceOnUse">
<stop stop-color="#F3A153"/>
<stop offset="1" stop-color="#EF5235"/>
</linearGradient>
<linearGradient id="paint2_linear_47_152" x1="1633.1" y1="112.485" x2="1633.61" y2="234.573" gradientUnits="userSpaceOnUse">
<stop stop-color="#F3A052"/>
<stop offset="1" stop-color="#F05F33"/>
</linearGradient>
<linearGradient id="paint3_linear_47_152" x1="99.7184" y1="104.41" x2="86.3409" y2="189.165" gradientUnits="userSpaceOnUse">
<stop stop-color="#F3A254"/>
<stop offset="1" stop-color="#F06333"/>
</linearGradient>
</defs>
</svg>