<?xml version="1.0" encoding="UTF-8" standalone="no"?>
<svg
   width="1385"
   height="221"
   viewBox="0 0 1385 221"
   fill="none"
   version="1.1"
   id="svg17"
   sodipodi:docname="logo.svg"
   inkscape:version="1.3.2 (091e20e, 2023-11-25, custom)"
   xmlns:inkscape="http://www.inkscape.org/namespaces/inkscape"
   xmlns:sodipodi="http://sodipodi.sourceforge.net/DTD/sodipodi-0.dtd"
   xmlns="http://www.w3.org/2000/svg"
   xmlns:svg="http://www.w3.org/2000/svg">
  <defs
     id="defs17" />
  <sodipodi:namedview
     id="namedview17"
     pagecolor="#ffffff"
     bordercolor="#000000"
     borderopacity="0.25"
     inkscape:showpageshadow="2"
     inkscape:pageopacity="0.0"
     inkscape:pagecheckerboard="0"
     inkscape:deskcolor="#d1d1d1"
     inkscape:zoom="0.27467397"
     inkscape:cx="382.27139"
     inkscape:cy="708.11224"
     inkscape:window-width="1920"
     inkscape:window-height="1111"
     inkscape:window-x="-9"
     inkscape:window-y="-9"
     inkscape:window-maximized="1"
     inkscape:current-layer="svg17" />
  <g
     id="g26-4-2-1"
     style="font-style:normal;font-weight:normal;font-size:40px;line-height:1.25;font-family:sans-serif;letter-spacing:0px;word-spacing:0px;display:inline;opacity:0.99;fill:#000000;fill-opacity:1;stroke:#000000;stroke-width:1.27604;stroke-miterlimit:4;stroke-dasharray:none;stroke-opacity:1"
     transform="matrix(6.4049916,0,0,6.3488214,115.06191,-883.34876)">
    <path
       inkscape:connector-curvature="0"
       id="path6-0-9-1-0-1"
       d="m 119.93524,150.12317 c 3.29107,1.89316 5.3994,4.94069 5.3994,8.44997 0,5.72567 -5.75936,10.34315 -12.85571,10.34315 -7.09636,0 -12.855717,-4.61748 -12.855717,-10.34315 0,-3.41693 2.056917,-6.41829 5.193707,-8.31145"
       style="opacity:1;fill:none;stroke:#ffffff;stroke-width:1.27604;stroke-linecap:round;stroke-linejoin:round;stroke-miterlimit:4;stroke-dasharray:none;stroke-opacity:1" />
    <path
       id="path8-2-0-5-0-0"
       d="m 117.87833,148.50705 c -0.20569,0.64645 -0.51423,1.38524 -1.23415,1.93934 -3.03395,2.26256 -6.99351,1.47759 -8.79331,0 -0.71992,-0.60027 -1.02846,-1.33907 -1.23415,-1.93934 -0.30854,-1.06202 -0.20569,-1.93934 -0.20569,-1.93934 0,0 1.18273,-0.13852 2.4683,0.27705 0.4628,0.13852 0.92561,0.3694 1.33699,0.64645 0.30854,-1.52377 1.43984,-2.58579 1.85122,-2.90901 l 0.15427,-0.13853 0.15427,0.13853 c 0.41138,0.32322 1.59411,1.38524 1.85122,2.90901 0.46281,-0.27705 0.92562,-0.50793 1.337,-0.64645 1.33699,-0.41557 2.4683,-0.27705 2.4683,-0.27705 0,0 0.20569,0.9235 -0.15427,1.93934 z"
       stroke-miterlimit="10"
       inkscape:connector-curvature="0"
       style="opacity:1;fill:none;fill-opacity:1;stroke:#ffffff;stroke-width:1.2775;stroke-linejoin:round;stroke-miterlimit:4;stroke-dasharray:none;stroke-opacity:1" />
  </g>
  <path
     d="M48.0539 190.467C47.3575 190.467 46.8352 190.385 46.487 190.219L44.6589 189.971H44.1365C41.3508 186.003 37.8686 179.555 33.69 170.627L29.2502 161.203L16.1921 135.41L13.5805 129.954C12.0135 127.474 10.9689 125.49 10.4465 124.002C9.92422 122.514 8.009 119.703 4.70094 115.57C1.56698 111.602 0 108.378 0 105.898C0 104.079 2.00229 98.4577 6.00678 89.0335L19.5872 59.5209C24.2881 49.7661 27.248 43.07 28.4667 39.4326C28.4667 38.9366 28.9891 37.3658 30.0338 34.7204C31.4266 29.099 33.0806 24.7176 34.9958 21.5762C36.0405 19.5922 37.1722 18.5174 38.391 18.3521L41.786 20.8322C41.0896 25.7923 39.0003 32.323 35.5181 40.4244C32.2101 48.3606 28.3797 56.4622 24.027 64.729C19.8484 72.6651 16.2791 80.436 13.3193 88.0415C10.5336 95.4816 9.14071 101.351 9.14071 105.65C9.14071 106.972 15.0604 119.207 26.8998 142.354C38.9133 165.501 46.3999 179.39 49.3598 184.019L51.7103 185.755C51.362 186.747 50.8397 187.822 50.1432 188.979C49.4468 189.971 48.7504 190.467 48.0539 190.467Z"
     fill="white"
     id="path1" />
  <path
     d="M100.495 195.924C97.3606 195.924 94.9232 195.758 93.1821 195.428C91.6151 195.262 89.874 194.766 87.9588 193.94C85.8695 192.948 84.3025 191.542 83.2579 189.724C83.2579 187.74 84.2155 186.748 86.1307 186.748C88.0459 186.748 90.4833 187.326 93.4432 188.484C96.2289 189.806 98.5794 190.468 100.495 190.468C104.325 190.468 107.807 188.98 110.941 186.004C114.249 183.028 116.774 179.142 118.515 174.347C121.997 164.923 123.738 156.574 123.738 149.299C123.738 141.197 122.519 133.013 120.082 124.746C117.644 116.48 114.423 108.709 110.419 101.434C109.548 99.6154 108.068 96.8873 105.979 93.2499C101.626 84.9831 98.3182 78.535 96.0548 73.9056C93.7914 69.2762 91.7892 64.1507 90.0481 58.5292C87.6106 51.0891 86.3918 43.0703 86.3918 34.4728C86.3918 29.0167 87.2624 23.8086 89.0035 18.8485C90.9187 13.7231 93.8785 9.34171 97.883 5.70431C102.236 1.90157 107.111 0.00012207 112.508 0.00012207C114.597 0.00012207 117.122 0.826766 120.082 2.48013C123.042 3.96816 124.522 5.45619 124.522 6.94422C124.522 8.26691 123.999 8.92831 122.955 8.92831C121.91 8.92831 120.517 8.51489 118.776 7.68821C117.209 6.86152 115.729 6.4483 114.336 6.4483C110.332 6.4483 106.763 7.85361 103.629 10.6643C100.669 13.475 98.4924 16.9471 97.0995 21.0805C95.8807 24.5525 95.2714 28.3553 95.2714 32.4887C95.2714 38.9368 96.1419 45.633 97.883 52.5772C99.624 59.356 101.975 65.7213 104.934 71.6735L114.075 89.7779L116.687 94.986C120.343 102.095 123.129 107.965 125.044 112.594C127.133 117.224 128.874 122.432 130.267 128.218C132.182 135.989 133.14 143.429 133.14 150.539C133.14 160.128 130.528 169.883 125.305 179.803C122.693 184.598 119.211 188.484 114.859 191.46C110.506 194.436 105.718 195.924 100.495 195.924Z"
     fill="white"
     id="path2" />
  <path
     d="M219.777 192.699C217.165 192.699 215.511 192.369 214.815 191.707C214.118 191.211 213.596 189.723 213.248 187.243C211.681 175.174 210.723 167.651 210.375 164.675L209.069 154.755C205.239 153.928 200.886 153.515 196.011 153.515L186.609 153.019C182.43 152.523 179.383 152.275 177.468 152.275C176.424 152.275 175.814 152.688 175.64 153.515C175.64 154.011 175.553 154.259 175.379 154.259L174.857 159.219C174.683 162.195 173.725 168.147 171.984 177.075C171.113 181.539 170.069 185.011 168.85 187.491C167.457 190.302 166.151 191.707 164.932 191.707C163.888 191.707 162.756 191.294 161.537 190.467C160.319 189.475 159.709 188.483 159.709 187.491L159.97 186.747L160.232 186.003C163.366 174.264 165.977 162.608 168.066 151.035L171.2 135.658L174.334 116.81C174.334 116.81 175.292 111.354 177.207 100.442C178.078 95.9777 179.645 88.7855 181.908 78.8653C184.346 67.6224 185.825 59.9342 186.348 55.8008C186.522 55.3048 186.87 52.246 187.392 46.6246C188.089 40.3418 188.698 35.7125 189.221 32.7364C189.743 28.4377 190.265 25.9575 190.788 25.2962H192.616C193.138 25.4615 193.747 25.5442 194.444 25.5442C196.533 25.5442 198.1 25.0483 199.145 24.0563C200.364 24.0563 201.408 24.4695 202.279 25.2962C203.323 25.9575 203.846 26.7844 203.846 27.7764C203.846 35.7125 204.455 44.806 205.674 55.0569C206.37 60.3476 206.893 64.729 207.241 68.2011C209.156 89.5295 214.031 129.541 221.866 188.235V188.979C221.866 190.633 221.169 191.873 219.777 192.699ZM207.763 148.059C206.022 124.25 202.714 89.1162 197.839 42.6566L183.736 108.874C179.732 127.888 177.729 139.875 177.729 144.835C177.729 145.661 181.037 146.405 187.654 147.067C194.27 147.728 200.102 148.059 205.152 148.059H207.763Z"
     fill="white"
     id="path3" />
  <path
     d="M254.642 193.692C252.204 193.692 250.724 191.79 250.202 187.988C250.55 186.996 250.724 184.267 250.724 179.803C250.724 164.592 250.986 142.024 251.508 112.098C252.03 82.3374 252.291 60.8437 252.291 47.6168L252.814 38.6886L253.597 31.2486C253.597 30.0912 254.207 29.5126 255.425 29.5126C256.296 29.5126 257.515 29.7605 259.082 30.2566L259.865 30.5046C259.865 34.142 259.778 37.4486 259.604 40.4247V50.0968V77.1294C259.778 85.0656 259.865 94.0763 259.865 104.162C259.691 104.989 259.604 106.807 259.604 109.618L259.343 114.826C259.169 118.133 259.082 121.522 259.082 124.994C259.082 128.797 259.169 132.269 259.343 135.41L259.604 146.075L258.82 148.059L259.082 147.811C259.082 148.307 258.995 148.637 258.82 148.803V149.795C258.82 151.117 259.082 152.275 259.604 153.267L258.82 177.075V178.563C258.82 181.374 258.908 183.027 259.082 183.523C259.082 184.35 259.517 184.763 260.387 184.763L273.968 185.259C277.972 185.259 280.671 185.342 282.064 185.508C283.631 185.508 284.589 185.508 284.937 185.508H285.72C286.591 185.508 287.461 186.003 288.332 186.995C289.202 187.822 289.638 188.732 289.638 189.724C289.638 191.708 288.245 192.782 285.459 192.948C282.499 192.782 275.274 192.699 263.783 192.699L264.305 192.948C262.564 192.948 260.91 193.03 259.343 193.196C257.95 193.526 256.383 193.692 254.642 193.692Z"
     fill="white"
     id="path4" />
  <path
     d="M417.881 203.364C414.399 203.364 412.658 198.073 412.658 187.491V171.123C412.658 147.315 412.135 128.714 411.091 115.322L410.307 106.146C409.611 102.012 409.262 98.3752 409.262 95.2338C409.262 89.6123 409.437 84.4868 409.785 79.8574L410.307 64.481C410.307 59.3556 409.959 55.4702 409.262 52.8248C405.78 55.1395 395.247 89.943 377.662 157.235L377.401 160.955C376.878 165.088 376.182 168.395 375.311 170.875C374.789 172.694 374.005 174.099 372.961 175.091C372.09 176.083 371.046 176.579 369.827 176.579C367.041 176.579 365.039 175.918 363.82 174.595C362.601 173.272 361.992 171.206 361.992 168.395C361.992 163.931 359.729 152.357 355.202 133.674C350.849 114.991 346.061 97.0524 340.838 79.8574C335.789 62.6624 332.306 53.1555 330.391 51.3368C330.217 57.1236 329.521 70.7639 328.302 92.2576C325.864 130.285 324.646 160.211 324.646 182.035L324.907 191.955C324.21 194.105 322.382 195.18 319.422 195.18C318.9 195.18 318.03 194.683 316.811 193.691C315.592 192.865 314.983 192.204 314.983 191.708C314.983 176.827 316.375 150.704 319.161 113.338C321.773 78.6173 323.079 52.5768 323.079 35.2165C323.079 34.3898 322.905 33.5632 322.556 32.7365C322.034 31.7445 321.773 31.0005 321.773 30.5045C321.773 28.0245 324.036 26.7844 328.563 26.7844C331.523 26.7844 333.264 28.0245 333.786 30.5045C334.483 33.8113 334.831 36.2912 334.831 37.9446L335.092 40.9207C335.963 45.2194 338.487 51.8328 342.666 60.7609C345.974 67.8704 348.498 74.0705 350.24 79.3613C351.284 83.3294 352.242 86.5536 353.112 89.0336C355.898 98.6232 357.726 105.732 358.597 110.362L361.992 116.81C362.514 119.29 363.559 123.341 365.126 128.962C366.693 135.245 367.825 140.37 368.521 144.339C369.217 148.307 369.566 152.109 369.566 155.747C371.481 152.936 376.878 136.072 385.758 105.154C394.811 74.0705 400.122 54.2303 401.689 45.6328C401.863 45.3022 401.95 44.8887 401.95 44.3927C402.124 43.7314 402.298 42.9047 402.472 41.9127C402.82 39.7633 403.604 36.5393 404.823 32.2406C406.215 28.9338 408.305 27.2803 411.091 27.2803C412.309 27.2803 413.702 27.7765 415.269 28.7685C416.836 29.7605 417.62 30.7524 417.62 31.7444C417.62 100.69 418.751 137.147 421.015 141.115V154.011C420.841 157.813 420.754 162.195 420.754 167.155C420.754 177.736 421.363 185.673 422.582 190.963C422.756 191.129 422.843 191.377 422.843 191.708C423.017 192.038 423.191 192.451 423.365 192.947C423.539 193.609 423.626 194.353 423.626 195.18C423.626 196.998 423.017 198.817 421.798 200.636C420.754 202.454 419.448 203.364 417.881 203.364ZM409.262 51.3368H409.001L408.479 51.5849L409.262 51.8329V51.3368Z"
     fill="white"
     id="path5" />
  <path
     d="M489.807 195.18C469.436 195.18 459.251 164.758 459.251 103.914V95.2341C459.251 49.1052 465.519 26.0408 478.054 26.0408C478.925 26.0408 480.144 26.2887 481.711 26.7848C487.282 28.6035 492.766 29.7608 498.164 30.2568C501.472 30.9182 504.78 34.1422 508.088 39.929C511.744 45.8811 514.443 53.7345 516.184 63.4893C518.099 73.2442 519.057 83.247 519.057 93.4979L518.535 94.738C518.535 100.194 518.622 105.072 518.796 109.37L519.057 124.251C519.057 132.683 518.709 140.288 518.012 147.067C516.968 157.318 515.226 166.163 512.789 173.603C511.222 178.068 509.394 181.788 507.305 184.764C505.389 187.74 502.952 190.22 499.992 192.204C497.206 194.188 493.811 195.18 489.807 195.18ZM488.762 187.988C495.552 187.988 500.601 183.441 503.909 174.347C507.217 165.089 509.22 155.664 509.916 146.075C510.613 136.155 510.961 128.219 510.961 122.267C510.961 115.653 510.438 105.898 509.394 93.002C508.523 78.6177 508.088 68.8628 508.088 63.7374L507.043 61.7533L507.566 60.5134C507.566 53.2386 505.389 46.9558 501.037 41.665C496.858 36.3742 491.722 33.7289 485.628 33.7289C477.619 33.7289 472.831 37.3663 471.264 44.6411C470.916 47.1212 470.568 50.6759 470.219 55.3053C470.219 67.5402 469.697 75.8896 468.652 80.3537C468.652 82.8337 468.391 86.7191 467.869 92.0099L467.347 103.666C467.347 107.304 467.434 110.528 467.608 113.338L467.869 123.259C467.869 131.029 468.565 139.958 469.958 150.043C471.003 157.483 472.222 163.766 473.615 168.891C475.007 174.017 477.01 178.398 479.621 182.036C482.233 186.004 485.28 187.988 488.762 187.988Z"
     fill="white"
     id="path6" />
  <path
     d="M592.888 193.444C590.799 191.294 588.536 185.59 586.098 176.331C583.661 167.072 581.397 156.656 579.308 145.083C577.915 135.658 575.913 126.317 573.301 117.058C571.212 108.791 569.21 104.658 567.294 104.658H566.511C562.68 104.658 560.765 105.815 560.765 108.13C560.765 120.034 561.462 138.138 562.855 162.443C563.551 177.323 564.335 186.003 565.205 188.483L563.116 192.699H559.459L557.37 190.715C554.584 114.33 553.192 62.249 553.192 34.4724C553.192 32.6537 553.279 31.1657 553.453 30.0084C553.801 28.851 554.41 27.7764 555.281 26.7844C555.977 25.627 557.196 25.0483 558.937 25.0483C567.817 25.0483 574.955 27.115 580.352 31.2485C585.75 35.3819 588.449 41.334 588.449 49.1048V67.2091C588.449 70.3504 587.317 74.5666 585.053 79.8573C582.964 85.1481 580.614 90.0255 578.002 94.4895L574.607 100.69C576.522 109.122 580.265 124.333 585.837 146.323C591.582 168.147 594.716 179.721 595.239 181.043C595.413 181.209 595.587 181.622 595.761 182.283C596.109 182.945 596.719 183.937 597.589 185.259C598.808 187.574 599.417 189.558 599.417 191.211C599.417 193.526 598.46 194.683 596.545 194.683L592.888 193.444ZM562.071 98.4577C565.379 98.4577 568.339 96.8869 570.951 93.7456C573.562 90.6042 575.652 86.5535 577.219 81.5934C580.004 71.5079 581.397 63.489 581.397 57.5369C581.397 53.7342 581.136 50.5928 580.614 48.1128C580.265 45.6327 579.569 42.9874 578.524 40.1766C576.435 34.3899 571.473 31.4963 563.638 31.4963C562.768 31.4963 562.071 32.2404 561.549 33.7285C561.026 35.0512 560.765 36.4565 560.765 37.9445C560.765 49.022 560.939 59.0249 561.288 67.953C561.462 76.8812 561.549 86.884 561.549 97.9616L562.071 98.4577Z"
     fill="white"
     id="path7" />
  <path
     d="M633.385 193.692C630.251 193.692 628.51 191.956 628.162 188.484V185.26C628.336 184.433 628.423 183.441 628.423 182.283L627.378 181.291C628.771 177.819 629.468 174.43 629.468 171.123C629.468 167.321 629.206 161.864 628.684 154.755L628.162 138.387C628.162 130.12 628.423 117.72 628.945 101.186C629.642 86.4711 629.99 73.9882 629.99 63.7373L629.468 48.8571C629.119 44.393 628.945 39.4329 628.945 33.9768C628.945 31.4968 629.555 29.7608 630.773 28.7687C631.992 27.6114 633.907 27.0327 636.519 27.0327C638.26 27.0327 639.653 27.5287 640.698 28.5207C641.046 28.686 643.57 29.0167 648.271 29.5127C652.624 30.0087 656.367 30.7527 659.501 31.7447C662.809 32.7367 664.463 33.9768 664.463 35.4648C664.463 37.1181 662.809 38.7714 659.501 40.4248C649.577 37.2834 642.526 35.7128 638.347 35.7128L637.041 37.2008C637.215 38.6888 637.302 42.2436 637.302 47.865C637.302 54.9745 637.128 61.3399 636.78 66.9613C636.606 72.7481 636.519 79.1963 636.519 86.3058C636.519 90.9352 637.738 93.2499 640.175 93.2499L644.354 93.0019C645.747 92.8365 647.227 92.7538 648.794 92.7538C655.584 92.7538 658.979 94.2418 658.979 97.2179C658.979 99.0366 658.544 100.607 657.673 101.93C656.803 103.087 655.497 103.666 653.756 103.666C651.144 103.666 649.142 103.005 647.749 101.682L639.392 100.442H638.086L636.78 101.682V102.426C637.128 105.237 637.302 111.768 637.302 122.018C637.302 128.466 637.215 134.336 637.041 139.627L636.78 157.235C636.78 163.683 637.041 170.297 637.564 177.075C637.738 180.878 638.608 183.441 640.175 184.764C641.742 185.921 644.615 186.5 648.794 186.5L653.494 186.252C655.061 186.086 656.803 186.004 658.718 186.004C663.767 186.004 666.291 187.078 666.291 189.228C666.291 192.204 662.461 193.692 654.8 193.692H633.385Z"
     fill="white"
     id="path8" />
  <path
     d="M678.529 215.268V214.772L678.268 214.276C678.268 213.78 679.748 212.623 682.708 210.804C685.494 208.82 688.627 206.836 692.11 204.852C695.94 202.372 697.942 200.966 698.116 200.636C700.728 197.825 702.73 193.443 704.123 187.491C705.69 181.374 706.474 175.422 706.474 169.635C706.474 151.944 706.125 129.954 705.429 103.666C704.558 79.196 704.123 57.2889 704.123 37.9445L702.556 35.2165C701.337 34.8858 699.248 34.4726 696.288 33.9766C692.98 33.8112 690.02 33.1498 687.409 31.9925C684.797 31.1658 683.491 30.0912 683.491 28.7685C683.491 28.1071 684.188 27.4457 685.581 26.7844C686.973 26.1231 688.105 25.7924 688.976 25.7924C692.284 25.7924 697.507 26.371 704.645 27.5284C711.958 28.6857 718.4 30.0911 723.971 31.7444C729.717 33.3978 732.59 34.8858 732.59 36.2085C732.59 37.2005 732.155 38.0272 731.284 38.6885C730.588 39.1845 729.63 39.4327 728.411 39.4327C727.193 39.4327 724.842 39.0193 721.36 38.1926C718.748 37.3659 716.398 36.9525 714.308 36.9525C712.742 36.9525 711.958 38.606 711.958 41.9127C711.958 51.0062 712.393 68.201 713.264 93.4975C714.134 112.511 714.57 129.624 714.57 144.835V172.115C713.525 174.265 713.003 177.737 713.003 182.531C713.003 189.475 710.913 197.329 706.735 206.092C704.471 210.556 701.511 214.11 697.855 216.756C694.373 219.567 690.543 220.972 686.364 220.972H684.536L678.529 215.268Z"
     fill="white"
     id="path9" />
  <path
     d="M961.822 191.956C960.08 191.956 958.775 191.377 957.904 190.22C957.034 188.897 956.598 187.326 956.598 185.508V163.435V141.363L956.076 101.682C955.554 83.9909 955.292 70.764 955.292 62.0012L955.554 54.809V38.6887C955.554 20.8323 955.379 11.9043 955.031 11.9043H925.52C924.127 11.9043 922.821 11.5736 921.602 10.9123C920.558 10.2509 920.035 9.34156 920.035 8.18421C920.035 6.86151 920.297 5.95215 920.819 5.45614C921.341 4.96013 922.734 4.54671 924.998 4.21604C927.435 3.72003 930.917 3.47206 935.444 3.47206H961.56L990.288 3.224C992.378 3.224 993.77 3.55469 994.467 4.21604C995.337 4.87739 995.773 5.95219 995.773 7.44022C995.773 9.92027 994.119 11.1601 990.811 11.1601H979.058H967.567L965.217 11.4082L965.478 25.7925V45.1368V145.827V166.411L965.739 184.763V185.26C965.739 186.582 965.652 187.74 965.478 188.732C965.304 189.558 964.955 190.22 964.433 190.716C963.911 191.542 963.04 191.956 961.822 191.956Z"
     fill="white"
     id="path10" />
  <path
     d="M1025.64 193.692C1022.51 193.692 1020.76 191.956 1020.42 188.484V185.26C1020.59 184.433 1020.68 183.441 1020.68 182.283L1019.63 181.291C1021.03 177.819 1021.72 174.43 1021.72 171.123C1021.72 167.321 1021.46 161.864 1020.94 154.755L1020.42 138.387C1020.42 130.12 1020.68 117.72 1021.2 101.186C1021.9 86.4711 1022.24 73.9882 1022.24 63.7373L1021.72 48.8571C1021.37 44.393 1021.2 39.4329 1021.2 33.9768C1021.2 31.4968 1021.81 29.7608 1023.03 28.7687C1024.25 27.6114 1026.16 27.0327 1028.77 27.0327C1030.51 27.0327 1031.91 27.5287 1032.95 28.5207C1033.3 28.686 1035.82 29.0167 1040.53 29.5127C1044.88 30.0087 1048.62 30.7527 1051.76 31.7447C1055.06 32.7367 1056.72 33.9768 1056.72 35.4648C1056.72 37.1181 1055.06 38.7714 1051.76 40.4248C1041.83 37.2834 1034.78 35.7128 1030.6 35.7128L1029.3 37.2008C1029.47 38.6888 1029.56 42.2436 1029.56 47.865C1029.56 54.9745 1029.38 61.3399 1029.03 66.9613C1028.86 72.7481 1028.77 79.1963 1028.77 86.3058C1028.77 90.9352 1029.99 93.2499 1032.43 93.2499L1036.61 93.0019C1038 92.8365 1039.48 92.7538 1041.05 92.7538C1047.84 92.7538 1051.23 94.2418 1051.23 97.2179C1051.23 99.0366 1050.8 100.607 1049.93 101.93C1049.06 103.087 1047.75 103.666 1046.01 103.666C1043.4 103.666 1041.4 103.005 1040 101.682L1031.65 100.442H1030.34L1029.03 101.682V102.426C1029.38 105.237 1029.56 111.768 1029.56 122.018C1029.56 128.466 1029.47 134.336 1029.3 139.627L1029.03 157.235C1029.03 163.683 1029.3 170.297 1029.82 177.075C1029.99 180.878 1030.86 183.441 1032.43 184.764C1034 185.921 1036.87 186.5 1041.05 186.5L1045.75 186.252C1047.32 186.086 1049.06 186.004 1050.97 186.004C1056.02 186.004 1058.55 187.078 1058.55 189.228C1058.55 192.204 1054.72 193.692 1047.05 193.692H1025.64Z"
     fill="white"
     id="path11" />
  <path
     d="M1106.82 192.203C1103.52 191.211 1100.64 189.806 1098.21 187.987C1095.94 186.169 1093.77 183.441 1091.68 179.803C1088.02 173.19 1085.84 163.683 1085.15 151.283C1084.8 145.661 1084.63 140.701 1084.63 136.402V108.13C1084.63 97.3829 1084.97 86.9667 1085.67 76.8811C1086.19 69.441 1086.98 63.1584 1088.02 58.0329C1089.06 52.9075 1090.72 47.782 1092.98 42.6566C1095.42 37.3658 1098.12 33.6456 1101.08 31.4963C1102.3 30.5042 1104.65 29.3469 1108.13 28.0242C1110.39 27.1975 1112.57 26.2882 1114.66 25.2961H1125.11H1125.89C1126.06 25.4615 1126.32 25.5442 1126.67 25.5442L1127.98 25.7923L1129.02 26.5362C1129.55 27.0323 1129.81 27.3629 1129.81 27.5283C1129.98 27.859 1130.07 28.3549 1130.07 29.0162L1126.67 32.7364H1115.7C1112.4 32.7364 1109.35 34.3071 1106.56 37.4485C1103.95 40.4246 1101.95 44.2273 1100.56 48.8567C1099.16 52.9901 1098.03 57.8674 1097.16 63.4889C1096.29 69.1103 1095.77 73.9878 1095.59 78.1213C1095.25 83.412 1095.07 87.0495 1095.07 89.0335L1094.55 90.2734C1094.55 99.5323 1094.38 107.882 1094.03 115.322L1093.5 140.37C1093.5 147.645 1094.03 154.341 1095.07 160.459C1095.94 167.072 1098.47 173.024 1102.65 178.315C1106.65 183.606 1112.83 186.251 1121.19 186.251C1123.8 186.251 1125.98 185.507 1127.72 184.019C1130.33 184.019 1131.63 184.929 1131.63 186.747C1131.63 187.905 1130.5 189.227 1128.24 190.715C1126.15 192.369 1123.97 193.609 1121.71 194.435H1113.09L1106.82 192.203Z"
     fill="white"
     id="path12" />
  <path
     d="M1208.98 193.195C1208.98 191.542 1206.37 190.715 1201.14 190.715C1200.27 160.128 1199.84 137.973 1199.84 124.25L1199.06 123.258L1200.1 121.026C1200.1 118.05 1199.75 114.991 1199.06 111.85L1195.14 110.858C1193.57 111.354 1191.83 111.602 1189.91 111.602C1188.52 111.602 1185.65 111.188 1181.3 110.362C1178.34 109.535 1175.64 109.122 1173.2 109.122L1170.33 110.114C1170.33 115.901 1170.24 121.109 1170.07 125.738C1169.89 130.368 1169.81 135.576 1169.81 141.362L1170.33 142.354C1170.33 146.984 1170.59 153.928 1171.11 163.187C1171.63 172.28 1171.89 179.142 1171.89 183.771C1171.89 185.59 1171.55 187.161 1170.85 188.483C1170.15 189.641 1169.11 190.219 1167.72 190.219C1163.89 190.219 1161.97 185.259 1161.97 175.339C1161.97 166.907 1162.06 159.301 1162.23 152.523L1162.49 129.954C1162.49 114.909 1162.23 106.807 1161.71 105.65C1162.58 103.996 1163.01 98.5403 1163.01 89.2814C1163.01 81.3453 1162.67 71.6731 1161.97 60.2649L1161.45 50.5928L1160.93 31.2484C1160.93 30.0911 1161.36 29.0163 1162.23 28.0243C1163.1 27.0322 1164.15 26.5363 1165.37 26.5363C1168.85 26.5363 1170.59 31.3311 1170.59 40.9206C1170.59 52.1635 1170.5 62.3316 1170.33 71.4251C1169.98 80.5186 1169.81 90.5216 1169.81 101.434C1169.81 103.418 1176.42 104.41 1189.65 104.41H1190.7C1194.01 104.41 1196.36 103.831 1197.75 102.674C1199.32 101.351 1200.1 99.2016 1200.1 96.2255C1200.1 87.4627 1199.49 76.0546 1198.27 62.001C1197.23 46.79 1196.7 35.3819 1196.7 27.7764C1196.7 26.7844 1197.14 25.9575 1198.01 25.2962C1198.88 24.4695 1199.93 24.0563 1201.14 24.0563L1203.49 24.8003C1204.71 24.9656 1205.5 25.2136 1205.85 25.5442C1205.85 38.4405 1206.37 57.7022 1207.41 83.3294C1208.46 109.122 1208.98 128.466 1208.98 141.362C1208.98 160.872 1209.59 177.24 1210.81 190.467L1208.98 193.195ZM1192.53 100.938L1193.05 101.434H1192.53V100.938Z"
     fill="white"
     id="path13" />
  <path
     d="M1250.55 191.212C1248.98 190.22 1248.2 188.732 1248.2 186.748C1248.2 183.276 1248.63 179.39 1249.5 175.091C1250.37 170.793 1251.77 164.923 1253.68 157.483L1257.34 143.595C1268.48 96.6394 1279.36 53.8172 1289.98 15.1285L1290.51 13.6405C1290.68 12.6485 1290.94 11.6564 1291.29 10.6644C1291.64 9.50704 1291.9 8.6804 1292.07 8.18439L1293.38 5.70438C1293.73 5.20837 1294.08 4.96021 1294.42 4.96021C1297.04 4.96021 1298.34 6.03501 1298.34 8.18439C1298.34 8.34972 1297.91 10.3337 1297.04 14.1364L1294.42 24.8007L1293.12 31.0008L1283.19 72.6656L1263.61 154.259L1258.38 175.836C1258.21 176.332 1257.95 177.489 1257.6 179.308C1257.25 180.63 1256.56 183.193 1255.51 186.996C1254.47 189.476 1252.81 190.881 1250.55 191.212Z"
     fill="white"
     id="path14" />
  <path
     d="M1336.48 190.467C1335.78 190.467 1335 189.971 1334.13 188.979C1333.43 187.822 1333 186.747 1332.82 185.755L1335.17 184.019C1338.83 177.736 1346.4 163.435 1357.9 141.114C1369.56 118.629 1375.39 106.807 1375.39 105.65C1375.39 101.351 1373.91 95.4816 1370.95 88.0415C1368.17 80.436 1364.69 72.6651 1360.51 64.729C1356.15 56.4622 1352.24 48.3606 1348.75 40.4244C1345.45 32.323 1343.44 25.7923 1342.75 20.8322L1346.14 18.3521C1347.19 18.5174 1348.32 19.5922 1349.54 21.5762C1350.76 23.3949 1351.71 25.3789 1352.41 27.5283C1352.58 28.1896 1353.28 30.5043 1354.5 34.4724L1356.07 39.4326C1357.29 43.07 1360.25 49.7661 1364.95 59.5209L1369.65 69.9371L1378.27 89.0335C1382.44 98.127 1384.53 103.748 1384.53 105.898C1384.53 108.378 1382.97 111.602 1379.83 115.57C1376.52 119.703 1374.61 122.514 1374.09 124.002L1370.95 130.202C1369.39 132.848 1368.52 134.584 1368.34 135.41L1345.88 179.555L1340.4 189.971L1338.31 190.219L1336.48 190.467Z"
     fill="white"
     id="path15" />
</svg>
