<svg width="310" height="324" viewBox="0 0 310 324" fill="none" xmlns="http://www.w3.org/2000/svg">
<g clip-path="url(#clip0_224_56)">
<path d="M171.738 83.4918C171.174 83.3019 170.549 83.6447 170.343 84.2574C170.137 84.8702 170.427 85.5209 170.992 85.7108C171.556 85.9007 172.181 85.5579 172.387 84.9452C172.593 84.3324 172.303 83.6818 171.738 83.4918Z" fill="white" fill-opacity="0.4"/>
<path d="M202.037 92.4476C201.472 92.2577 200.847 92.6007 200.641 93.2137C200.435 93.8265 200.726 94.4772 201.29 94.6671C201.855 94.857 202.48 94.5142 202.686 93.9015C202.892 93.2886 202.602 92.6376 202.037 92.4476Z" fill="white" fill-opacity="0.4"/>
<path d="M82.144 58.3664C75.5214 60.0186 68.6846 61.9954 60.5386 67.5331C61.7203 72.7546 64.7566 75.9032 67.5962 79.2717C79.8605 108.417 96.956 129.895 120.732 140.768C108.977 152.4 102.586 149.452 83.6706 188.671C84.4073 188.739 85.1272 188.88 85.8193 189.132C86.1032 189.236 86.378 189.375 86.6545 189.507C94.4418 173.192 102.136 156.873 125.156 141.184C92.754 127.213 78.5305 97.9178 64.156 68.7498C75.8193 64.1692 76.5604 62.1057 81.0804 60.7316C88.8905 67.9642 85.4077 68.953 88.4282 72.8921C85.8889 81.2112 88.3495 89.1631 92.6746 97.2897C102.481 114.945 114.647 127.799 134.04 125.945C142.588 122.796 151.238 106.255 154.107 99.0062L150.986 99.8186C150.99 99.7885 150.998 99.7614 151.003 99.7313C145.848 111.341 140.191 119.901 133.565 122.569C113.66 128.826 98.8212 103.193 94.8523 96.6819C89.3897 88.3816 89.585 79.9014 92.8052 71.8429C90.8118 67.103 88.0712 62.4819 82.144 58.3664Z" fill="white" fill-opacity="0.4"/>
<path d="M210.915 42.9407C198.617 38.8259 185.094 39.3677 175.325 48.163C164.118 59.5831 154.729 76.6186 150.986 99.8186L154.107 99.0062C157.575 76.9485 165.283 61.0423 176.447 50.1484C185.569 35.5979 230.352 42.3201 236.558 69.5635C242.138 86.1737 233.299 107.866 226.177 128.953C227.026 140.656 222.968 143.927 241.06 185.263C246.816 207.536 245.48 227.761 230.067 243.922L236.214 245.158C250.974 219.094 246.862 202.773 243.793 185.914C237.02 165.476 226.89 142.149 230.036 130.251C235.585 110.498 244.022 91.4055 240.76 69.6367C237.217 58.2482 224.853 47.604 210.915 42.9407Z" fill="white" fill-opacity="0.4"/>
<path d="M215.637 165.351C219.159 174.498 223.168 183.597 221.632 193.239C220.013 202.8 217.179 208.503 214.642 215.148L212.771 214.248C212.676 215.468 212.544 216.592 212.347 217.553C214.001 219.08 224.165 225.204 226.265 232.23C228.162 235.508 226.555 237.322 225.48 239.358L227.925 240.275C229.529 237.522 229.881 234.944 229.905 232.412C229.956 229.413 228.78 225.519 219.129 218.174C221.193 210.524 224.417 205.813 224.505 193.163C224.426 181.14 219.628 173.632 215.637 165.351Z" fill="white" fill-opacity="0.4"/>
<path d="M184.824 95.6271C181.396 94.483 177.706 94.2367 174.954 94.9967C172.76 95.7434 170.773 96.5597 168.919 97.4209C166.46 98.3722 164.164 99.4464 161.134 99.9673C160.239 100.56 151.121 101.767 158.588 112.899C161.294 115.99 162.124 117.555 163.323 119.42C171.206 131.765 173.64 133.47 186.794 128.736C190.18 127.617 194.717 127.679 197.684 127.127C211.009 124.646 211.375 115.62 201.615 109.13C198.761 107.457 195.401 103.781 191.78 99.8731C189.997 97.949 187.49 96.5167 184.824 95.6271ZM202.101 115.736L203.285 116.804C197.03 119.652 191.131 122.725 179.581 122.233C174.493 121.354 170.646 119.392 167.325 116.971C171.659 119.271 175.846 120.864 179.704 120.868C188.296 121.532 195.222 118.793 202.101 115.736Z" fill="white" fill-opacity="0.4"/>
<path d="M176.197 72.7258C172.664 71.6033 168.209 74.0566 164.471 80.7643C162.875 84.9285 161.001 88.8255 163.85 97.3747L167.956 95.9416C167.216 93.7945 166.207 90.5366 167.594 87.0414C171.357 78.9644 175.32 81.9225 175.619 86.7253C175.623 90.3211 174.879 91.3812 174.338 93.1294L180.352 92.606C182.868 87.0645 182.449 83.3261 181.629 79.8343C180.6 75.9358 178.615 73.4939 176.197 72.7258Z" fill="white" fill-opacity="0.4"/>
<path d="M208.028 80.9816C205.254 80.0486 201.803 80.2479 197.813 81.9952C193.411 84.7651 190.482 89.2387 188.914 95.285C188.914 95.285 193.616 98.9501 194.745 100.037C194.689 98.7723 196.336 94.1243 198.655 92.2628C202.979 88.3606 208.822 90.7216 207.127 98.7977C206.623 101.736 205.687 104.959 201.518 106.695L206.897 111.452C212.558 108.296 215.351 103.007 215.581 95.8116C216.16 88.6704 213.326 82.7627 208.028 80.9816ZM194.745 100.037C194.756 100.295 194.833 100.424 194.996 100.346C195.031 100.33 194.924 100.21 194.745 100.037Z" fill="white" fill-opacity="0.4"/>
<path d="M206.279 125.92C204.153 127.148 201.543 128.298 198.692 128.862C197.698 129.22 189.98 129.093 181.53 131.801C180.414 132.604 170.886 133.795 165.614 126.246C162.764 122.156 161.393 118.734 156.593 113.764C157.353 119.874 142.016 137.192 125.783 155.123C112.309 170.294 98.1773 186.24 100.685 210.554C103.209 224.394 105.168 236.038 108.622 241.095C122.839 270.866 146.993 267.82 168.3 264.328C178.184 251.298 176.224 245.343 184.501 231.195C190.112 224.845 195.186 224.083 199.132 222.683C202.093 213.487 208.179 217.127 212.347 217.553C215.697 201.171 203.323 144.805 206.279 125.92ZM203.612 128.88C200.714 146.845 212.329 196.886 209.085 212.475C205.218 212.105 199.018 212.102 196.194 220.862C192.518 222.224 187.799 222.989 182.537 229.066C174.736 242.574 176.508 248.216 167.223 260.673C147.407 264.162 124.95 267.252 111.987 239.084C108.82 234.307 107.094 223.262 104.861 210.134C102.729 187.056 115.983 171.793 128.618 157.273C143.839 140.107 158.222 123.531 157.565 117.733C161.983 122.416 163.229 125.656 165.843 129.519C170.678 136.647 179.536 135.439 180.58 134.667C188.449 132.026 195.616 132.085 196.542 131.737C199.195 131.177 201.628 130.064 203.612 128.88Z" fill="white" fill-opacity="0.4"/>
<path d="M85.8193 189.132C82.4386 187.899 78.535 188.742 74.0176 192.771C70.6324 194.969 70.0023 197.6 57.3376 198.343C48.5825 197.171 44.9022 202.763 43.9954 212.05C43.6062 216.531 41.9644 220.59 38.6211 224.078C29.5391 231.964 30.0421 239.105 47.1634 244.956C60.6105 249.384 65.4928 257.107 74.2264 263.536C85.6261 269.775 93.9995 271.249 99.5408 269.42L101.444 265.887C102.699 265.659 103.927 265.485 105.151 265.318C108.662 260.323 108.652 251.896 105.349 242.079C99.5878 227.001 99.01 211.652 94.4846 197.949C92.0582 193.674 89.2 190.365 85.8193 189.132ZM84.7022 193.581C87.7161 194.678 90.2727 197.601 92.4489 201.372C96.5297 213.448 97.1029 226.956 102.289 240.246C109.048 259.883 100.703 273.171 74.6697 259.008C66.8712 253.317 62.4956 246.503 50.5093 242.554C35.2471 237.34 34.772 231.053 42.8255 224.149C45.788 221.093 47.2338 217.527 47.563 213.586C48.3344 205.417 51.589 200.511 59.3864 201.576C70.6564 200.971 71.2067 198.658 74.2114 196.737C78.2168 193.21 81.6883 192.483 84.7022 193.581Z" fill="white" fill-opacity="0.4"/>
<path d="M196.181 227.223C196.03 227.18 195.847 227.178 195.626 227.219C192.091 227.883 188.735 230.68 185.647 234.501C178.961 247.282 175.902 262.332 167.773 276.266C165.819 279.951 164.44 283.495 163.649 286.78L162.879 292.834C162.909 304.324 172.824 310.289 195.001 302.526C204.66 297.612 210.73 290.79 224.715 288.62C242.557 285.647 244.211 278.682 236.529 269.417C233.795 265.429 232.834 261.155 233.176 256.671C233.787 247.359 231.063 241.241 222.234 240.965C215.475 245.008 206.44 246.707 203.456 243.985C193.567 237.589 198.445 227.867 196.181 227.223ZM225.279 246.953C229.026 248.264 229.83 251.463 229.407 257.603C229.093 261.545 229.942 265.3 232.369 268.8C239.196 276.929 237.707 283.053 221.803 285.703C209.337 287.638 203.915 293.647 195.298 297.986C167.315 307.703 161.237 293.228 171.089 274.958C178.361 262.694 181.117 249.459 187.101 238.212C189.859 234.847 187.738 236.423 190.89 235.833C194.041 235.242 194.39 245.182 201.51 249.771C204.163 252.158 211.182 249.864 220.488 246.232C222.455 246.288 224.03 246.516 225.279 246.953Z" fill="white" fill-opacity="0.4"/>
<path d="M134.607 267.551C124.862 264.423 113.935 263.618 101.444 265.888L99.5271 269.445C125.212 265.645 146.777 272.462 162.865 292.94L163.743 286.039C155.178 277.624 145.651 271.096 134.607 267.551Z" fill="white" fill-opacity="0.4"/>
</g>
<defs>
<clipPath id="clip0_224_56">
<rect width="238.527" height="261.139" fill="white" transform="translate(83.2543) rotate(18.5911)"/>
</clipPath>
</defs>
</svg>
