<svg width="281" height="175" viewBox="0 0 281 175" fill="none" xmlns="http://www.w3.org/2000/svg">
<path d="M-35.6208 96.4113C-31.3973 103.658 -37.0943 105.584 -18.1262 120.74C4.50232 141.174 7.63404 133.721 20.5077 140.203C8.24393 133.593 -8.0791 130.854 -14.846 119.002C-18.5933 114.249 -28.128 104.438 -35.6208 96.4113Z" fill="white" fill-opacity="0.4"/>
<path d="M23.3971 147.607C20.1651 132.943 15.17 118.28 20.5077 103.616C27.7556 88.9814 34.9191 74.3223 44.5301 60.3634C47.7447 55.7295 58.4524 39.3504 56.9007 27.4322C54.6449 24.3131 51.2531 20.2881 47.365 25.4661C45.3563 29.3416 43.3475 31.472 41.3387 34.3134C32.7755 37.7332 27.3479 61.3356 20.5077 75.846C27.9998 58.4793 27.9472 34.8175 42.9838 23.7458C48.1116 18.8646 53.9556 18.5928 61.0242 26.2034C65.1478 37.7998 50.055 56.9941 44.5301 72.4054C39.1235 83.6388 33.1277 93.7484 27.2629 104.108C22.0026 116.025 23.7021 132.467 23.3971 147.607Z" fill="white" fill-opacity="0.4"/>
<path d="M13.3146 75.9057C15.0536 71.5844 19.5349 69.063 18.1612 62.6988C16.8473 51.8198 11.581 55.5977 7.38675 55.4003C4.42864 64.068 -2.46441 63.087 -7.55658 66.5219C-1.511 56.992 5.52784 47.9673 6.65781 35.9375C5.45915 27.0792 -14.7882 44.0459 -13.3881 43.236C-9.26502 40.8508 4.16463 26.776 1.19074 27.9437C5.22604 20.7519 -0.394489 20.8146 -7.55658 22.0354C-6.28361 14.3982 -0.283913 13.7722 3.74203 10.2186L-35.6208 30.3766C-24.0153 28.1961 -16.5082 20.5441 -0.30378 24.5032C0.396107 33.2174 -13.8843 40.2082 -19.5841 46.0164C-12.1945 44.5068 7.7645 28.0148 2.28415 41.8458C3.54399 53.7419 -7.01951 60.0007 -11.9302 68.9547L8.11568 61.6562C17.0598 62.1379 13.7349 69.8814 13.3146 75.9057Z" fill="white" fill-opacity="0.4"/>
<path d="M6.75851 75.9061C5.01972 75.9061 3.35214 77.068 2.12259 79.1363C0.893044 81.2045 0.202254 84.0097 0.202179 86.9348C0.202144 88.3832 0.371702 89.8175 0.701174 91.1556C1.03065 92.4938 1.51358 93.7097 2.1224 94.7339C2.73121 95.7581 3.45399 96.5705 4.24946 97.1248C5.04493 97.6791 5.8975 97.9644 6.75851 97.9643C7.61951 97.9644 8.47209 97.6791 9.26756 97.1248C10.063 96.5705 10.7858 95.7581 11.3946 94.7339C12.0034 93.7097 12.4864 92.4938 12.8158 91.1556C13.1453 89.8175 13.3149 88.3832 13.3148 86.9348C13.3148 84.0097 12.624 81.2045 11.3944 79.1363C10.1649 77.068 8.49729 75.9061 6.75851 75.9061ZM6.75851 78.8884C7.21212 78.8883 7.6613 79.0882 8.0804 79.4767C8.49949 79.8651 8.88029 80.4346 9.20106 81.1525C9.52183 81.8704 9.77628 82.7227 9.94987 83.6607C10.1235 84.5987 10.2128 85.6041 10.2128 86.6194C10.2128 87.6347 10.1235 88.6401 9.94987 89.5781C9.77628 90.5161 9.52183 91.3684 9.20106 92.0863C8.88029 92.8042 8.49949 93.3736 8.0804 93.7621C7.6613 94.1506 7.21212 94.3504 6.75851 94.3503C6.3049 94.3504 5.85572 94.1506 5.43662 93.7621C5.01753 93.3736 4.63672 92.8042 4.31595 92.0863C3.99519 91.3684 3.74074 90.5161 3.56714 89.5781C3.39354 88.6401 3.30419 87.6347 3.3042 86.6194C3.30419 85.6041 3.39354 84.5987 3.56714 83.6607C3.74074 82.7227 3.99519 81.8704 4.31595 81.1525C4.63672 80.4346 5.01753 79.8651 5.43662 79.4767C5.85572 79.0882 6.3049 78.8883 6.75851 78.8884Z" fill="white" fill-opacity="0.4"/>
<path d="M2.3493 63.7557C1.57737 63.4353 0.48943 63.8896 -0.675201 65.0188C-1.83983 66.148 -2.98575 67.8595 -3.86088 69.7768C-4.29423 70.7262 -4.64804 71.6976 -4.90211 72.6355C-5.15619 73.5734 -5.30555 74.4594 -5.34167 75.2429C-5.3778 76.0264 -5.29997 76.6921 -5.11265 77.202C-4.92532 77.7119 -4.63216 78.056 -4.2499 78.2146C-3.86766 78.3733 -3.40381 78.3433 -2.88484 78.1266C-2.36586 77.9098 -1.80193 77.5105 -1.22523 76.9513C-0.648529 76.3921 -0.0703654 75.6841 0.476251 74.8676C1.02287 74.0512 1.52723 73.1423 1.96055 72.1928C2.83561 70.2755 3.36817 68.3094 3.44108 66.7272C3.51398 65.1449 3.12126 64.076 2.3493 63.7557ZM1.45708 65.7106C1.6585 65.7941 1.79811 66.0079 1.86795 66.3397C1.93779 66.6716 1.93649 67.1149 1.86412 67.6446C1.79176 68.1743 1.64974 68.7798 1.44618 69.4267C1.24262 70.0735 0.981508 70.749 0.677753 71.4145C0.374004 72.08 0.0335598 72.7226 -0.324138 73.3055C-0.681835 73.8884 -1.04978 74.4001 -1.40696 74.8116C-1.76414 75.2231 -2.10356 75.5262 -2.40584 75.7036C-2.70812 75.881 -2.96734 75.9293 -3.16869 75.8456C-3.3701 75.7621 -3.50972 75.5484 -3.57956 75.2165C-3.6494 74.8846 -3.6481 74.4412 -3.57573 73.9115C-3.50336 73.3819 -3.36134 72.7763 -3.15778 72.1295C-2.95422 71.4826 -2.69311 70.8071 -2.38935 70.1416C-2.0856 69.4761 -1.74516 68.8336 -1.38747 68.2507C-1.02977 67.6679 -0.661822 67.156 -0.304641 66.7446C0.0525393 66.3331 0.391959 66.03 0.694238 65.8526C0.996516 65.6751 1.25573 65.6269 1.45708 65.7106Z" fill="white" fill-opacity="0.4"/>
<path d="M89.5623 61.2144C87.6361 61.1329 85.1964 62.2511 82.78 64.3231C80.3635 66.3951 78.1682 69.2511 76.677 72.2628C75.9386 73.7542 75.3953 75.2389 75.0781 76.6321C74.7609 78.0254 74.6761 79.2999 74.8284 80.383C74.9807 81.466 75.3673 82.3364 75.9659 82.9443C76.5646 83.5523 77.3636 83.8859 78.3175 83.9262C79.2713 83.9665 80.3612 83.7127 81.5249 83.1793C82.6887 82.6458 83.9036 81.8431 85.1001 80.8171C86.2967 79.791 87.4515 78.5617 88.4987 77.1993C89.5458 75.8369 90.4648 74.3681 91.2032 72.8768C92.6942 69.865 93.359 66.9444 93.0513 64.7572C92.7436 62.5701 91.4885 61.2957 89.5623 61.2144ZM88.042 64.285C88.5446 64.3061 88.9403 64.5329 89.2065 64.9525C89.4728 65.3721 89.6043 65.9762 89.5937 66.7304C89.5831 67.4846 89.4305 68.3741 89.1446 69.3481C88.8587 70.322 88.4452 71.3614 87.9276 72.4068C87.41 73.4522 86.7985 74.4831 86.128 75.4408C85.4575 76.3985 84.7412 77.2641 84.0199 77.9883C83.2986 78.7124 82.5864 79.2809 81.9241 79.6613C81.2618 80.0417 80.6623 80.2264 80.1599 80.2051C79.6573 80.184 79.2616 79.9571 78.9953 79.5375C78.7291 79.1179 78.5975 78.5138 78.6081 77.7596C78.6187 77.0054 78.7714 76.116 79.0572 75.142C79.3431 74.1681 79.7566 73.1287 80.2742 72.0833C80.7918 71.0379 81.4033 70.007 82.0738 69.0493C82.7443 68.0916 83.4606 67.2259 84.1819 66.5018C84.9032 65.7776 85.6154 65.2092 86.2777 64.8288C86.94 64.4485 87.5395 64.2636 88.042 64.285Z" fill="white" fill-opacity="0.4"/>
<path d="M109.621 64.5394C108.94 64.4818 108.077 65.2726 107.223 66.7379C106.368 68.2033 105.592 70.223 105.064 72.3529C104.803 73.4076 104.611 74.4576 104.499 75.4429C104.387 76.4282 104.357 77.3296 104.411 78.0955C104.464 78.8614 104.601 79.477 104.813 79.9069C105.025 80.3368 105.307 80.5728 105.644 80.6013C105.982 80.6298 106.367 80.4503 106.779 80.073C107.19 79.6958 107.62 79.1281 108.043 78.4025C108.466 77.6769 108.875 76.8075 109.245 75.844C109.615 74.8805 109.94 73.8418 110.201 72.7871C110.729 70.6572 110.964 68.5917 110.855 67.0449C110.746 65.4982 110.302 64.597 109.621 64.5394ZM109.084 66.711C109.261 66.726 109.401 66.8864 109.495 67.1831C109.589 67.4799 109.636 67.9071 109.632 68.4405C109.628 68.9739 109.574 69.6029 109.473 70.2917C109.372 70.9804 109.226 71.7155 109.043 72.4547C108.86 73.1941 108.644 73.9231 108.407 74.6004C108.169 75.2777 107.916 75.8899 107.661 76.402C107.406 76.9141 107.154 77.3161 106.92 77.5851C106.686 77.8541 106.474 77.9848 106.296 77.9697C106.118 77.9547 105.978 77.7943 105.884 77.4975C105.79 77.2008 105.743 76.7735 105.747 76.2401C105.751 75.7068 105.805 75.0778 105.906 74.389C106.007 73.7003 106.153 72.9652 106.336 72.2259C106.519 71.4866 106.736 70.7576 106.973 70.0803C107.21 69.403 107.463 68.7908 107.718 68.2787C107.973 67.7666 108.225 67.3646 108.46 67.0956C108.694 66.8266 108.906 66.6959 109.084 66.711Z" fill="white" fill-opacity="0.4"/>
<path d="M116.896 74.0032C115.796 75.513 115.486 78.0772 116.034 81.1317C116.582 84.1861 117.943 87.4806 119.818 90.2905C120.747 91.6819 121.774 92.9123 122.84 93.9117C123.906 94.911 124.991 95.6596 126.033 96.1148C127.075 96.57 128.053 96.7227 128.912 96.5644C129.77 96.406 130.493 95.9397 131.038 95.192C131.582 94.4444 131.939 93.43 132.087 92.2068C132.235 90.9836 132.171 89.5756 131.9 88.0631C131.629 86.5505 131.155 84.9632 130.505 83.3916C129.856 81.8201 129.044 80.2951 128.115 78.9038C126.24 76.0941 124.004 73.9993 121.9 73.0802C119.796 72.1612 117.996 72.4932 116.896 74.0032ZM118.808 76.8679C119.095 76.4739 119.507 76.2758 120.022 76.285C120.536 76.2942 121.142 76.5105 121.805 76.9216C122.468 77.3326 123.176 77.9304 123.887 78.6807C124.598 79.431 125.299 80.3192 125.95 81.2945C126.601 82.2698 127.189 83.3131 127.68 84.3649C128.172 85.4167 128.557 86.4564 128.815 87.4245C129.072 88.3927 129.196 89.2704 129.18 90.0075C129.164 90.7446 129.008 91.3266 128.721 91.7204C128.434 92.1144 128.021 92.3125 127.507 92.3033C126.993 92.2941 126.387 92.0778 125.724 91.6667C125.061 91.2556 124.353 90.6579 123.642 89.9076C122.931 89.1572 122.23 88.2691 121.579 87.2938C120.928 86.3185 120.34 85.2752 119.848 84.2234C119.357 83.1716 118.971 82.1319 118.714 81.1638C118.457 80.1956 118.333 79.318 118.349 78.5809C118.365 77.8438 118.521 77.2617 118.808 76.8679Z" fill="white" fill-opacity="0.4"/>
<path d="M137.829 53.4377C137.071 54.6089 136.858 56.5979 137.235 58.9672C137.612 61.3365 138.55 63.8921 139.842 66.0716C140.481 67.1509 141.188 68.1054 141.923 68.8805C142.657 69.6557 143.405 70.2364 144.122 70.5894C144.84 70.9425 145.514 71.061 146.105 70.9382C146.697 70.8154 147.194 70.4536 147.569 69.8737C147.944 69.2937 148.19 68.5069 148.292 67.558C148.394 66.6092 148.35 65.517 148.163 64.3438C147.976 63.1705 147.65 61.9393 147.203 60.7202C146.755 59.5012 146.196 58.3183 145.556 57.2391C144.265 55.0597 142.725 53.4347 141.276 52.7218C139.827 52.0089 138.587 52.2664 137.829 53.4377ZM139.146 55.6598C139.344 55.3542 139.628 55.2006 139.982 55.2077C140.336 55.2148 140.753 55.3827 141.21 55.7015C141.667 56.0204 142.154 56.484 142.644 57.066C143.134 57.648 143.617 58.337 144.065 59.0935C144.513 59.85 144.918 60.6594 145.257 61.4752C145.596 62.2911 145.861 63.0976 146.038 63.8485C146.215 64.5995 146.301 65.2803 146.29 65.8521C146.279 66.4238 146.171 66.8753 145.973 67.1808C145.776 67.4864 145.492 67.64 145.138 67.6329C144.783 67.6257 144.366 67.458 143.909 67.1391C143.452 66.8203 142.965 66.3566 142.475 65.7746C141.985 65.1926 141.503 64.5036 141.054 63.7471C140.606 62.9906 140.201 62.1813 139.862 61.3654C139.524 60.5495 139.258 59.7431 139.081 58.9921C138.904 58.2411 138.818 57.5604 138.83 56.9886C138.841 56.4169 138.948 55.9653 139.146 55.6598Z" fill="white" fill-opacity="0.4"/>
<path d="M127.891 11.805C124.575 12.064 123.781 15.3293 122.361 17.8479C123.6 24.209 125.923 31.0291 133.285 39.9855C129.295 39.264 125.664 36.8368 122.361 32.8386C125.656 42.5491 129.276 49.1686 133.258 52.3261C124.698 54.0937 120.323 47.2131 115.769 40.703C115.941 41.4475 115.988 42.1685 115.979 42.881C120.201 48.8608 131.643 57.2622 139.145 55.6602C135.6 52.7534 129.672 48.6825 126.738 39.7429C129.678 43.4236 133.404 42.269 136.955 42.9332C130.402 34.6879 125.511 23.97 124.408 18.1139C126.094 15.0222 125.306 12.9199 131.653 15.5739C147.205 29.8166 161.634 42.7824 176.011 75.0029C161.143 90.5936 147.313 95.9428 131.338 122.46C122.738 115.159 113.161 114.602 103.349 115.672C93.2784 119.867 94.5378 109.857 68.0494 131.861L54.8712 136.407C56.1045 121.058 60.4662 117.624 57.8851 82.3924C62.0712 69.2724 63.6463 82.8171 75.0657 34.9027C77.7958 24.3622 78.3056 25.0215 83.9402 23.6464C89.8761 33.2913 87.0967 55.4309 84.6438 70.9849C93.6837 67.0966 103.903 53.9325 105.635 46.4408C108.546 46.4408 111.604 56.6183 113.682 65.9572C114.202 57.4644 116.293 48.5252 115.929 43.8244C115.526 47.7034 113.141 51.3239 113.094 55.9522C110.834 50.6371 107.56 44.8807 104.384 44.8807C102.438 53.0183 98.1973 60.0615 88.0423 64.2851C90.7978 47.3899 93.2064 30.731 86.5383 20.2545C80.2087 21.7481 73.1116 20.8975 70.0447 32.3469C57.2168 84.3929 58.7418 69.6789 54.0394 83.9302C56.9388 122.2 52.5087 123.529 51.1233 140.202H61.7289C91.4846 116.3 90.5038 124.639 101.816 120.082C112.839 118.919 123.598 119.525 133.258 127.455C151.205 98.6512 166.739 92.8412 183.441 75.9062C167.291 40.9073 149.636 28.1576 132.164 12.6868C130.382 11.9661 128.996 11.7187 127.891 11.805ZM115.929 43.8244C115.962 43.5124 115.975 43.1971 115.979 42.881C115.913 42.7867 115.832 42.6883 115.769 42.5954C115.85 42.9581 115.895 43.3824 115.929 43.8244Z" fill="white" fill-opacity="0.4"/>
<path d="M199.096 49.137C205.537 35.157 212.062 21.2395 224.676 11.7886C216.34 19.283 210.019 17.1651 199.096 36.9875C191.804 29.5781 184.332 19.1018 177.256 15.3902C164.782 20.884 157.181 12.4402 148.346 7.526C155.994 13.7757 162.336 22.5177 173.132 22.7628C182.043 27.2912 191.116 29.089 199.096 49.137Z" fill="white" fill-opacity="0.4"/>
<path d="M252.125 97.7234C253.297 96.8587 254.529 96.0488 255.517 94.9818C255.858 94.6134 256.157 94.2115 256.477 93.8263C258 91.7568 259.621 89.7531 261.064 87.6305C261.924 86.3652 262.769 85.0028 263.584 83.7128C265.372 80.6871 267.298 77.7332 268.906 74.6133C270.029 72.4341 270.238 71.8501 271.219 69.5922C273.418 64.0826 275.228 58.4365 277.004 52.792C278.166 49.1597 278.991 45.4426 279.65 41.7004C279.803 40.8319 279.966 39.9643 280.076 39.0901C280.194 38.1552 280.249 37.214 280.335 36.2759C280.716 31.839 281.005 27.3959 281 22.9435C280.947 21.755 281.004 20.5496 280.696 19.3853C280.176 17.416 280.653 19.595 280.065 17.8277C280.017 17.6834 280.031 17.5266 280.014 17.376L277.932 16.3822C277.938 16.5299 277.977 16.6804 277.947 16.8254C277.716 17.9368 277.683 16.5537 277.659 17.9538C277.638 19.1531 278.029 20.3192 278.044 21.5169C278.292 26.017 278.187 30.5396 277.837 35.032C277.6 37.1058 277.477 38.3851 277.154 40.4359C276.564 44.1864 275.681 47.8888 274.594 51.5357C272.852 57.1765 271.026 62.8056 268.761 68.278C267.939 70.1207 267.368 71.4766 266.438 73.2676C264.824 76.3764 262.852 79.2993 261.007 82.284C260.26 83.4094 259.199 85.0282 258.406 86.1392C256.915 88.2264 255.268 90.2072 253.658 92.2101C252.82 93.1077 252.642 93.3579 251.742 94.1161C250.951 94.7825 250.037 95.3328 249.364 96.1202L252.125 97.7234Z" fill="white" fill-opacity="0.4"/>
<path d="M242.726 0C229.825 44.2601 228.79 79.1311 175.709 122.539C79.433 188.682 1.70151 168.863 -53 123.528C16.6877 189.031 95.713 191.875 183.957 132.861C190.838 126.865 196.925 120.817 202.474 114.741C202.485 114.727 202.5 114.712 202.512 114.698C202.547 114.657 202.583 114.617 202.624 114.576C232.267 82.0495 244.54 48.6288 256.634 16.8644L242.726 0Z" fill="white" fill-opacity="0.4"/>
</svg>
