<svg width="330" height="716" viewBox="0 0 330 716" fill="none" xmlns="http://www.w3.org/2000/svg">
<g clip-path="url(#clip0_146_6)">
<path d="M119.492 335.908C111.989 344.828 104.787 354.025 96.4668 362.221C92.884 365.829 89.4168 369.312 85.8535 372.854C84.9027 375.324 83.8695 377.762 82.7363 380.15C80.7666 384.244 81.0905 383.844 78.9355 387.41C77.8034 389.284 76.6145 391.335 74.5762 392.334L69.8613 389.312C66.855 392.786 64.0048 396.392 61.4199 400.211C58.4085 405.147 55.8495 409.004 53.4434 414.271C50.8813 419.881 49.1323 425.837 48.0098 431.902C49.0599 435.577 50.087 439.259 51.2559 442.895C53.0579 448.351 55.0599 453.736 56.9121 459.174L60.4707 460.549C57.294 458.002 55.7323 453.768 55.041 449.875C54.7314 448.131 54.6571 446.353 54.4649 444.592C54.5659 442.541 54.5492 440.479 54.7676 438.436C55.8027 428.75 58.8621 419.355 63.4043 410.754C64.6696 408.359 66.1686 406.094 67.5508 403.764C73.8008 394.384 81.7771 386.393 89.6797 378.43C94.9734 373.096 97.006 371.099 102.334 365.814C107.708 359.928 109.201 358.562 114 352.238C114.079 352.134 114.157 352.03 114.236 351.926C114.386 351.458 114.274 351.827 114.443 351.293C115.419 348.22 116.157 345.067 117.295 342.051C118.053 340.039 119.009 338.108 119.916 336.156L119.492 335.908Z" fill="white" fill-opacity="0.4"/>
<path d="M130.699 314.982C128.629 318.884 123.301 328.838 121.473 332.654C119.992 335.745 118.504 338.844 117.295 342.051C116.157 345.067 115.419 348.22 114.443 351.293C109.654 366.375 113.21 354.293 109.143 368.58C108.496 371.264 107.733 373.924 107.201 376.633C106.698 379.194 106.367 381.788 106.041 384.377C104.793 394.281 104.481 404.267 104.035 414.229C103.813 422.023 103.932 419.682 103.518 427.305C103.167 433.775 102.756 440.293 100.809 446.521C99.8346 449.562 99.9371 449.382 98.8692 452.219C98.2102 453.971 97.6236 455.91 96.3906 457.359L100.172 459.846C101.108 457.696 102.067 455.559 103.312 453.582C105.13 450.698 108.015 448.528 109.58 445.5C109.765 445.142 109.84 444.738 109.994 444.367C110.884 435.481 110.518 426.481 110.553 417.562C110.612 404.926 110.947 392.226 113.09 379.74C113.559 377.008 114.192 374.308 114.744 371.592C116.402 365.75 117.704 359.812 119.342 353.965C120.212 350.858 121.235 347.795 122.131 344.695C125.083 334.476 124.683 334.601 128.158 324.518C129.209 321.47 130.408 318.476 131.533 315.455L130.699 314.982Z" fill="white" fill-opacity="0.4"/>
<path d="M-7.16016 450.652C-5.87054 453.356 -4.49478 456.02 -3.29102 458.764C1.54937 469.795 -3.00658 461.884 3.02735 471.32C5.04505 473.854 7.87627 477.773 10.7305 479.783C12.6945 479.824 14.651 479.983 16.6094 480.117C15.0844 478.663 14.1331 477.529 11.8379 475.047C9.34709 471.84 2.68655 463.341 0.898436 460.625C-0.904355 457.886 -2.3547 454.931 -3.98046 452.084L-7.16016 450.652Z" fill="white" fill-opacity="0.4"/>
<path d="M38.4473 467.475C39.757 469.207 41.0653 470.938 42.375 472.67C43.652 474.541 47.6359 480.32 48.8457 482.318C51.1993 486.204 52.9662 490.404 54.9941 494.459L62.5332 497.949C61.7077 496.112 60.8942 494.27 60.0918 492.424C59.2618 490.415 58.4411 488.402 57.6172 486.391C57.5626 486.308 57.5077 486.225 57.4531 486.143C56.3415 484.464 55.2525 482.764 54.002 481.186C52.4407 479.217 50.6866 477.408 49.0293 475.518C47.0848 473.506 45.1418 471.492 43.1973 469.48L38.4473 467.475Z" fill="white" fill-opacity="0.4"/>
<path d="M-11.0391 381.908C-8.48911 383.364 -5.90982 384.765 -3.39062 386.273C0.201609 388.423 6.48961 392.533 9.9668 394.902C13.7765 397.498 17.4574 400.049 20.9297 403.088C22.3233 404.307 23.5843 405.67 24.9121 406.961C25.8808 408.158 26.9061 409.311 27.8184 410.551C29.6374 413.023 30.2317 414.307 31.7051 416.883C32.1675 417.691 32.6894 418.466 33.1094 419.297C33.524 420.118 33.6425 421.073 34.1992 421.832L36.5078 422.934C36.4126 422.55 36.2902 422.103 36.2109 421.785C35.5776 417.836 34.5278 413.988 33.4785 410.141C23.9781 400.834 12.1555 394.527 0.763678 387.877C-1.53662 386.534 -3.81804 385.159 -6.10937 383.801L-11.0391 381.908Z" fill="white" fill-opacity="0.4"/>
<path d="M112.467 214.889C110.457 218.508 108.709 222.286 106.436 225.746C103.999 229.454 101.066 232.812 98.373 236.338C95.5751 240.002 92.7623 243.653 89.9629 247.316C78.7365 262.005 84.8882 254.312 73.4395 268.109C65.8048 276.075 66.7327 275.258 59.4727 282.326C58.5562 283.218 57.6285 284.103 56.7051 284.99C56.1375 286.2 55.5108 287.378 54.6367 288.387L53.748 287.836C47.5388 293.803 41.3934 299.852 36.2559 306.793C34.8095 308.958 33.2703 311.064 31.916 313.287C29.2046 317.739 28.0626 320.144 26.4609 324.107C26.4619 324.333 26.4659 324.558 26.4669 324.783C26.4816 324.857 26.489 324.932 26.504 325.006C27.2871 334.834 28.23 344.663 29.8048 354.398C30.3415 357.563 31.0875 360.684 31.7208 363.828L33.9591 364.848C33.9671 364.268 33.9927 363.728 33.8868 363.145C33.7908 362.616 33.6225 362.102 33.4903 361.582C33.3137 360.866 33.0914 360.16 32.961 359.434C32.4184 356.414 32.3166 354.202 32.0509 351.074C32.1095 349.141 32.0207 347.198 32.2267 345.275C33.2146 336.058 36.9446 326.782 41.5724 318.82C42.863 316.6 44.3578 314.506 45.7501 312.348C52.1971 303.214 60.4747 295.628 68.3849 287.807C70.4758 285.74 72.7128 283.804 74.6173 281.564C76.9873 278.777 78.9895 275.696 81.1759 272.762C88.5476 261.595 95.6035 250.219 101.983 238.451C104.085 234.573 105.895 230.537 108.074 226.701C110.121 223.097 112.458 219.666 114.65 216.15L112.467 214.889Z" fill="white" fill-opacity="0.4"/>
<path d="M99.6953 249.168C97.7283 252.035 95.7604 254.902 93.793 257.768C92.1968 260.563 90.4099 263.255 89.0039 266.15C83.4073 277.672 82.0259 289.579 82.4043 302.203C82.7542 314.542 83.2458 326.916 82.332 339.242C82.0994 341.304 81.9214 343.373 81.6328 345.428C80.2126 355.538 77.439 365.402 73.0976 374.656C70.892 378.799 68.8614 383.158 65.4707 386.496L74.5761 392.334C76.6144 391.335 77.8033 389.284 78.9355 387.41C81.0905 383.844 80.7666 384.244 82.7363 380.15C87.1288 370.891 90.156 360.951 91.7832 350.83C92.1143 348.771 92.318 346.692 92.5859 344.623C93.9191 332.245 93.0442 319.797 92.6699 307.395C92.4253 297.99 92.9668 288.563 94.7969 279.32C95.1751 277.41 98.7915 262.24 99.1445 260.752C100.122 257.341 101.1 253.928 102.078 250.516L99.6953 249.168Z" fill="white" fill-opacity="0.4"/>
<path d="M44.7285 358.438C44.024 362.48 43.4129 366.541 42.6133 370.566C37.6559 395.521 42.3841 367.841 38.5703 391.17C38.4765 391.849 38.3859 392.485 38.291 393.145C39.5339 398.279 40.5976 403.451 41.8574 408.582C42.6495 411.247 43.2564 413.956 43.9141 416.652L48.332 418.545C47.2058 415.706 46.7582 412.592 46.4219 409.574C45.6749 402.869 45.8535 402.357 45.6777 394.84C46.0445 389.171 46.5744 378.638 47.5762 373.199C48.301 369.264 49.5764 365.45 50.5762 361.576L44.7285 358.438Z" fill="white" fill-opacity="0.4"/>
<path d="M-4.30664 369.889C-1.85306 373.792 -1.40043 374.986 1.89649 378.299C6.53161 382.957 12.253 386.313 17.5586 390.111C19.3204 391.419 20.1692 391.975 21.7383 393.395C22.9921 394.53 24.0157 395.842 25.1836 397.053C25.4478 397.327 25.7399 397.574 26.0176 397.834L30.8965 399.889C30.6357 398.736 30.3451 397.59 30.0723 396.439C28.9895 395.493 27.8309 394.609 26.627 393.713C18.4179 388.316 10.0809 383.018 2.98438 376.15C1.25117 374.473 -0.322501 372.641 -1.97656 370.885L-4.30664 369.889Z" fill="white" fill-opacity="0.4"/>
<path d="M2.5957 311.283C3.3836 312.959 4.28562 314.586 4.95898 316.311C5.40075 317.443 7.72044 325.382 8.06054 326.533C8.50014 328.182 9.0078 329.814 9.3789 331.48C10.4473 336.278 10.4908 341.227 11.7051 345.988L19.9414 350.195C19.9919 349.903 20.0391 349.637 20.082 349.379C20.0003 348.251 19.8697 347.128 19.7617 346.002L17.9023 345.131C16.8592 341.711 17.0337 338.071 17.1758 334.545C17.213 333.62 17.2942 333.299 17.332 332.576C17.109 331.922 16.8833 331.268 16.6699 330.611C10.6344 317.972 17.3948 331.759 10.4824 318.836C9.58702 317.162 8.8078 315.429 7.9707 313.725L2.5957 311.283Z" fill="white" fill-opacity="0.4"/>
<path d="M-12.8652 260.51C-9.19424 264.579 -7.25793 266.578 -3.85742 270.969C-2.461 272.772 -1.19625 274.673 0.156246 276.51C5.88115 284.282 2.62101 279.376 7.31836 286.887C8.04646 288.181 8.80581 289.459 9.50391 290.77C11.4388 294.403 12.8702 298.334 15.3359 301.664L18.4199 303.057C18.4342 302.895 18.4159 302.732 18.4316 302.57C18.4614 302.273 18.5196 301.978 18.5566 301.682C18.515 299.736 18.4703 297.79 18.4512 295.844C18.4378 295.152 18.437 294.461 18.4238 293.77C17.8998 292.884 17.3743 291.999 16.8417 291.121C15.3801 289.133 10.104 281.86 8.53704 280.113C6.40435 277.737 4.03736 275.584 1.76361 273.342C-3.1442 268.502 -5.69573 266.11 -10.5743 261.463L-12.8652 260.51Z" fill="white" fill-opacity="0.4"/>
<path d="M42.5059 252.592C40.7236 256.23 38.9404 259.87 37.1582 263.508C34.9226 267.162 32.3752 270.641 30.4531 274.469C28.6675 278.025 27.4319 281.836 26.0781 285.578C26.0091 285.769 25.9437 285.97 25.875 286.162C25.9535 290.69 26.0138 295.217 26.1523 299.744C26.2139 301.164 26.1788 302.583 26.2128 304.002C27.141 298.507 28.3724 293.062 29.9707 287.701C31.1139 283.867 32.5853 280.137 33.7968 276.324C35.1224 272.151 36.3191 267.939 37.58 263.746C39.362 260.108 41.1438 256.468 42.9257 252.83L42.5059 252.592ZM18.0586 323.43C17.5797 327.925 17.386 329.325 17.1758 334.545C17.0337 338.071 16.8592 341.711 17.9023 345.131L19.7617 346.002C19.4572 342.827 19.1119 339.655 18.8633 336.477C18.7318 334.797 18.6767 333.11 18.5723 331.428C18.4621 329.652 18.3383 327.876 18.2207 326.1C18.1669 325.21 18.1127 324.32 18.0586 323.43Z" fill="white" fill-opacity="0.4"/>
<path d="M94.4004 164.227C92.6617 167.893 91.2389 170.977 90.7285 172.166C92.7488 169.982 94.941 167.945 96.9824 165.779L94.4004 164.227ZM84.5254 175.125C82.3838 176.778 80.0194 178.148 77.6426 179.504C77.2734 180.217 76.9354 180.946 76.5586 181.654C74.66 184.298 72.1782 188.075 69.623 190.131C68.2892 191.205 66.8179 191.69 65.2051 192.066L62.5469 190.244C61.2969 191.096 60.0417 191.94 58.8027 192.807C54.1298 196.077 50.1246 199.061 45.5899 202.514C40.741 206.205 38.2212 207.982 33.957 212.229C32.3188 213.86 30.8382 215.644 29.2793 217.352C28.214 218.797 27.1187 220.222 26.0703 221.68C25.9567 224.165 25.8392 226.649 25.7383 229.135C25.4896 235.049 25.4473 240.968 25.3672 246.887C26.4881 242.366 28.1385 237.989 30.3516 233.836C33.2081 228.476 34.3468 227.341 37.9687 222.502C44.438 214.952 52.1401 208.614 60.0566 202.652C62.2417 201.006 64.5233 199.49 66.6797 197.807C69.1973 195.842 71.6097 193.745 74.0742 191.713C77.3758 188.977 79.1312 187.58 80.291 186.66C80.3642 186.451 80.4344 186.242 80.5078 186.033C81.5879 182.965 82.7252 179.915 83.834 176.857C84.0728 176.259 84.2932 175.713 84.5254 175.125ZM18.2676 235.252C18.0992 235.627 17.929 236.001 17.7676 236.379C17.8057 238.996 17.7524 241.614 17.5137 244.223L15.3359 243.141C14.6151 245.705 14.3031 247.773 13.7363 250.816C13.6354 252.231 13.4175 253.643 13.4336 255.061C13.4669 258.001 14.6414 262.548 16.3809 265.016C16.6721 265.429 17.0775 265.747 17.4258 266.113L18.168 266.404C18.139 261.06 18.1195 255.715 18.1446 250.371C18.0577 245.33 18.1425 240.291 18.2676 235.252ZM25.2734 266.965C25.2838 267.719 25.3423 268.472 25.3574 269.227L26.3965 269.635C25.9778 268.767 25.6094 267.872 25.2734 266.965Z" fill="white" fill-opacity="0.4"/>
<path d="M106.645 136.842C102.69 142.086 99.557 146.039 96 151.598C94.3262 154.213 92.705 156.87 91.2598 159.619C88.2363 165.369 86.2383 170.835 83.834 176.857C82.7252 179.915 81.5879 182.965 80.5078 186.033C78.3449 192.178 76.2922 198.362 74.1387 204.51C72.8268 208.256 69.7223 216.852 68.5078 220.869C67.8623 223.004 67.3672 225.181 66.7969 227.338C63.5002 240.241 60.4866 253.248 56.1543 265.855C55.4409 267.655 54.7825 269.477 54.0137 271.254C53.4196 272.627 52.7294 273.957 52.0684 275.299C50.6268 278.226 49.1113 281.133 47.1191 283.73L54.6367 288.387C56.1129 286.684 56.9249 284.512 57.8399 282.484C58.3088 281.444 58.8244 280.423 59.2305 279.357C60.7356 275.408 61.0908 273.457 62.1934 269.174C62.747 266.945 63.2681 264.707 63.8535 262.486C65.523 256.151 65.8575 255.515 67.6289 249.273C69.3965 243.044 71.0343 236.78 72.6562 230.512C73.1691 228.323 73.699 226.136 74.1953 223.943C76.1987 215.092 75.7497 215.976 78.4024 206.846C81.1336 197.446 84.4949 188.267 87.8262 179.068C93.382 165.863 89.4629 174.814 95.459 161.996C99.105 154.2 99.5179 152.848 103.506 145.234C104.872 142.625 106.343 140.074 107.762 137.494L106.645 136.842Z" fill="white" fill-opacity="0.4"/>
<path d="M-5.26367 178.643C-4.71371 180.541 -4.16324 182.438 -3.61328 184.336C-1.91318 189.141 -0.329854 193.987 1.42774 198.771C2.38395 201.374 3.52414 203.908 4.44532 206.523C6.54065 212.473 8.16777 218.555 8.23047 224.902C8.25987 226.199 8.28887 227.496 8.31837 228.793C8.33907 229.932 8.35667 231.072 8.38087 232.211C8.42707 234.387 8.39897 236.625 8.72072 238.787C8.78042 239.188 8.88992 239.58 8.97462 239.977L17.5137 244.223C17.9599 239.348 17.8135 234.438 17.4825 229.562C17.2069 227.812 17.0498 226.039 16.6544 224.311C15.4261 218.942 13.9016 215.139 11.8165 209.975C10.7377 207.303 9.66278 204.627 8.44928 202.014C6.29279 197.37 2.62571 190.639 0.191469 186.076C-1.1632 183.81 -2.51831 181.543 -3.87298 179.277L-5.26367 178.643Z" fill="white" fill-opacity="0.4"/>
<path d="M2.63086 247.078C3.26919 248.681 4.0223 250.243 4.54493 251.887C4.95316 253.172 5.06427 254.535 5.41407 255.836C6.02267 258.101 6.98033 260.28 7.45313 262.588L15.1562 266.143C13.9941 263.689 13.0452 261.113 11.7109 258.742C10.7521 257.038 9.59025 255.453 8.62305 253.754C7.66165 252.064 6.82739 250.306 5.92969 248.582L2.63086 247.078Z" fill="white" fill-opacity="0.4"/>
<path d="M84.1152 144.26C83.1462 146.21 82.1965 148.169 81.209 150.109C80.223 152.047 79.1175 153.926 78.1953 155.895C77.2754 157.859 76.5718 159.918 75.6875 161.898C73.4326 166.947 70.8438 171.849 67.6348 176.363C65.2756 179.423 63.5166 181.824 60.4805 184.26C59.9207 184.709 59.3563 185.16 58.7363 185.521C58.1286 185.876 57.3881 185.953 56.7676 186.283L65.2051 192.066C66.8179 191.69 68.2891 191.205 69.623 190.131C72.1782 188.075 74.66 184.298 76.5586 181.654C79.1947 176.698 81.6679 171.64 83.6309 166.373C84.4026 164.303 85.2224 162.239 85.7461 160.092C86.779 155.859 87.0911 150.388 87.4688 146.084L84.1152 144.26Z" fill="white" fill-opacity="0.4"/>
<path d="M123.102 89.4844C114.806 100.632 119.103 95.1466 110.205 105.939C104.596 111.341 102.036 114.093 96.0098 118.836C87.1871 125.779 77.284 131.023 66.9473 135.33C64.3087 136.465 61.6651 137.616 59.0332 138.797C58.87 140.714 58.7832 142.637 58.5547 144.549C62.9553 142.427 67.4358 140.487 71.8145 138.57C82.1991 134.249 92.2126 129.252 100.816 121.881C103.097 119.927 105.363 117.921 107.303 115.629C109.417 113.13 111.051 110.26 112.924 107.576C120.285 95.8181 116.754 101.768 123.52 89.7285L123.102 89.4844ZM51.8984 142.135C45.7327 145.188 39.7945 148.642 34.4141 152.916C33.5631 156.708 32.7443 160.507 31.9727 164.316C32.7243 163.344 33.5433 162.354 34.5781 161.041C36.0017 159.643 37.3385 158.15 38.8496 156.848C44.3765 152.083 50.7806 148.38 57.4024 145.123L51.8887 142.188C51.8917 142.17 51.8954 142.152 51.8984 142.135ZM24.8828 162.311C23.9911 163.38 23.1371 164.478 22.418 165.646C21.81 166.635 21.3876 167.73 20.9727 168.814C20.3577 170.422 19.974 172.118 20.3477 173.82L23.1758 175.258C23.7208 171.555 24.2476 167.85 24.8711 164.16C24.993 163.605 25.118 163.05 25.2363 162.494L24.8828 162.311Z" fill="white" fill-opacity="0.4"/>
<path d="M34.4355 182.539C30.5743 191.273 32.8629 187.159 27.6172 194.902C27.5548 195.008 27.4905 195.117 27.4277 195.223C27.2567 197.116 27.0636 199.006 26.9941 200.908C26.6282 206.659 26.4493 212.42 26.2266 218.178L27.248 218.717C27.3932 218.312 27.5726 217.916 27.6836 217.5C28.4427 214.655 28.7889 211.74 29.6758 208.916C31.1254 204.301 31.8565 203.121 33.9609 198.527C38.2852 190.235 35.5145 194.036 42.3984 187.221L34.4355 182.539Z" fill="white" fill-opacity="0.4"/>
<path d="M8.02539 106.031C12.5467 116.023 10.4327 110.918 14.2734 121.125C14.4852 121.688 14.6958 122.252 14.9082 122.814C14.9326 122.38 14.9372 121.943 15.0449 121.518C15.3763 120.211 16.0601 118.74 16.8164 117.301C15.0897 114.061 13.3194 110.847 11.5723 107.637L8.02539 106.031ZM15.2031 123.604C17.3895 129.408 19.5236 135.244 20.6387 141.373C20.8698 143.083 21.1705 144.784 21.332 146.502C21.334 146.523 21.6994 154.279 21.7129 154.762C21.7548 156.262 21.6265 157.766 21.6953 159.266C21.7182 159.765 21.8177 160.258 21.8789 160.754L25.2363 162.494C25.5036 161.238 25.763 159.98 26.0625 158.73C26.9464 155.045 27.9284 151.383 28.9004 147.719C28.7522 146.912 28.5977 146.081 28.4394 145.195C26.7066 138.286 24.0225 131.73 20.9336 125.35C20.8888 125.48 20.8264 125.604 20.7871 125.736C20.7218 125.955 20.7052 126.187 20.664 126.412L15.2031 123.604Z" fill="white" fill-opacity="0.4"/>
<path d="M8.52734 166.498C10.1296 181.947 8.19732 163.735 9.76171 177.363C10.1266 180.541 10.145 183.825 11.0879 186.904L17.9785 190.396C18.3739 188.518 17.8468 186.538 17.502 184.699C16.9862 181.949 16.1964 177.821 15.2461 175.346C14.2857 172.845 12.9761 170.491 11.8418 168.064L8.52734 166.498Z" fill="white" fill-opacity="0.4"/>
<path d="M148.439 608.92C148.816 609.673 149.183 610.432 149.613 611.154C149.925 611.336 150.24 611.534 150.553 611.713C154.364 614.203 157.949 616.998 161.277 620.111C163.049 621.702 165.274 623.213 165.982 625.604L157.766 621.918C158.836 622.994 159.909 624.069 160.975 625.15C165.614 629.745 170.07 634.529 175.018 638.801C175.819 639.529 176.633 640.242 177.42 640.984C180.238 643.642 179.528 643.03 179.867 643.42C181.774 644.464 183.703 645.465 185.621 646.488C186.171 646.852 186.748 647.178 187.27 647.58C188.863 648.804 190.109 650.474 191.289 652.078L187.471 650.441C187.474 650.444 187.478 650.446 187.481 650.449C190.034 652.748 192.621 655.012 195.301 657.158C195.799 656.557 196.304 655.962 196.862 655.418L206.942 661.444C206.388 662.428 205.724 663.319 205.045 664.197C205.553 664.547 206.002 664.883 206.602 665.283C215.201 671.016 224.282 676.016 233.477 680.723C239.99 683.813 246.548 686.813 253.268 689.432C256.006 690.591 258.709 691.786 261.352 693.154C262.26 693.624 264.935 695.13 264.055 694.608C261.949 693.359 230.462 675.172 268.485 697.145C268.713 697.292 268.943 697.439 269.172 697.586C272.532 699.896 275.795 702.36 279.311 704.432C284.481 707.406 289.643 710.394 294.821 713.352C295.817 713.922 296.9 714.472 298.006 714.801C298.623 714.984 298.787 714.965 299.399 715.01L296.365 712.748C296.354 712.74 296.346 712.741 296.334 712.733C291.54 710.293 291.247 710.048 287.623 707.11C286.603 706.312 285.596 705.499 284.584 704.692C280.135 702.171 278.676 701.452 277.596 700.811C277.484 700.911 277.373 701.055 277.26 700.994C273.608 699.029 270.071 696.854 266.514 694.721C266.314 694.601 266.18 694.393 266.002 694.242C265.713 693.995 265.417 693.758 265.114 693.528C264.336 692.936 263.884 692.628 263.377 692.297C261.959 691.468 260.539 690.642 259.119 689.815C257.972 689.051 256.854 688.246 255.746 687.424C254.871 686.889 253.981 686.377 253.1 685.852C252.849 685.803 252.596 685.773 252.346 685.719C250.209 685.013 248.078 684.298 245.916 683.672C243.323 682.987 240.857 681.914 238.436 680.776C233.389 678.312 228.593 675.289 223.807 672.405C223.683 672.33 223.523 672.214 223.352 672.078C222.944 671.914 222.544 671.73 222.158 671.504C221.79 671.288 221.804 671.318 221.463 671.121C221.437 671.109 221.41 671.097 221.383 671.084C221.374 671.08 221.366 671.075 221.358 671.07C221.337 671.057 221.307 671.037 221.276 671.018C213.066 666.305 212.21 666.825 207.955 662.057C207.444 661.424 206.79 660.633 206.309 659.967C206.243 659.875 206.175 659.77 206.106 659.672C204.352 658.653 202.601 657.628 200.858 656.592C200.301 656.26 199.8 655.842 199.278 655.457C197.892 654.432 197.83 654.355 196.545 653.303C195.679 652.496 194.252 651.417 194.453 650.069C194.284 649.875 194.108 649.687 193.936 649.496C193.659 649.122 193.322 648.656 193.039 648.16C192.355 647.811 191.733 647.382 190.383 646.492L189.825 646.262C189.757 646.177 189.698 646.085 189.631 646C188.438 645.226 186.792 644.183 184.354 642.701C184.155 642.58 184.05 642.346 183.918 642.153C183.785 641.957 183.685 641.775 183.598 641.596C182.595 640.977 181.592 640.36 180.58 639.756C180.213 638.939 179.497 638.031 179.782 637.1C178.767 636.438 177.572 635.662 175.903 634.598C175.577 634.391 175.384 634.027 175.127 633.74C174.409 632.939 173.721 632.129 173.061 631.28C172.871 630.97 172.381 630.43 172.713 629.979C172.859 629.781 173.091 629.614 173.311 629.479C166.991 624.576 161.078 619.181 155.145 613.824C153.79 612.607 152.479 611.343 151.153 610.094L148.439 608.92ZM181.689 639.305C181.669 639.435 181.649 639.567 181.664 639.697C181.668 639.735 181.772 639.708 181.773 639.67C181.776 639.546 181.736 639.422 181.689 639.305ZM262.59 693.617C261.833 693.175 264.116 694.479 264.873 694.922C265.257 695.147 265.636 695.38 266.018 695.609C264.874 694.948 263.731 694.283 262.59 693.617ZM267.559 694.734C267.562 694.756 267.558 694.779 267.563 694.801C267.586 694.913 267.742 694.94 267.916 694.943C267.797 694.874 267.678 694.804 267.559 694.734Z" fill="white" fill-opacity="0.4"/>
<path d="M145.473 600.316C145.538 600.55 145.591 600.785 145.65 601.02C147.478 602.961 149.274 604.931 151.078 606.893C152.414 608.438 153.983 609.886 154.914 611.723L151.152 610.094C152.478 611.342 153.789 612.606 155.145 613.824C161.078 619.181 166.991 624.576 173.311 629.479C173.395 629.427 173.453 629.284 173.539 629.287C173.583 629.288 173.628 629.299 173.672 629.32C175.604 630.249 177.464 631.316 179.299 632.428C178.844 630.938 178.465 629.421 178.053 627.867C174.766 625.037 171.548 622.126 168.336 619.211C163.786 615.045 159.526 610.576 155.186 606.195C153.768 604.804 152.146 603.659 150.6 602.42L145.473 600.316ZM188.072 635.934C189.094 637.856 190.176 639.754 191.379 641.58C191.878 641.898 192.41 642.233 193 642.602C193.272 642.771 193.465 643.041 193.684 643.277C194.639 643.838 195.595 644.398 196.551 644.957C197.68 645.219 198.792 645.552 199.879 645.961C200.472 644.722 200.43 644.96 200.6 644.549C196.32 641.833 192.148 638.956 188.072 635.934ZM208.977 649.316C208.787 649.765 208.663 650.107 208.488 650.496C210.697 651.787 212.907 653.075 215.115 654.367C215.997 654.7 216.872 655.047 217.742 655.408C217.771 655.421 219.467 656.132 219.648 656.234C223.105 658.199 226.541 660.198 229.982 662.188C231.949 663.216 233.867 664.366 235.572 665.422C235.843 665.551 236.124 665.71 236.408 665.879C236.56 665.905 236.714 665.922 236.865 665.953C237.551 666.096 238.641 666.413 239.271 666.787C239.339 666.827 239.405 666.868 239.473 666.908C239.579 666.938 239.687 666.961 239.793 666.992C239.983 667.047 241.015 667.383 241.561 667.59C241.934 667.331 242.337 667.13 242.352 667.127C242.353 667.127 242.355 667.127 242.356 667.127C241.101 666.388 240.258 665.697 240.678 665.752C241.003 665.795 242.082 666.299 244.209 667.543C246.518 668.169 248.796 668.9 251.041 669.727C254.367 670.992 257.62 672.441 260.859 673.912C262.366 674.327 263.884 674.697 265.424 674.982C266.378 675.207 267.335 675.444 268.287 675.697C268.529 675.572 268.733 675.481 269.07 675.67C269.413 675.862 269.739 676.036 270.078 676.223C271.262 676.603 272.423 677.044 273.524 677.633C278.857 680.717 284.301 683.658 289.422 687.1C290.047 687.545 290.569 687.902 291.168 688.385C292.061 689.105 292.889 689.903 293.764 690.645C301.233 694.921 300.037 694.166 304.399 696.852C305.53 697.57 306.628 698.335 307.703 699.135C308.281 699.565 308.843 699.989 309.356 700.494C309.326 700.574 309.291 700.683 309.264 700.777C309.329 700.844 309.406 700.908 309.467 700.975C309.516 700.983 309.566 700.994 309.615 701C309.806 701.024 310.024 700.946 310.19 701.043C310.909 701.46 311.572 701.818 312.229 702.172C312.253 702.145 312.281 702.123 312.307 702.098C313.018 702.516 313.741 702.917 314.461 703.322C323.666 707.83 325.529 705.85 324.311 709.096C324.56 709.264 324.812 709.427 325.059 709.6C326.467 709.995 327.879 710.382 329.322 710.621L318.816 702.502C316.733 701.615 314.604 700.847 312.451 700.147C311.109 699.703 309.805 699.161 308.522 698.574C307.016 697.63 305.554 696.726 304.582 696.092C300.031 692.993 295.436 689.962 290.83 686.945C283.199 681.714 275.099 677.263 267.096 672.631C263.975 670.873 260.758 669.308 257.428 667.992C253.974 666.767 250.507 665.572 246.982 664.568C242.124 663.258 237.33 661.755 232.592 660.063C226.117 657.861 219.917 654.986 213.816 651.918C212.197 651.062 210.591 650.182 208.977 649.316ZM309.467 700.975C309.382 700.962 309.297 700.948 309.213 700.934C309.206 700.959 309.195 700.982 309.188 701.008C309.413 701.175 309.633 701.338 309.902 701.533C309.783 701.352 309.64 701.164 309.467 700.975ZM244.209 667.543C243.852 667.446 243.496 667.345 243.137 667.254C242.876 667.212 242.613 667.071 242.356 667.127C243.011 667.513 243.742 667.906 244.541 668.225C245.257 668.512 245.977 668.788 246.697 669.062C245.808 668.513 244.876 667.933 244.209 667.543ZM310.07 702.051C309.932 702.22 309.848 702.327 309.746 702.453C309.768 702.466 309.79 702.478 309.812 702.49C309.91 702.446 310.02 702.4 310.082 702.359C310.137 702.323 310.151 702.305 310.186 702.277C310.186 702.212 310.176 702.143 310.158 702.072C310.124 702.067 310.104 702.057 310.07 702.051Z" fill="white" fill-opacity="0.4"/>
<path d="M267.414 679.928C267.674 680.079 267.93 680.235 268.189 680.387C268.93 680.558 269.688 680.724 270.338 680.9C270.264 680.865 270.191 680.827 270.117 680.791C269.88 680.687 269.642 680.583 269.404 680.479C268.737 680.308 268.074 680.124 267.414 679.928ZM263.432 682.648C262.688 682.686 261.942 682.71 261.207 682.826C261.492 683.003 261.783 683.183 262.162 683.418C262.46 683.285 262.756 683.149 263.07 683.064C263.322 682.996 263.604 683.005 263.867 682.963C263.714 682.858 263.57 682.754 263.432 682.648ZM277.35 687.025C277.758 687.268 278.977 688.015 279.553 688.367C279.289 687.998 279.014 687.637 278.717 687.293C278.263 687.192 277.807 687.1 277.35 687.025ZM277.176 691.197C277.162 691.304 277.107 691.395 277.086 691.5C277.16 691.528 277.236 691.552 277.311 691.58C277.264 691.453 277.22 691.325 277.176 691.197ZM266.797 691.34C266.794 691.344 266.792 691.349 266.789 691.354C267.144 691.552 267.869 691.969 267.601 691.811C267.334 691.652 267.065 691.498 266.797 691.34ZM268.131 691.984C268.025 691.964 267.956 692.032 267.9 692.168C267.987 692.192 268.073 692.219 268.16 692.244C268.298 692.26 268.436 692.275 268.574 692.291C268.403 692.146 268.231 692.004 268.131 691.984ZM290.064 692.199C290.498 692.735 290.901 693.295 291.279 693.871C293.71 694.889 296.114 695.966 298.418 697.252C299.85 698.003 300.461 698.337 301.91 699.041C303.637 699.878 305.398 700.634 307.154 701.404C306.813 701.209 306.471 701.014 306.131 700.816C295.591 694.694 297.616 696.064 294.473 694.004C292.997 693.416 291.529 692.815 290.064 692.199ZM268.832 692.52C268.748 692.69 268.64 692.851 268.559 693.023C269.472 693.57 270.376 694.131 271.273 694.705C270.11 693.727 269.324 692.977 268.832 692.52ZM297.072 694.43C297.07 694.432 297.07 694.434 297.068 694.436C298.273 695.135 298.827 695.469 300.584 696.465C301.148 696.784 299.471 695.798 298.91 695.473C298.298 695.118 297.687 694.77 297.072 694.43ZM276.633 698.531C276.762 698.621 276.892 698.711 277.018 698.807C278.089 699.424 279.161 700.041 280.232 700.658C279.669 700.298 279.086 699.994 278.508 699.66C277.877 699.295 277.26 698.903 276.633 698.531ZM293.184 699.658C293.151 699.71 293.13 699.765 293.09 699.814C292.961 699.976 292.777 700.09 292.621 700.227C292.454 700.305 292.296 700.405 292.121 700.461C291.05 700.8 289.838 700.35 288.813 700.068C288.761 700.049 288.711 700.027 288.66 700.008C288.217 700.723 287.563 701.132 286.67 701.236C285.31 701.395 284.382 700.932 283.125 700.523C282.702 700.304 282.278 700.087 281.856 699.867C281.681 700.282 281.385 700.666 281.022 700.814C280.631 700.973 279.2 700.503 278.926 700.428C278.604 700.319 278.291 700.189 277.973 700.07C277.904 700.297 277.782 700.519 277.713 700.746C277.674 700.768 277.635 700.776 277.596 700.811C278.676 701.452 280.134 702.17 284.584 704.691C285.596 705.499 286.603 706.312 287.623 707.109C291.247 710.048 291.54 710.293 296.334 712.732C296.969 713.187 297.41 713.424 298.057 713.607C299.207 714.191 300.162 714.674 301.815 715.52C302.531 715.885 303.146 715.655 303.459 715.166C303.683 715.274 303.952 715.414 304.135 715.496C304.518 715.667 304.914 715.803 305.305 715.957C305.555 715.956 305.825 716.055 306.055 715.955C306.564 715.734 306.638 715.107 306.537 714.631C306.563 714.646 306.589 714.662 306.615 714.678C306.689 714.722 306.677 714.595 306.68 714.467C306.976 714.366 307.272 714.266 307.568 714.164C307.615 714.152 307.661 714.141 307.707 714.129C308.399 714.034 309.291 713.932 309.926 713.691C310.099 713.626 310.266 713.532 310.432 713.436C310.77 713.35 311.108 713.259 311.447 713.178C312.632 712.894 313.826 712.644 315.025 712.422C315.124 712.412 315.222 712.402 315.32 712.393C316.037 712.32 316.752 712.223 317.471 712.17C318.172 712.118 318.877 712.131 319.578 712.08C320.849 711.987 322.119 711.767 323.367 711.514C323.62 711.422 323.894 711.373 324.127 711.238C324.372 711.095 325.602 709.979 325.063 709.602C324.815 709.428 324.561 709.264 324.311 709.096C325.529 705.85 323.666 707.83 314.461 703.322C313.741 702.917 313.018 702.516 312.307 702.098C312.281 702.123 312.253 702.145 312.229 702.172C311.572 701.818 310.909 701.46 310.19 701.043C310.024 700.946 309.806 701.024 309.615 701C309.566 700.994 309.517 700.982 309.467 700.975C309.64 701.164 309.783 701.352 309.902 701.533C309.633 701.338 309.414 701.175 309.188 701.008C309.057 701.443 308.891 701.886 308.406 701.961C308.83 702.152 309.235 702.371 309.656 702.564C309.806 702.382 309.893 702.267 310.07 702.051C310.104 702.057 310.124 702.067 310.158 702.072C310.176 702.143 310.187 702.212 310.186 702.277C310.151 702.305 310.137 702.324 310.082 702.359C309.984 702.424 309.83 702.494 309.656 702.564C313.915 704.516 318.085 706.567 321.936 709.418C322.388 709.754 321.925 710.604 321.621 711.078C321.496 711.273 321.164 711.01 320.936 710.975C320.653 710.84 320.373 710.7 320.092 710.561C320.083 710.556 320.141 710.589 320.129 710.582C319.453 710.194 312.374 708.533 310.561 706.207C309.18 705.616 307.793 705.041 306.379 704.527C304.647 703.898 304.621 703.933 302.912 703.393C302.39 703.228 301.87 703.057 301.35 702.889C300.009 702.478 300.122 702.498 298.871 702.166C298.189 701.985 297.297 701.718 296.58 701.701C296.479 701.699 296.379 701.739 296.279 701.758L293.184 699.658ZM310.561 706.207C311.019 706.403 311.479 706.595 311.936 706.795C313.66 707.619 315.438 708.326 317.172 709.127C318.157 709.582 319.121 710.079 320.092 710.561C320.341 710.702 319.413 710.158 319.07 709.963C318.17 709.45 317.336 709.006 316.42 708.51C315.904 708.249 315.392 707.981 314.873 707.727C314.693 707.639 311.665 706.216 311.559 706.166C311.095 705.946 310.639 705.712 310.178 705.488C310.241 705.735 310.378 705.973 310.561 706.207ZM309.467 700.975C309.406 700.908 309.329 700.844 309.264 700.777C309.249 700.829 309.229 700.879 309.213 700.934C309.297 700.948 309.382 700.962 309.467 700.975ZM311.18 703.529C311.14 703.526 311.101 703.533 311.068 703.56C310.996 703.62 310.94 703.679 310.877 703.738C310.891 703.74 310.905 703.744 310.92 703.746C310.94 703.748 311.472 703.693 311.564 703.682C311.441 703.652 311.299 703.538 311.18 703.529ZM323.596 710.75C323.755 710.88 323.852 710.97 323.742 710.908C323.669 710.867 323.595 710.826 323.521 710.785C323.546 710.773 323.571 710.761 323.596 710.75Z" fill="white" fill-opacity="0.4"/>
<path d="M240.678 665.752C240.258 665.697 241.101 666.388 242.355 667.127C242.613 667.071 242.876 667.212 243.137 667.254C243.496 667.345 243.852 667.446 244.209 667.543C242.082 666.299 241.003 665.795 240.678 665.752ZM244.209 667.543C244.876 667.933 245.808 668.513 246.697 669.062C245.977 668.788 245.257 668.512 244.541 668.225C243.742 667.906 243.01 667.513 242.355 667.127C242.354 667.127 242.352 667.127 242.351 667.127C242.337 667.13 241.933 667.331 241.56 667.59C241.673 667.633 241.879 667.686 241.926 667.713C246.052 670.027 250.123 672.437 254.221 674.799C254.414 674.97 254.607 675.165 254.797 675.359C254.859 675.361 254.921 675.355 254.982 675.357C255.871 675.389 257.287 675.524 258.174 675.66C258.665 675.735 259.149 675.843 259.637 675.935C260.123 676.087 260.618 676.212 261.094 676.39C261.558 676.564 262.024 676.746 262.453 676.994C264.118 677.953 265.754 678.96 267.414 679.928C268.074 680.123 268.737 680.308 269.404 680.478C269.641 680.583 269.88 680.687 270.117 680.791C270.191 680.826 270.264 680.865 270.338 680.9C269.688 680.724 268.93 680.557 268.189 680.387C270.213 681.572 272.259 682.72 274.246 683.967C274.666 684.23 274.961 684.656 275.275 685.039C275.723 685.586 275.937 685.918 276.111 686.273C276.312 686.388 277.12 686.889 277.35 687.025C277.807 687.1 278.263 687.191 278.717 687.293C279.014 687.637 279.289 687.998 279.553 688.367C280.912 689.199 281.529 689.574 284.756 691.531C285.258 691.835 285.709 692.223 286.123 692.639C286.776 693.297 287.683 694.648 288.119 695.463C288.374 695.939 288.56 696.448 288.781 696.941C288.934 697.747 289.268 698.819 288.935 699.66C288.873 699.818 288.741 699.877 288.66 700.008C288.711 700.027 288.761 700.049 288.812 700.068C289.837 700.35 291.05 700.8 292.121 700.461C292.296 700.405 292.454 700.304 292.621 700.226C292.777 700.089 292.961 699.976 293.09 699.814C293.13 699.764 293.151 699.71 293.183 699.658L296.279 701.758C296.379 701.739 296.479 701.699 296.58 701.701C297.297 701.718 298.189 701.985 298.871 702.166C300.122 702.498 300.008 702.478 301.349 702.889C301.869 703.057 302.39 703.228 302.912 703.393C304.621 703.933 304.647 703.898 306.379 704.527C307.793 705.041 309.179 705.616 310.56 706.207C310.378 705.973 310.241 705.735 310.178 705.488C310.639 705.712 311.095 705.946 311.558 706.166C311.664 706.216 314.693 707.639 314.873 707.727C315.392 707.981 315.904 708.249 316.42 708.51C317.336 709.006 318.17 709.45 319.07 709.963C319.413 710.158 320.341 710.702 320.092 710.561C320.372 710.7 320.653 710.84 320.935 710.975C321.163 711.01 321.496 711.273 321.621 711.078C321.925 710.604 322.387 709.754 321.935 709.418C317.704 706.285 313.107 704.085 308.406 701.961C309.09 701.855 309.172 700.989 309.355 700.494C308.842 699.989 308.281 699.565 307.703 699.135C306.628 698.335 305.529 697.57 304.398 696.852C300.037 694.166 301.233 694.921 293.764 690.645C292.889 689.903 292.06 689.105 291.168 688.385C290.569 687.902 290.047 687.545 289.422 687.1C284.301 683.658 278.857 680.717 273.523 677.633C272.423 677.044 271.262 676.603 270.078 676.223C269.739 676.036 269.413 675.862 269.07 675.67C268.732 675.481 268.529 675.572 268.287 675.697C267.334 675.444 266.378 675.207 265.424 674.982C263.884 674.697 262.365 674.327 260.859 673.912C257.619 672.441 254.367 670.992 251.041 669.726C248.795 668.9 246.517 668.169 244.209 667.543ZM320.092 710.561C319.12 710.079 318.157 709.582 317.172 709.127C315.438 708.326 313.66 707.619 311.936 706.795C311.479 706.595 311.019 706.403 310.56 706.207C312.373 708.533 319.453 710.194 320.129 710.582C320.141 710.589 320.083 710.555 320.092 710.561ZM264.42 682.568C264.089 682.565 263.762 682.632 263.432 682.648C263.57 682.754 263.714 682.858 263.867 682.963C264.342 682.887 264.809 682.788 265.305 682.781C265.284 682.727 265.265 682.672 265.244 682.617C264.969 682.602 264.695 682.57 264.42 682.568ZM277.086 691.5C276.938 692.236 276.636 692.921 275.973 693.377C275.948 693.394 275.917 693.401 275.891 693.416C276.061 693.562 276.231 693.709 276.402 693.854C276.511 693.84 276.619 693.826 276.725 693.795C276.918 693.737 277.13 693.643 277.238 693.473C277.58 692.939 277.398 692.23 277.344 691.676C277.332 691.644 277.322 691.612 277.311 691.58C277.236 691.552 277.16 691.528 277.086 691.5ZM290.064 692.199C291.529 692.815 292.997 693.416 294.473 694.004C297.616 696.063 295.591 694.694 306.131 700.816C306.471 701.014 306.813 701.209 307.154 701.404C305.398 700.634 303.637 699.878 301.91 699.041C300.461 698.337 299.85 698.003 298.418 697.252C296.114 695.966 293.71 694.888 291.279 693.871C290.901 693.295 290.498 692.735 290.064 692.199ZM297.072 694.43C297.687 694.769 298.298 695.118 298.91 695.473C299.471 695.798 301.148 696.784 300.584 696.465C298.827 695.469 298.273 695.134 297.068 694.435C297.07 694.433 297.07 694.432 297.072 694.43ZM296.893 695.053C297.021 695.188 297.061 695.189 296.967 695.246C296.926 695.177 296.909 695.115 296.893 695.053ZM302.982 696.887C305.5 698.342 306.969 699.189 303.863 697.408C303.568 697.238 303.276 697.06 302.982 696.887ZM311.18 703.529C311.299 703.538 311.441 703.652 311.564 703.682C311.472 703.693 310.94 703.748 310.92 703.746C310.905 703.745 310.891 703.74 310.877 703.738C310.94 703.679 310.996 703.62 311.068 703.56C311.101 703.533 311.14 703.526 311.18 703.529Z" fill="white" fill-opacity="0.4"/>
<path d="M196.551 644.957C196.969 645.202 197.386 645.447 197.805 645.691C198.094 645.944 198.399 646.178 198.67 646.449C198.846 646.625 199.084 646.901 199.324 647.189C199.377 647.044 199.419 646.894 199.48 646.752C199.962 645.64 199.681 646.374 199.879 645.961C198.792 645.552 197.68 645.219 196.551 644.957ZM193.039 648.16C193.322 648.655 193.659 649.122 193.936 649.496C194.108 649.687 194.284 649.875 194.453 650.068C194.252 651.417 195.679 652.496 196.545 653.303C197.83 654.355 197.891 654.432 199.277 655.457C199.799 655.842 200.3 656.26 200.857 656.592C202.601 657.627 204.352 658.653 206.105 659.672C206.175 659.77 206.242 659.875 206.309 659.967C206.79 660.633 207.444 661.424 207.955 662.057C212.429 667.071 212.643 665.916 222.158 671.504C222.544 671.73 222.944 671.914 223.352 672.078C223.523 672.214 223.682 672.33 223.807 672.404C228.593 675.288 233.389 678.311 238.436 680.775C240.857 681.913 243.323 682.987 245.916 683.672C248.078 684.298 250.209 685.013 252.346 685.719C252.596 685.772 252.849 685.803 253.1 685.852C253.981 686.376 254.871 686.889 255.746 687.424C256.854 688.245 257.972 689.051 259.119 689.814C260.539 690.642 261.959 691.468 263.377 692.297C263.884 692.628 264.336 692.936 265.113 693.527C265.416 693.757 265.713 693.995 266.002 694.242C266.18 694.393 266.314 694.601 266.514 694.721C270.071 696.854 273.608 699.029 277.26 700.994C277.412 701.076 277.562 700.829 277.713 700.746C277.781 700.519 277.904 700.297 277.973 700.07C278.291 700.189 278.604 700.319 278.926 700.428C279.2 700.503 280.63 700.973 281.021 700.814C281.385 700.666 281.681 700.282 281.855 699.867C282.278 700.087 282.702 700.305 283.125 700.523C284.382 700.932 285.31 701.395 286.67 701.236C287.727 701.113 288.532 700.683 288.936 699.66C289.269 698.819 288.935 697.747 288.781 696.941C288.56 696.448 288.374 695.939 288.119 695.463C287.683 694.648 286.776 693.297 286.123 692.639C285.709 692.223 285.258 691.835 284.756 691.531C279.395 688.28 277.514 687.077 276.111 686.273C275.937 685.918 275.723 685.586 275.275 685.039C274.961 684.656 274.666 684.23 274.246 683.967C270.377 681.54 266.41 679.273 262.453 676.994C262.024 676.746 261.558 676.565 261.094 676.391C260.618 676.212 260.123 676.088 259.637 675.936C259.149 675.844 258.665 675.735 258.174 675.66C257.287 675.524 255.871 675.389 254.982 675.357C254.921 675.355 254.859 675.361 254.797 675.359C254.607 675.165 254.414 674.97 254.221 674.799C250.123 672.437 246.052 670.027 241.926 667.713C241.651 667.559 240.022 667.058 239.793 666.992C239.687 666.962 239.579 666.938 239.473 666.908C239.405 666.868 239.339 666.827 239.271 666.787C238.641 666.413 237.551 666.096 236.865 665.953C236.714 665.922 236.56 665.905 236.408 665.879C236.124 665.71 235.843 665.551 235.572 665.422C233.867 664.366 231.949 663.217 229.982 662.188C226.541 660.198 223.105 658.199 219.648 656.234C219.467 656.132 217.771 655.421 217.742 655.408C216.872 655.047 215.997 654.7 215.115 654.367C212.907 653.075 210.697 651.787 208.488 650.496C208.316 650.88 208.137 651.441 208.008 651.66C207.029 653.319 205.437 654.775 203.92 655.936L196.912 651.498C197.26 651.09 197.517 650.604 197.836 650.16L196.656 649.289C196.447 649.36 196.206 649.294 195.982 649.305C194.425 648.762 193.703 648.499 193.039 648.16ZM264.42 682.568C264.695 682.57 264.969 682.602 265.244 682.617C265.265 682.672 265.284 682.727 265.305 682.781C264.535 682.792 263.777 682.874 263.07 683.064C262.756 683.149 262.46 683.285 262.162 683.418C261.783 683.183 261.492 683.003 261.207 682.826C262.269 682.658 263.344 682.56 264.42 682.568ZM277.176 691.197C277.231 691.357 277.283 691.519 277.344 691.676C277.398 692.23 277.58 692.939 277.238 693.473C277.13 693.643 276.918 693.737 276.725 693.795C276.619 693.826 276.511 693.84 276.402 693.854C276.231 693.709 276.061 693.562 275.891 693.416C275.917 693.401 275.948 693.394 275.973 693.377C276.73 692.856 277.066 692.057 277.176 691.197ZM266.797 691.34C267.065 691.498 267.334 691.652 267.602 691.811C267.869 691.969 267.144 691.552 266.789 691.354C266.792 691.35 266.794 691.345 266.797 691.34ZM268.131 691.984C268.231 692.004 268.403 692.146 268.574 692.291C268.436 692.275 268.298 692.26 268.16 692.244C268.073 692.219 267.987 692.192 267.9 692.168C267.956 692.032 268.025 691.964 268.131 691.984ZM268.832 692.52C269.324 692.977 270.11 693.727 271.273 694.705C270.376 694.131 269.472 693.57 268.559 693.023C268.64 692.851 268.748 692.69 268.832 692.52ZM267.559 694.734C267.678 694.804 267.797 694.874 267.916 694.943C267.742 694.94 267.586 694.913 267.562 694.801C267.558 694.779 267.562 694.756 267.559 694.734ZM276.633 698.531C277.26 698.903 277.877 699.295 278.508 699.66C279.086 699.994 279.669 700.298 280.232 700.658C279.161 700.041 278.089 699.424 277.018 698.807C276.892 698.711 276.762 698.621 276.633 698.531Z" fill="white" fill-opacity="0.4"/>
<path d="M173.539 629.287C173.229 629.277 172.914 629.705 172.713 629.978C172.381 630.429 172.871 630.969 173.061 631.279C173.721 632.128 174.409 632.939 175.127 633.74C175.384 634.027 175.576 634.391 175.902 634.598C177.572 635.662 178.767 636.438 179.781 637.1C179.497 638.031 180.213 638.938 180.58 639.756C181.592 640.36 182.595 640.976 183.598 641.596C183.685 641.775 183.785 641.957 183.918 642.152C184.05 642.345 184.155 642.58 184.354 642.701C186.791 644.183 188.437 645.226 189.631 646C188.961 645.149 188.315 644.279 187.701 643.385L183.047 641.199C181.829 638.808 180.564 636.397 179.688 633.853C179.543 633.434 179.441 632.893 179.299 632.428C177.464 631.316 175.604 630.249 173.672 629.32C173.628 629.299 173.583 629.288 173.539 629.287ZM181.689 639.305C181.736 639.422 181.776 639.545 181.773 639.67C181.772 639.708 181.668 639.735 181.664 639.697C181.649 639.566 181.669 639.435 181.689 639.305ZM191.379 641.58C193.192 644.33 195.166 646.972 197.385 649.383L190.383 646.492C193.041 648.243 192.818 648.203 195.982 649.305C196.206 649.294 196.447 649.36 196.656 649.289L197.836 650.16C198.138 649.74 198.506 649.364 198.711 648.894C198.953 648.34 199.12 647.757 199.324 647.189C199.084 646.901 198.846 646.625 198.67 646.449C198.399 646.178 198.094 645.944 197.805 645.691C196.43 644.889 195.057 644.083 193.684 643.277C193.465 643.041 193.272 642.771 193 642.601C192.41 642.233 191.878 641.898 191.379 641.58Z" fill="white" fill-opacity="0.4"/>
<path d="M18.5566 301.682C18.5196 301.978 18.4614 302.273 18.4316 302.57C17.8286 308.598 18.585 314.669 17.8926 320.693C18.0016 322.496 18.1117 324.298 18.2207 326.1C18.3383 327.876 18.4621 329.652 18.5723 331.428C18.6767 333.11 18.7318 334.797 18.8633 336.477C19.2068 340.869 19.8213 345.239 20.1055 349.637C20.9442 356.098 22.083 362.503 23.5352 368.855C24.0813 371.637 24.5509 374.453 25.209 377.211C25.4904 378.391 26.4152 381.633 26.7266 382.777C26.9873 383.735 27.2384 384.694 27.4941 385.654C29.0356 391.676 30.5454 397.706 31.8281 403.791C33.178 409.815 35.2301 415.67 36.2109 421.785C36.5842 423.281 37.1726 425.704 37.6074 427.191C38.6758 430.845 39.9421 434.444 41.0293 438.092C41.5607 439.684 42.3719 442.153 42.9473 443.725C44.4176 447.74 46.1256 451.672 47.3184 455.787C49.1938 461.799 51.1293 467.791 52.8457 473.852C54.9532 480.159 57.5536 486.281 60.0918 492.424C61.6028 495.901 63.2302 499.329 64.6895 502.828C70.0424 515.662 62.5463 497.901 67.5117 510.26C67.9466 511.342 68.4657 512.387 68.9434 513.451C69.444 514.602 68.9975 513.578 69.2676 514.197C70.7499 515.894 72.2005 517.619 73.5899 519.396C75.4935 521.861 77.5031 524.325 78.9883 527.068C78.5747 524.594 78.3176 522.092 78.2949 519.564C78.2919 519.207 78.3133 518.936 78.3164 518.602L72.4024 515.871C70.7251 511.536 69.6323 506.928 69.0391 502.32C68.7973 500.442 68.6593 498.552 68.4688 496.668C68.5429 495.793 68.6423 494.713 68.7188 493.77C66.676 488.756 64.6781 483.726 62.9492 478.594C61.1799 472.545 59.3128 466.533 57.3848 460.533C55.41 454.629 53.2085 448.807 51.2559 442.895C49.5331 437.536 47.9014 432.139 46.4727 426.693C44.8736 420.666 43.6351 414.563 41.8575 408.582C40.3841 402.581 39.2454 396.509 37.6856 390.527C36.0469 385.032 34.8729 379.427 33.7481 373.811C32.206 367.385 30.9095 360.912 29.8047 354.398C28.2298 344.662 27.287 334.834 26.5039 325.006C26.4889 324.932 26.4815 324.857 26.4668 324.783C26.4718 325.792 26.4981 326.802 26.4922 327.811C26.4806 329.808 26.3558 331.803 26.3653 333.799C26.3693 334.741 26.4408 335.681 26.4786 336.623C26.5221 337.434 26.7034 340.625 26.7168 341.539C26.7301 342.44 26.6486 344.282 26.6231 345.211C26.6091 345.72 26.6667 346.235 26.5919 346.74C26.5405 347.086 26.3623 347.4 26.2482 347.73L20.0177 344.49C19.9226 344.067 19.7794 343.653 19.7326 343.223C19.6772 342.714 19.7306 342.198 19.7131 341.686C19.6921 341.079 19.653 340.474 19.6174 339.867C19.4838 337.589 19.4228 335.32 19.3791 333.039C19.3561 332.103 19.3583 331.166 19.3107 330.232C18.933 322.821 19.19 331.32 18.9279 323.973C18.816 320.834 18.8068 317.693 18.7912 314.553C18.7597 310.262 18.6484 305.972 18.5566 301.682ZM75.6035 528.316C76.0045 528.93 76.408 529.541 76.7129 530.207C78.4347 533.397 80.3652 536.473 82.5293 539.379C81.359 536.371 80.3146 533.314 79.5996 530.172L75.6035 528.316ZM92.0781 540.062C92.9636 542.819 93.984 545.538 95.2598 548.166C96.2258 549.91 97.1252 551.693 98.1602 553.398C102.212 560.076 107.396 566.136 113.623 570.871C115.02 572.021 116.448 573.139 117.707 574.443C117.86 574.602 118.707 575.52 118.824 575.799C118.878 575.93 118.808 576.082 118.799 576.223L110.463 572.547C112.334 574.529 114.188 576.528 116.045 578.525C118.746 581.608 121.497 584.642 124.328 587.607C126.639 590.002 129.106 592.247 131.379 594.682C133.573 596.921 135.678 599.246 137.961 601.398C138.353 601.801 138.741 602.207 139.125 602.617C138.465 600.87 137.874 599.098 137.439 597.283C137.255 596.514 137.114 595.865 136.994 595.26L132.264 593.334C128.818 590.73 126.927 586.629 125.043 582.869C123.421 579.633 122.652 578.018 121.93 576.34C120.721 575.071 119.504 573.813 118.332 572.508C115.023 568.703 111.843 564.786 108.525 560.988C105.099 556.915 101.771 552.759 98.5 548.561C96.1869 545.856 94.1187 542.969 92.0781 540.062ZM145.65 601.02C146.342 603.74 147.185 606.414 148.439 608.92L154.914 611.723C153.983 609.886 152.414 608.438 151.078 606.893C149.274 604.931 147.478 602.961 145.65 601.02Z" fill="white" fill-opacity="0.4"/>
<path d="M83.8789 0C82.8066 2.04115 81.7345 4.0819 80.6621 6.12305C77.2601 13.4468 73.869 20.7772 70.418 28.0781C69.1468 30.7676 67.9324 33.4852 66.5762 36.1328C65.2965 38.6312 63.7853 41.0073 62.5137 43.5098C61.3809 45.739 60.4157 48.0502 59.3672 50.3203C56.143 57.1847 56.1582 57.0362 53.1094 63.9961C52.116 66.2639 51.0791 68.514 50.1738 70.8184C49.2965 73.0514 48.5622 75.3392 47.7637 77.6016C47.5491 78.2095 47.5898 78.1229 47.416 78.6152C47.4829 78.5196 47.5518 78.4253 47.6191 78.3301L49.6562 79.5137C49.8603 78.5195 49.9302 77.8363 50.2207 74.4199L52.2305 75.459C52.0656 80.1335 52.0895 79.9989 52.6309 82.6289C52.8417 81.962 53.0477 81.2935 53.2656 80.6289C54.0136 78.3476 54.8506 76.0966 55.5957 73.8145C56.3752 71.4266 57.0604 69.0096 57.8379 66.6211C59.2149 62.3911 61.3261 56.4392 62.7969 52.2383C63.6602 49.8649 64.5877 47.5129 65.3867 45.1172C66.295 42.3938 66.937 39.5835 67.916 36.8848C71.6474 26.5988 77.2415 16.7436 82.375 7.09766C83.3756 5.01593 84.3744 2.93525 85.375 0.853516L83.8789 0ZM49.043 82.3613C46.954 86.3334 44.8153 90.2858 42.2227 93.9336C41.911 94.8675 41.5889 95.7981 41.2969 96.7383C38.1621 106.832 35.9479 117.189 33.7031 127.506C32.5634 132.72 32.07 135.125 30.8066 140.322C29.3097 146.479 27.5401 152.569 26.0625 158.73C25.6304 160.532 25.2683 162.351 24.8711 164.16C23.0029 175.216 21.4551 186.332 20.418 197.498C19.7098 206.803 18.9565 216.108 18.5352 225.432C18.294 233.744 18.0011 242.055 18.1445 250.371C18.1043 258.933 18.3816 267.495 18.1816 276.057C18.1997 282.655 18.3232 289.248 18.4512 295.844C18.5126 302.082 18.7452 308.316 18.791 314.553C18.8066 317.693 18.8158 320.834 18.9277 323.973C19.1898 331.32 18.9327 322.821 19.3105 330.232C19.3581 331.166 19.3559 332.103 19.3789 333.039C19.4226 335.32 19.4836 337.589 19.6172 339.867C19.6528 340.474 19.6919 341.079 19.7129 341.686C19.7306 342.198 19.677 342.714 19.7324 343.223C19.7792 343.653 19.9225 344.067 20.0176 344.49L26.248 347.73C26.3621 347.4 26.5404 347.086 26.5918 346.74C26.6666 346.235 26.6091 345.72 26.623 345.211C26.6485 344.282 26.73 342.44 26.7167 341.539C26.7033 340.625 26.5219 337.434 26.4784 336.623C26.4406 335.681 26.3696 334.741 26.3651 333.799C26.3551 331.803 26.4805 329.808 26.4921 327.811C26.5103 324.684 26.4657 321.555 26.4159 318.428C26.3851 312.194 26.4229 305.973 26.1522 299.744C25.9498 293.129 25.9488 286.511 25.7479 279.896C25.175 271.267 25.2316 262.62 25.2186 253.977C25.3522 245.695 25.3901 237.412 25.7381 229.135C26.1202 219.724 26.3958 210.308 26.994 200.908C27.1978 195.33 27.9311 189.8 28.6483 184.273C29.1963 180.049 29.4974 177.089 30.2245 172.895C30.5336 171.112 30.9249 169.344 31.2753 167.57C33.6769 155.178 36.7077 142.926 39.496 130.619C41.4446 122.392 43.1833 114.105 45.4667 105.961C46.6178 101.855 47.9029 97.7877 49.121 93.7012C49.3007 93.175 49.4513 92.6395 49.6249 92.1113C49.2249 90.2281 48.8555 88.3902 48.8045 86.3867C48.7712 85.077 48.9487 83.771 49.0213 82.4629C49.0359 82.3952 49.0285 82.4264 49.043 82.3613Z" fill="white" fill-opacity="0.4"/>
<path d="M47.6191 78.3301C46.4928 79.9222 45.4364 81.5672 44.2402 83.1074C40.9213 87.3806 37.0746 91.2269 33.5723 95.3438C28.5464 100.947 32.7729 96.1781 28.2598 101.418C24.9516 105.259 21.3656 108.933 18.9434 113.436C17.7066 115.738 15.6948 118.955 15.0449 121.518C14.887 122.141 14.8775 122.783 14.8438 123.418L20.6641 126.412C20.7052 126.187 20.7218 125.955 20.7871 125.736C21.0066 124.998 21.3235 124.292 21.6016 123.574C22.5145 121.217 23.5108 118.946 24.6074 116.666C26.2738 113.329 28.4848 110.332 30.8984 107.504C31.9251 106.301 35.0027 103.013 36.0332 101.77C36.942 100.674 37.7805 99.5208 38.6543 98.3965C43.0461 93.6726 46.0675 88.0189 49.043 82.3613C49.4383 80.5352 49.5395 80.0826 49.6562 79.5137L47.6191 78.3301Z" fill="white" fill-opacity="0.4"/>
<path d="M50.2207 74.4199C49.758 79.8609 50.1609 77.179 49.0215 82.4629C48.9489 83.771 48.7714 85.077 48.8047 86.3867C48.8717 89.0194 49.4623 91.3312 49.9922 93.8926C50.8218 97.9025 51.6654 101.913 52.1953 105.977C52.6882 108.582 53.0882 110.514 53.4414 113.146C54.093 118.002 54.2974 122.922 54.1074 127.816C54.0095 128.954 53.9453 130.095 53.8145 131.23C53.3895 134.916 52.5104 138.534 51.8887 142.188L58.459 145.686C59.0905 140.713 59.4755 135.724 59.709 130.717C59.9712 123.324 59.1019 115.984 57.8262 108.719C56.0424 100.655 54.7276 92.5044 52.9746 84.4336C51.8269 78.2734 52.0256 81.2685 52.2305 75.459L50.2207 74.4199Z" fill="white" fill-opacity="0.4"/>
<path d="M152.104 515.758C151.685 518.07 151.578 520.46 150.85 522.695C144.097 543.426 150.539 516.499 146.459 534.941C146.484 535.455 146.551 535.97 146.568 536.482C146.56 537.82 146.592 539.161 146.545 540.498C146.448 543.286 146.249 544.862 145.875 547.586C145.594 549.626 145.417 551.645 144.1 553.32L141.533 551.869C140.229 555.881 138.989 559.912 138.209 564.068C136.61 572.398 135.388 580.899 136.145 589.396C136.197 589.793 136.226 589.999 136.27 590.346C136.662 590.922 136.914 591.325 137.371 591.994C138.13 593.105 138.871 594.233 139.689 595.301C139.694 595.308 141.141 596.801 141.375 597.043L136.994 595.26C137.114 595.865 137.255 596.514 137.439 597.283C138.134 600.182 139.131 603.01 140.383 605.717C143.508 607.481 146.556 609.369 149.613 611.154C147.103 606.937 145.509 602.165 144.719 597.33C144.507 596.031 144.418 594.716 144.266 593.41C143.611 585.042 144.918 576.771 146.734 568.635C148.295 562.976 150.329 557.458 151.705 551.746C152.365 549.006 153.644 542.518 154.178 539.869C156.936 524.212 154.163 542.928 154.91 524.855C154.925 524.489 154.972 524.126 155.01 523.762C154.435 522.133 153.93 520.482 153.391 518.842C153.073 517.492 152.954 516.968 152.744 516.098L152.104 515.758ZM142.914 610.328C143.071 610.545 143.239 610.748 143.459 610.898C144.3 611.475 145.202 612.091 146.127 612.705C145.228 611.99 144.367 611.223 143.439 610.547C143.267 610.477 143.085 610.397 142.914 610.328Z" fill="white" fill-opacity="0.4"/>
<path d="M155.408 459.588C153.698 472.062 154.753 465.967 152.285 477.877C151.371 485.601 151.121 486.529 150.752 494.135C150.639 496.464 150.495 498.797 150.568 501.129C150.634 503.212 150.914 505.286 151.17 507.354C151.881 513.101 152.075 513.25 153.391 518.842C153.981 520.635 154.514 522.447 155.16 524.221C156.953 529.15 159.08 534.139 161.729 538.676C162.547 540.076 165.474 544.295 166.41 545.66C171.774 553.151 177.534 560.35 183.234 567.586C185.861 570.984 187.411 572.829 189.723 576.469C193.034 581.684 195.706 587.302 198.189 592.945C199.364 596.287 199.636 596.879 200.578 600.285C202.015 605.482 202.862 610.812 203.555 616.152C203.685 617.532 203.852 618.91 203.943 620.293C204.406 627.315 203.935 634.385 201.867 641.141C198.994 648.974 202.446 639.905 199.48 646.752C199.178 647.448 199.015 648.199 198.711 648.895C198.289 649.861 197.59 650.704 196.912 651.498L203.92 655.936C205.437 654.775 207.029 653.319 208.008 651.66C208.65 650.571 209.991 646.931 210.396 645.881C210.732 644.632 211.141 643.4 211.404 642.133C211.971 639.399 212.275 636.09 212.484 633.318C212.692 630.555 212.848 627.543 212.762 624.768C212.719 623.379 212.572 621.994 212.477 620.607C211.752 615.292 211.151 609.934 209.816 604.725C209.065 601.794 208.44 600.15 207.461 597.287C204.998 591.408 201.952 585.741 198.516 580.371C196.276 576.872 194.741 574.845 192.328 571.506C186.901 564.393 181.546 557.227 176.328 549.959C172.557 544.727 168.947 539.383 166.246 533.506C164.295 529.262 163.77 527.409 162.236 522.992C159.438 514.589 157.597 505.891 156.637 497.086C156.018 491.406 155.84 485.264 155.586 479.574C154.934 466.342 154.844 472.929 155.836 459.811L155.408 459.588Z" fill="white" fill-opacity="0.4"/>
<path d="M178.746 613.217C179.789 618.009 180.972 622.764 182.654 627.389C184.739 632.828 184.392 632.248 186.643 637.029C186.767 637.293 188.808 641.372 189.07 641.971C189.624 643.236 189.609 643.321 189.867 644.402L187.701 643.385C188.376 644.368 189.08 645.332 189.824 646.262L197.385 649.383C193.395 645.048 190.031 640.065 187.404 634.793C186.428 632.836 185.594 630.812 184.689 628.822C180.824 618.888 182.593 623.98 179.418 613.541L178.746 613.217Z" fill="white" fill-opacity="0.4"/>
<path d="M172.992 589.668C172.976 592.083 172.878 594.498 172.943 596.912C173.197 606.36 174.81 615.707 177.223 624.83C177.891 627.449 178.773 631.196 179.688 633.854C180.564 636.398 181.829 638.808 183.047 641.199L189.867 644.402C189.609 643.321 189.624 643.236 189.07 641.971C188.808 641.372 186.767 637.293 186.643 637.029C184.392 632.248 184.739 632.828 182.654 627.389C179.215 617.937 177.841 607.94 175.551 598.193C174.897 595.409 174.134 592.654 173.426 589.883L172.992 589.668Z" fill="white" fill-opacity="0.4"/>
<path d="M46.5723 621.576C46.9582 621.695 47.3338 621.84 47.7246 621.945C52.7859 623.831 54.1871 624.278 59.1484 626.434C60.7922 627.149 64.259 630.457 64.0352 628.678C64.0209 628.564 63.9638 628.479 63.9297 628.379C66.2687 629.92 68.3757 631.307 67.3105 630.4C74.6191 635.023 81.869 639.761 88.6855 645.096C94.9236 649.919 101.196 654.721 107.949 658.814C114.974 663.166 113.513 662.312 125.033 668.795C126.927 669.861 130.75 671.725 132.73 672.561C136.047 673.962 137.548 674.355 140.984 675.453C142.417 675.828 143.84 676.246 145.283 676.58C152.125 678.164 159.211 678.94 166.229 678.586C169.735 678.291 170.918 678.265 174.4 677.678C179.443 676.828 184.331 675.334 189.201 673.807C193.585 672.348 198.035 670.644 201.746 667.83C203.799 665.955 205.572 663.874 206.941 661.443L196.861 655.418C195.689 656.561 194.782 657.959 193.584 659.076C193.326 659.317 191.268 660.944 191.02 661.141C187.395 663.894 182.96 665.155 178.768 666.76C174.143 668.475 169.431 670.001 164.555 670.816C161.087 671.396 160 671.386 156.496 671.627C149.562 671.855 142.606 671.063 135.863 669.439C134.45 669.099 133.06 668.68 131.658 668.299C130.27 667.834 128.867 667.408 127.494 666.902C124.307 665.728 122.578 664.924 119.555 663.385C119.538 663.376 119.496 663.353 119.478 663.344C119.395 663.294 119.24 663.202 119.172 663.16C112.424 659.058 106.077 654.362 99.83 649.547C92.889 644.125 85.5335 639.274 78.0859 634.586C70.9655 630.353 63.901 625.92 56.4609 622.258C54.2317 622.288 51.9687 622.286 49.9453 622.084C48.8142 621.971 47.6956 621.757 46.5723 621.576ZM58.8125 625.174C59.0421 625.238 60.046 625.876 61.0977 626.551C60.3204 626.282 59.5525 625.996 59.0312 625.508C58.7387 625.234 58.6857 625.138 58.8125 625.174Z" fill="white" fill-opacity="0.4"/>
<path d="M107.377 597.774C101.571 597.677 95.955 599.09 90.4141 600.654C85.9114 602.058 81.5048 603.733 77.0977 605.406C78.2788 605.149 79.4529 604.858 80.6094 604.494L90.1367 610.717C88.9236 611.727 87.4477 612.162 85.9492 612.57C84.0838 613.078 82.2771 613.477 80.3418 613.65C79.1804 613.754 78.0109 613.735 76.8457 613.777C71.431 613.493 66.038 612.499 60.8633 610.84C57.9219 611.601 54.9435 612.212 51.918 612.563C50.3499 612.745 48.7709 612.812 47.1973 612.936C41.9719 613.14 36.7373 612.898 31.5723 612.049C29.5454 611.717 27.5503 611.218 25.5332 610.83C14.5703 608.725 24.7237 610.869 13.6445 608.449L7.94727 606.986L12.6758 610.674C15.4453 611.824 18.2149 612.974 20.9844 614.125C25.9186 615.964 32.3714 618.506 37.5 619.895C39.5486 620.449 41.6519 620.781 43.7422 621.149C45.8012 621.511 47.8651 621.876 49.9453 622.084C53.1083 622.399 56.9637 622.25 60.1328 622.201C63.9493 621.974 65.9845 621.963 69.709 621.332C74.7581 620.476 79.6449 618.812 84.4551 617.108C91.0297 614.75 97.5441 612.207 104.205 610.104C109.481 608.601 114.797 607.131 120.338 607.193C125.494 607.195 130.67 607.348 135.734 608.422C138.119 608.93 140.495 609.432 142.791 610.277C142.989 610.35 143.226 610.461 143.439 610.547C145.454 612.016 147.404 613.574 149.277 615.236C151.44 617.074 153.746 618.796 155.607 620.949L165.982 625.604C165.274 623.213 163.049 621.702 161.277 620.111C157.949 616.998 154.364 614.203 150.553 611.713C144.446 608.217 138.448 604.026 131.748 601.58C130.853 601.254 129.95 600.974 129.043 600.711L133.092 603.633C130.771 603.808 128.45 602.918 126.309 602.141C124.137 601.352 120.93 600.032 118.861 599.197C118.077 598.867 117.28 598.574 116.488 598.268C115.361 598.124 114.233 597.997 113.1 597.918C110.651 597.747 109.832 597.783 107.377 597.774Z" fill="white" fill-opacity="0.4"/>
<path d="M145.709 636.734L148.576 638.92C157.593 641.767 153.104 640.452 162.035 642.875C163.88 643.22 165.719 643.594 167.57 643.908C173.887 644.981 170.311 644.175 176.186 645.281C177.331 645.496 178.475 645.721 179.607 645.998C179.857 646.059 180.219 646.186 180.605 646.332C181.189 647.002 181.765 647.682 182.42 648.275L191.289 652.078C190.109 650.474 188.863 648.804 187.27 647.58C186.748 647.178 186.171 646.852 185.621 646.488C181.926 644.517 178.321 642.371 174.537 640.576C173.521 640.095 169.141 639.37 168.18 639.229C163.844 638.593 159.459 638.225 155.111 637.678C148.812 637.132 151.946 637.444 145.709 636.734ZM175.98 642.766C176.942 643.297 177.489 643.56 178.105 643.986C177.388 643.592 176.671 643.197 175.98 642.766Z" fill="white" fill-opacity="0.4"/>
<path d="M111.1 441.35C110.708 442.78 110.259 444.187 109.58 445.5C108.015 448.528 105.131 450.698 103.312 453.582C100.136 458.624 98.7527 464.664 95.1387 469.482C93.9503 471.695 92.7772 473.916 91.5742 476.121C88.2911 482.138 84.5957 488.351 82.3887 494.879C81.4615 497.622 80.4839 502.585 79.8203 505.859C79.9527 506.481 80.0726 507.106 80.2168 507.725C81.2693 512.243 82.5699 516.709 83.8652 521.162L78.3164 518.602C78.3134 518.936 78.2917 519.207 78.2949 519.564C78.3176 522.092 78.5746 524.594 78.9883 527.068C79.5968 528.192 80.1385 529.352 80.5156 530.596L79.5996 530.172C80.6118 534.62 82.1427 538.956 84.0156 543.117C84.9261 544.875 85.7606 546.676 86.748 548.393C88.6177 551.643 90.6241 554.409 92.9219 557.354C94.2392 559.042 96.9874 562.398 98.6484 563.951C99.4114 564.665 100.297 565.235 101.121 565.877C103.941 567.943 106.624 570.195 109.533 572.137L118.799 576.223C118.808 576.082 118.878 575.93 118.824 575.799C118.707 575.52 117.86 574.602 117.707 574.443C116.448 573.139 115.02 572.021 113.623 570.871C107.396 566.136 102.212 560.076 98.1602 553.398C97.1252 551.693 96.2258 549.91 95.2598 548.166C91.7507 540.938 89.6171 533.179 89.4141 525.125C89.2781 519.731 89.6805 518.146 90.3457 512.77C91.4675 506.56 92.9991 500.382 95.4355 494.541C96.2985 492.473 97.3609 490.494 98.3379 488.477C101.978 480.967 101.182 482.626 105.074 475.17C106.475 469.299 110.827 464.52 112.41 458.734C112.477 458.49 112.514 458.336 112.578 458.1C112.15 455.608 111.778 453.092 111.561 451.08C111.323 448.882 111.089 446.679 111.041 444.469C111.019 443.429 111.056 442.389 111.1 441.35Z" fill="white" fill-opacity="0.4"/>
<path d="M125.971 376.346C125.44 379.687 124.909 383.028 124.379 386.369C119.214 401.302 122.623 390.552 118.768 405.059C117.989 407.992 117.159 410.913 116.311 413.826C115.499 416.618 114.517 419.36 113.789 422.174C112.011 429.04 112.076 430.487 111.268 437.408C111.193 439.761 110.991 442.115 111.041 444.469C111.089 446.679 111.323 448.882 111.561 451.08C111.943 454.616 112.754 459.899 113.631 463.391C114.592 467.217 115.821 470.181 117.201 473.861C121.184 483.729 125.316 493.535 129.529 503.307C131.094 507.047 132.053 509.134 133.328 512.977C135.328 519.006 136.595 525.254 136.982 531.598C136.998 535.303 137.039 539.032 136.672 542.725C136.578 543.666 136.376 544.593 136.268 545.533C135.752 550.004 136.385 545.912 135.932 548.705L144.1 553.32C145.417 551.645 145.594 549.626 145.875 547.586C146.249 544.862 146.448 543.286 146.545 540.498C146.592 539.161 146.56 537.82 146.568 536.482C146.408 531.842 145.964 527.153 144.875 522.627C143.672 517.625 141.761 512.827 139.852 508.068C135.749 498.218 131.458 488.449 127.408 478.576C123.618 469.188 120.984 459.302 120.445 449.156C120.32 446.794 120.397 444.426 120.373 442.061C121.76 424.071 120.029 445.424 121.852 426.445C123.283 411.547 121.846 422.8 123.738 407.715C124.14 404.514 124.777 401.339 125.012 398.121C125.286 394.369 125.179 390.598 125.262 386.838C125.811 383.506 126.361 380.175 126.91 376.844L125.971 376.346Z" fill="white" fill-opacity="0.4"/>
<path d="M112.883 540.898C113.623 544.358 114.447 547.801 115.104 551.277C118.134 567.314 114.846 554.567 119.139 569.531C121.988 576.462 121.822 576.445 125.043 582.869C126.927 586.629 128.818 590.73 132.264 593.334L141.375 597.043C141.141 596.801 139.694 595.308 139.689 595.301C138.87 594.233 138.13 593.105 137.371 591.994C134.254 587.431 132.85 585.45 130.242 580.375C129.009 577.977 127.955 575.491 126.812 573.049C124.815 567.561 121.679 559.453 120.438 553.842C119.717 550.586 119.54 547.232 119.092 543.928L112.883 540.898Z" fill="white" fill-opacity="0.4"/>
<path d="M-12.4551 552.432C-10.4055 553.883 -8.29026 555.245 -6.30665 556.785C-4.27365 558.364 1.55923 563.675 3.40429 565.404C3.83245 565.806 12.5164 574.183 12.8516 574.523C14.318 576.008 15.7112 577.567 17.1406 579.088C18.481 580.599 19.8331 582.1 21.1621 583.621C24.5608 587.511 24.6629 587.938 28.2578 591.385C34.8928 597.747 42.266 602.258 50.6133 606.484C52.0365 607.188 53.4318 607.952 54.8828 608.596C61.7933 611.667 69.307 613.381 76.8457 613.777C78.0109 613.735 79.1804 613.754 80.3418 613.65C82.2771 613.477 84.0838 613.078 85.9492 612.57C87.4477 612.162 88.9236 611.727 90.1367 610.717L80.6094 604.494C77.1672 605.576 73.603 606.194 69.9941 606.299C68.829 606.333 67.6635 606.29 66.498 606.285C60.0697 605.966 53.6775 604.522 47.7187 602.061C46.9984 601.479 44.6652 600.126 43.7676 599.398C38.0624 594.775 33.2136 589.193 28.293 583.777C26.8302 582.231 25.3922 580.661 23.9043 579.139C22.3686 577.568 20.8472 575.979 19.2227 574.5C15.116 570.762 10.6023 567.298 6.12695 564.029C4.12348 562.566 2.07196 561.168 0.0410118 559.742C-2.03556 558.65 -4.17198 557.287 -10.2422 553.459C-10.4081 553.354 -10.5587 553.227 -10.7207 553.117L-12.4551 552.432Z" fill="white" fill-opacity="0.4"/>
<path d="M44.5 548.107C41.3889 548.089 38.2909 548.366 35.2188 548.861C35.6535 548.878 36.0868 548.915 36.5215 548.928C38.5881 548.989 40.6712 548.989 42.6582 548.348L52.5508 554.664C49.6523 557.741 44.9447 556.769 41.2305 556.283C36.7716 555.306 32.4939 553.603 28.5547 551.295C28.1719 551.07 27.7894 550.845 27.4063 550.621C25.8682 551.079 24.532 551.549 22.4082 552.264C17.1753 554.176 12.2272 556.78 6.51758 556.832C2.85585 556.866 1.00325 556.267 -2.52538 555.51C-6.36273 553.541 -7.50542 553.107 -7.42772 553.336C-7.46632 553.309 -7.50652 553.285 -7.54491 553.258L-13.918 550.738C-12.6923 551.644 -11.5317 552.645 -10.2422 553.459C0.936596 560.509 -1.33886 559.214 7.54297 563.225C12.5526 564.694 13.4013 565.381 18.4531 565.308C24.2653 565.224 29.5924 562.809 34.8906 560.711C36.1558 560.256 37.4081 559.759 38.6875 559.346C45.9133 557.013 52.8494 556.052 60.4336 556.762C61.7791 556.907 63.1318 556.997 64.4707 557.195C70.0322 558.014 75.5037 559.493 80.707 561.621C81.0022 561.858 81.2404 562.055 81.7402 562.432C81.9663 562.602 83.5325 563.718 83.9336 564.004L94.8379 568.385C89.088 562.522 81.264 559.011 74.3223 555.002C69.1088 552.619 63.6315 550.885 58.0117 549.769C55.2607 549.223 51.9267 548.758 49.1563 548.344C47.6029 548.194 46.0498 548.117 44.5 548.107Z" fill="white" fill-opacity="0.4"/>
<path d="M69.6426 584.807L72.7305 587.102C80.8022 588.147 76.5373 587.359 85.4844 589.664C96.706 592.481 108.144 594.689 118.861 599.197C120.93 600.032 124.137 601.352 126.309 602.141C128.45 602.918 130.771 603.808 133.092 603.633L124.57 597.482C119.921 596.536 115.506 594.76 111.084 593.09C104.208 590.594 97.117 588.75 90.0254 586.984C88.1472 586.516 86.2881 585.956 84.3828 585.615C82.7468 585.322 81.0765 585.264 79.4238 585.088C73.1854 585.36 76.4487 585.416 69.6426 584.807Z" fill="white" fill-opacity="0.4"/>
<path d="M-18.5781 491.627C-17.2047 493.344 -15.6555 494.932 -14.459 496.777C-12.3758 499.988 -11.5824 503.93 -9.20899 506.99C-5.75764 513.017 -6.29807 511.949 -3.12695 517.963C-0.765783 522.441 1.37347 527.084 4.04296 531.393C4.87273 532.733 5.80881 534.004 6.69141 535.309C8.50261 537.394 10.9502 540.5 13.3008 542.055C18.2584 545.336 23.4256 548.289 28.5547 551.295C32.4939 553.603 36.7716 555.306 41.2305 556.283C44.9447 556.769 49.6523 557.741 52.5508 554.664L42.6582 548.348C40.6712 548.989 38.5881 548.989 36.5215 548.928C35.6025 548.901 34.681 548.892 33.7676 548.787C32.6664 548.66 31.5812 548.417 30.4883 548.232C29.1929 547.85 27.8714 547.546 26.6016 547.086C26.4293 547.024 26.2613 546.949 26.0898 546.885C25.8274 546.454 23.2206 544.838 22.3574 543.992C21.2805 542.938 20.3394 541.754 19.3301 540.635C15.1729 535.354 12.3447 529.22 9.02344 523.418C5.70885 517.628 5.62497 517.669 1.91993 511.914C-11.1175 495.43 5.65528 516.308 -9.07617 499.102C-10.4669 497.477 -11.6855 495.714 -12.9902 494.02L-18.5781 491.627ZM17.9219 542.844C17.9419 542.846 18.0332 542.887 18.2129 542.975C18.9913 543.355 19.7394 543.812 20.4824 544.279C19.145 543.558 17.8305 542.833 17.9219 542.844Z" fill="white" fill-opacity="0.4"/>
<path d="M-33 469.035C-26.0309 474.264 -25.3815 474.934 -16.3887 480.447C-14.5463 481.576 -12.6343 482.604 -10.6621 483.488C-5.30715 485.887 0.386948 487.137 6.22461 487.508C11.2768 487.941 16.3292 488.363 21.3887 488.703C24.0882 488.885 26.5215 488.961 29.2051 489.254C30.3854 489.383 31.5562 489.577 32.7324 489.738C35.7141 490.42 36.4599 490.464 39.291 491.609C39.3089 491.616 39.3503 491.639 39.3691 491.646C41.3121 492.937 42.6277 493.901 41.2011 493.318C48.7027 499.903 55.8715 506.903 62.2851 514.564C65.2033 518.101 68.2916 521.607 70.2109 525.814L80.5156 530.596C79.2181 526.317 76.2735 522.87 73.5898 519.396C67.6755 511.829 60.8225 505.069 53.8515 498.488C47.0132 492.21 39.2462 488.33 30.9726 483.744C29.326 482.831 25.8006 481.545 23.9511 481.068C22.7866 480.767 21.5893 480.615 20.4082 480.389C15.1915 479.69 9.91896 479.843 4.6738 479.635C0.660381 479.476 -1.29555 479.285 -5.3262 478.973C-10.1733 478.407 -15.1045 478.17 -19.7285 476.445C-20.2745 476.242 -20.8033 475.996 -21.3321 475.75C-21.2951 475.724 -21.2618 475.693 -21.2384 475.648C-20.7562 474.739 -22.419 473.964 -23.0098 473.121L-33 469.035Z" fill="white" fill-opacity="0.4"/>
<path d="M33.2129 513.283L39.2051 518.078C38.016 517.381 34.5043 515.2 35.6367 515.986C37.1713 517.052 38.8456 517.903 40.4141 518.918C48.605 524.22 56.3364 530.209 63.7676 536.521C67.6889 540.081 68.5864 540.71 71.9355 544.371C74.5403 547.219 74.4533 547.35 76.6445 550.107C77.7965 551.556 77.7738 551.499 78.8535 552.672L88.0859 556.691C86.0621 553.783 83.7116 551.078 81.4062 548.387C80.4151 547.231 79.4646 546.034 78.3867 544.957C76.829 543.402 75.1356 541.988 73.5098 540.504C67.8509 535.704 62.0186 531.107 56.0391 526.713C52.3486 524.001 49.7627 522.11 45.7617 519.902C41.6208 517.618 37.3959 515.49 33.2129 513.283Z" fill="white" fill-opacity="0.4"/>
<path d="M76.9746 452.719C76.0852 456.776 75.3442 460.869 74.3066 464.891C73.2839 468.856 71.682 472.664 70.7969 476.662C69.5044 482.5 68.9855 490.569 68.4688 496.668C68.6593 498.552 68.7973 500.442 69.0391 502.32C69.6323 506.928 70.7251 511.536 72.4024 515.871L83.8652 521.162C82.5698 516.709 81.2693 512.243 80.2168 507.725C79.7595 505.762 79.3797 503.781 78.9609 501.809C77.309 488.383 77.7927 495.313 77.6836 480.227C77.6509 475.693 77.263 471.147 77.5996 466.625C77.9126 462.419 78.9512 458.297 79.627 454.133L76.9746 452.719Z" fill="white" fill-opacity="0.4"/>
</g>
<defs>
<clipPath id="clip0_146_6">
<rect width="362.322" height="716" fill="white" transform="translate(-33)"/>
</clipPath>
</defs>
</svg>
